SplineFontDB: 3.2
FontName: FSGLAA
FullName: FSGLAA
FamilyName: FSGLA
Weight: Book
Copyright: Generated by Fontographer 3.5
Version: 1.0 Tue May 27 15:59:51 1997
ItalicAngle: 0
UnderlinePosition: -143
UnderlineWidth: 20
Ascent: 800
Descent: 200
InvalidEm: 0
sfntRevision: 0x00010000
LayerCount: 2
Layer: 0 1 "Stra+AX4A-nji" 1
Layer: 1 1 "Prednji" 0
XUID: [1021 302 -369379882 22459]
StyleMap: 0x0040
FSType: 0
OS2Version: 1
OS2_WeightWidthSlopeOnly: 0
OS2_UseTypoMetrics: 0
CreationTime: -1218080894
ModificationTime: 1728641900
PfmFamily: 81
TTFWeight: 400
TTFWidth: 5
LineGap: 0
VLineGap: 0
Panose: 0 0 0 0 0 0 0 0 0 0
OS2TypoAscent: 800
OS2TypoAOffset: 0
OS2TypoDescent: 200
OS2TypoDOffset: 0
OS2TypoLinegap: 0
OS2WinAscent: 804
OS2WinAOffset: 0
OS2WinDescent: 200
OS2WinDOffset: 0
HheadAscent: 804
HheadAOffset: 0
HheadDescent: -200
HheadDOffset: 0
OS2SubXSize: 700
OS2SubYSize: 650
OS2SubXOff: 0
OS2SubYOff: 143
OS2SupXSize: 700
OS2SupYSize: 650
OS2SupXOff: 0
OS2SupYOff: 453
OS2StrikeYSize: 50
OS2StrikeYPos: 259
OS2Vendor: 'Alts'
OS2CodePages: 80000001.00000000
OS2UnicodeRanges: 00000000.00000000.00000000.00000000
DEI: 91125
TtTable: prep
NPUSHB
 14
 20
 20
 19
 19
 10
 10
 4
 4
 0
 0
 11
 11
 69
 1
SCANTYPE
PUSHW_1
 511
SCANCTRL
SROUND
RCVT
ROUND[Grey]
WCVTP
RTG
PUSHB_4
 1
 0
 70
 0
CALL
PUSHB_4
 2
 0
 70
 0
CALL
PUSHB_4
 3
 4
 70
 0
CALL
PUSHB_4
 5
 0
 70
 0
CALL
PUSHB_4
 6
 10
 70
 0
CALL
PUSHB_4
 7
 0
 70
 0
CALL
PUSHB_4
 8
 10
 70
 0
CALL
PUSHB_4
 9
 0
 70
 0
CALL
PUSHB_4
 12
 0
 70
 0
CALL
PUSHB_4
 13
 4
 70
 0
CALL
PUSHB_4
 14
 4
 70
 0
CALL
PUSHB_4
 15
 10
 70
 0
CALL
PUSHB_4
 16
 10
 70
 0
CALL
PUSHB_4
 17
 11
 70
 0
CALL
PUSHB_4
 18
 10
 70
 0
CALL
RCVT
ROUND[Grey]
WCVTP
RCVT
ROUND[Grey]
WCVTP
RCVT
ROUND[Grey]
WCVTP
RCVT
ROUND[Grey]
WCVTP
RCVT
ROUND[Grey]
WCVTP
EndTTInstrs
TtTable: fpgm
NPUSHB
 5
 5
 4
 3
 2
 0
FDEF
SROUND
RCVT
DUP
PUSHB_1
 3
CINDEX
RCVT
SWAP
SUB
ROUND[Grey]
RTG
SWAP
ROUND[Grey]
ADD
WCVTP
ENDF
FDEF
RCVT
DUP
PUSHB_1
 3
CINDEX
RCVT
SWAP
SUB

StartChar: .notdef
Encoding: 65536 -1 0
Width: 804
GlyphClass: 1
Flags: W
LayerCount: 2
Fore
SplineSet
50 0 m 1,0,-1
 50 804 l 1,1,-1
 754 804 l 1,2,-1
 754 0 l 1,3,-1
 50 0 l 1,0,-1
704 50 m 1,4,-1
 704 754 l 1,5,-1
 100 754 l 1,6,-1
 100 50 l 1,7,-1
 704 50 l 1,4,-1
EndSplineSet
EndChar

StartChar: glyph4
Encoding: 39 39 4
Width: 305
GlyphClass: 2
Flags: W
LayerCount: 2
Fore
SplineSet
273 580 m 1,0,-1
 273 564 l 2,1,2
 273 558 273 558 286 539 c 1,3,-1
 259 547 l 1,4,-1
 232 550 l 1,5,-1
 205 547 l 1,6,-1
 205 466 l 2,7,8
 205 439 205 439 215 423 c 2,9,-1
 231 397 l 1,10,11
 225 400 225 400 207 402 c 0,12,13
 153 402 153 402 108 317 c 1,14,-1
 108 547 l 1,15,-1
 78 550 l 2,16,17
 54 550 54 550 38 545 c 0,18,19
 33 545 33 545 22 539 c 1,20,-1
 32 562 l 1,21,-1
 37 580 l 1,22,-1
 273 580 l 1,0,-1
EndSplineSet
EndChar

StartChar: glyph5
Encoding: 43 43 5
Width: 808
GlyphClass: 2
Flags: W
LayerCount: 2
Fore
SplineSet
271 651 m 1,0,1
 348 638 348 638 379 638 c 0,2,3
 401 638 401 638 430.5 643 c 128,-1,4
 460 648 460 648 477 651 c 1,5,6
 441 628 441 628 425 541 c 0,7,8
 414 480 414 480 414 401 c 0,9,10
 414 381 414 381 414 369.5 c 128,-1,11
 414 358 414 358 415 354 c 1,12,13
 425 354 425 354 436 353.5 c 128,-1,14
 447 353 447 353 461 353 c 0,15,16
 540 353 540 353 599 361 c 0,17,18
 689 373 689 373 737 404 c 1,19,20
 731 374 731 374 727 349.5 c 128,-1,21
 723 325 723 325 723 306 c 0,22,23
 723 281 723 281 732 222 c 1,24,25
 688 256 688 256 632 270.5 c 128,-1,26
 576 285 576 285 522 285 c 0,27,28
 484 285 484 285 446 279 c 0,29,30
 434 277 434 277 415 273 c 1,31,32
 415 267 415 267 414.5 259 c 128,-1,33
 414 251 414 251 414 239 c 0,34,35
 414 176 414 176 423 119 c 0,36,37
 437 33 437 33 470 -32 c 1,38,39
 421 -18 421 -18 381 -18 c 0,40,41
 343 -18 343 -18 282 -32 c 1,42,43
 315 32 315 32 329 119 c 0,44,45
 338 175 338 175 338 240 c 0,46,47
 338 252 338 252 338 259.5 c 128,-1,48
 338 267 338 267 337 273 c 1,49,50
 322 276 322 276 312 277 c 0,51,52
 281 281 281 281 248 281 c 0,53,54
 185 281 185 281 136 269 c 0,55,56
 69 253 69 253 20 214 c 1,57,58
 20 239 20 239 21 271 c 128,-1,59
 22 303 22 303 22 313 c 0,60,61
 22 346 22 346 15 396 c 1,62,63
 55 370 55 370 129 359 c 0,64,65
 182 351 182 351 254 351 c 0,66,67
 291 351 291 351 306.5 351.5 c 128,-1,68
 322 352 322 352 337 354 c 1,69,70
 337 360 337 360 337 367 c 128,-1,71
 337 374 337 374 338 386 c 0,72,73
 338 466 338 466 327 529 c 0,74,75
 310 626 310 626 271 651 c 1,0,1
EndSplineSet
EndChar

StartChar: glyph6
Encoding: 44 44 6
Width: 278
GlyphClass: 2
Flags: W
LayerCount: 2
Fore
SplineSet
87 0 m 1,0,-1
 87 106 l 1,1,-1
 191 106 l 1,2,-1
 191 8 l 2,3,4
 191 -79 191 -79 147 -119 c 0,5,6
 122 -142 122 -142 87 -147 c 1,7,-1
 87 -101 l 1,8,9
 116 -98 116 -98 128 -69.5 c 128,-1,10
 140 -41 140 -41 140 0 c 1,11,-1
 87 0 l 1,0,-1
EndSplineSet
EndChar

StartChar: glyph7
Encoding: 45 45 7
Width: 500
GlyphClass: 2
Flags: W
LayerCount: 2
Fore
SplineSet
100 240 m 1,0,-1
 100 300 l 1,1,-1
 400 300 l 1,2,-1
 400 240 l 1,3,-1
 100 240 l 1,0,-1
EndSplineSet
EndChar

StartChar: glyph8
Encoding: 46 46 8
Width: 500
GlyphClass: 2
Flags: W
LayerCount: 2
Fore
SplineSet
502 321 m 1,0,1
 465 291 465 291 440 265 c 0,2,3
 419 244 419 244 387 205 c 1,4,5
 357 244 357 244 331 270 c 0,6,7
 311 290 311 290 272 321 c 1,8,9
 311 351 311 351 334.5 374.5 c 128,-1,10
 358 398 358 398 387 436 c 1,11,12
 423 393 423 393 440 376 c 0,13,14
 463 353 463 353 502 321 c 1,0,1
EndSplineSet
EndChar

StartChar: glyph9
Encoding: 47 47 9
Width: 720
GlyphClass: 2
Flags: W
LayerCount: 2
Fore
SplineSet
439 547 m 1,0,1
 441 543 441 543 442 523.5 c 128,-1,2
 443 504 443 504 443 473 c 0,3,4
 443 415 443 415 440.5 292.5 c 128,-1,5
 438 170 438 170 438 157 c 0,6,7
 438 122 438 122 439 99.5 c 128,-1,8
 440 77 440 77 443 72 c 1,9,-1
 559 126 l 2,10,11
 563 132 563 132 564 174 c 128,-1,12
 565 216 565 216 565 292 c 0,13,14
 565 389 565 389 564.5 441.5 c 128,-1,15
 564 494 564 494 562 545 c 1,16,-1
 439 547 l 1,0,1
243 547 m 1,17,18
 245 544 245 544 245 521 c 0,19,20
 245 481 245 481 238.5 395.5 c 128,-1,21
 232 310 232 310 225.5 211 c 128,-1,22
 219 112 219 112 219 55 c 0,23,24
 219 -12 219 -12 226 -40 c 1,25,26
 239 -35 239 -35 292 -7 c 0,27,28
 325 10 325 10 343 18 c 1,29,30
 344 83 344 83 346.5 178 c 128,-1,31
 349 273 349 273 352.5 400 c 128,-1,32
 356 527 356 527 358 547 c 1,33,-1
 243 547 l 1,17,18
23 -200 m 1,34,35
 27 -184 27 -184 27 -173 c 256,36,37
 27 -162 27 -162 21 -135 c 1,38,-1
 126 -84 l 1,39,40
 126 20 126 20 135 141 c 128,-1,41
 144 262 144 262 154 380.5 c 128,-1,42
 164 499 164 499 164 538 c 0,43,44
 164 572 164 572 159 580 c 1,45,-1
 664 580 l 1,46,47
 659 571 659 571 656 507 c 128,-1,48
 653 443 653 443 653 357 c 0,49,50
 653 262 653 262 658.5 192 c 128,-1,51
 664 122 664 122 676 111 c 1,52,53
 668 112 668 112 664 112 c 0,54,55
 603 112 603 112 455 41 c 0,56,57
 339 -15 339 -15 194 -99 c 0,58,59
 108 -149 108 -149 23 -200 c 1,34,35
EndSplineSet
EndChar

StartChar: glyph10
Encoding: 59 59 10
Width: 700
GlyphClass: 2
Flags: W
LayerCount: 2
Fore
SplineSet
218 547 m 1,0,1
 220 541 220 541 220 529 c 0,2,3
 220 498 220 498 208.5 398 c 128,-1,4
 197 298 197 298 198 290 c 1,5,-1
 386 290 l 2,6,7
 387 293 387 293 387 304 c 0,8,9
 387 339 387 339 372.5 413 c 128,-1,10
 358 487 358 487 340 547 c 1,11,-1
 218 547 l 1,0,1
524 257 m 1,12,-1
 396 257 l 1,13,14
 397 251 397 251 397 240 c 128,-1,15
 397 229 397 229 397 224 c 0,16,17
 397 208 397 208 396 165.5 c 128,-1,18
 395 123 395 123 395 103 c 0,19,20
 395 41 395 41 402 33 c 1,21,-1
 533 33 l 1,22,23
 536 39 536 39 536 62 c 0,24,25
 536 99 536 99 532 149.5 c 128,-1,26
 528 200 528 200 524 257 c 1,12,-1
446 580 m 1,27,28
 442 575 442 575 442 553 c 0,29,30
 442 501 442 501 462 400 c 128,-1,31
 482 299 482 299 492 290 c 1,32,-1
 627 290 l 1,33,34
 620 281 620 281 620 210 c 0,35,36
 620 136 620 136 628 75.5 c 128,-1,37
 636 15 636 15 653 0 c 1,38,39
 575 0 575 0 463 0 c 128,-1,40
 351 0 351 0 234.5 0 c 128,-1,41
 118 0 118 0 32 0 c 1,42,43
 55 58 55 58 91 263.5 c 128,-1,44
 127 469 127 469 127 550 c 0,45,46
 127 572 127 572 124 580 c 1,47,-1
 446 580 l 1,27,28
192 259 m 1,48,49
 192 249 192 249 170.5 143.5 c 128,-1,50
 149 38 149 38 149 33 c 1,51,-1
 291 33 l 1,52,53
 297 37 297 37 299 60 c 128,-1,54
 301 83 301 83 301 120 c 0,55,56
 301 151 301 151 299 201 c 128,-1,57
 297 251 297 251 297 257 c 1,58,-1
 192 259 l 1,48,49
EndSplineSet
EndChar

StartChar: glyph11
Encoding: 60 60 11
Width: 0
GlyphClass: 2
Flags: W
LayerCount: 2
Fore
SplineSet
158 680 m 1,0,1
 200 680 200 680 379 732 c 0,2,3
 465 757 465 757 527 757 c 0,4,5
 572 757 572 757 588.5 756 c 128,-1,6
 605 755 605 755 619 754 c 0,7,8
 625 755 625 755 629 755 c 1,9,10
 628 752 628 752 627.5 739 c 128,-1,11
 627 726 627 726 627 717 c 0,12,13
 627 672 627 672 629 662 c 1,14,-1
 511 662 l 1,15,16
 514 666 514 666 515.5 689.5 c 128,-1,17
 517 713 517 713 518 731 c 1,18,19
 441 731 441 731 369 708 c 0,20,21
 267 675 267 675 259 674 c 0,22,23
 224 667 224 667 180.5 661.5 c 128,-1,24
 137 656 137 656 101 656 c 0,25,26
 80 656 80 656 68.5 657 c 128,-1,27
 57 658 57 658 47 659 c 1,28,29
 50 662 50 662 50 689 c 0,30,31
 50 705 50 705 49.5 720 c 128,-1,32
 49 735 49 735 48 747 c 1,33,-1
 163 747 l 1,34,35
 160 713 160 713 158 680 c 1,0,1
EndSplineSet
EndChar

StartChar: glyph12
Encoding: 61 61 12
Width: 0
GlyphClass: 2
Flags: W
LayerCount: 2
Fore
SplineSet
128 680 m 1,0,1
 175 689 175 689 234 735 c 0,2,3
 260 755 260 755 277 755 c 0,4,5
 353 754 353 754 365 754 c 0,6,7
 374 754 374 754 379 755 c 1,8,9
 378 752 378 752 377.5 739 c 128,-1,10
 377 726 377 726 377 717 c 0,11,12
 377 672 377 672 379 662 c 1,13,-1
 261 662 l 1,14,15
 264 666 264 666 265.5 690 c 128,-1,16
 267 714 267 714 268 732 c 1,17,18
 254 727 254 727 223 704 c 128,-1,19
 192 681 192 681 164 672.5 c 128,-1,20
 136 664 136 664 112.5 659.5 c 128,-1,21
 89 655 89 655 73 655 c 0,22,23
 62 655 62 655 44.5 658 c 128,-1,24
 27 661 27 661 17 659 c 1,25,26
 20 662 20 662 20 689 c 0,27,28
 20 705 20 705 19.5 720 c 128,-1,29
 19 735 19 735 18 747 c 1,30,-1
 133 747 l 1,31,32
 130 713 130 713 128 680 c 1,0,1
EndSplineSet
EndChar

StartChar: glyph13
Encoding: 62 62 13
Width: 0
GlyphClass: 2
Flags: W
LayerCount: 2
Fore
SplineSet
159 686 m 1,0,1
 250 686 250 686 335.5 703.5 c 128,-1,2
 421 721 421 721 508 739.5 c 128,-1,3
 595 758 595 758 680 758 c 0,4,5
 725 758 725 758 741.5 757 c 128,-1,6
 758 756 758 756 772 755 c 0,7,8
 778 756 778 756 782 756 c 1,9,10
 781 753 781 753 780.5 740 c 128,-1,11
 780 727 780 727 780 718 c 0,12,13
 780 673 780 673 782 663 c 1,14,-1
 664 663 l 1,15,16
 667 667 667 667 668.5 690.5 c 128,-1,17
 670 714 670 714 671 732 c 1,18,19
 651 737 651 737 628 737 c 0,20,21
 583 737 583 737 499.5 718.5 c 128,-1,22
 416 700 416 700 332.5 682 c 128,-1,23
 249 664 249 664 201 664 c 2,24,-1
 172 664 l 1,25,-1
 146 664 l 1,26,-1
 126 664 l 1,27,-1
 111 664 l 1,28,-1
 100 664 l 2,29,30
 84 664 84 664 71 664 c 128,-1,31
 58 664 58 664 48 665 c 1,32,33
 51 668 51 668 51 695 c 0,34,35
 51 711 51 711 50.5 726 c 128,-1,36
 50 741 50 741 49 753 c 1,37,-1
 164 753 l 1,38,39
 161 719 161 719 159 686 c 1,0,1
EndSplineSet
EndChar

StartChar: glyph15
Encoding: 66 66 15
Width: 770
GlyphClass: 2
Flags: W
LayerCount: 2
Fore
SplineSet
89 35 m 1,0,1
 112 29 112 29 174 24 c 128,-1,2
 236 19 236 19 280 19 c 2,3,-1
 303 19 l 2,4,5
 311 20 311 20 314 20 c 1,6,-1
 314 255 l 1,7,-1
 23 256 l 1,8,9
 30 265 30 265 48.5 327 c 128,-1,10
 67 389 67 389 73 415 c 0,11,12
 86 460 86 460 93 487 c 0,13,14
 107 540 107 540 107 561 c 0,15,16
 107 577 107 577 101 582 c 1,17,18
 117 582 117 582 136 580 c 128,-1,19
 155 578 155 578 165 578 c 2,20,-1
 236 581 l 1,21,22
 229 573 229 573 210 518 c 128,-1,23
 191 463 191 463 178 414.5 c 128,-1,24
 165 366 165 366 159 341 c 128,-1,25
 153 316 153 316 153 296 c 1,26,-1
 591 296 l 2,27,28
 593 297 593 297 561 412 c 0,29,30
 548 457 548 457 526 514.5 c 128,-1,31
 504 572 504 572 497 582 c 1,32,33
 507 582 507 582 531 579 c 128,-1,34
 555 576 555 576 567 576 c 256,35,36
 579 576 579 576 600.5 578.5 c 128,-1,37
 622 581 622 581 632 581 c 1,38,39
 628 580 628 580 628 570 c 0,40,41
 628 549 628 549 646 482 c 0,42,43
 661 432 661 432 667 408 c 0,44,45
 690 323 690 323 694 309 c 0,46,47
 707 266 707 266 718 255 c 1,48,-1
 420 255 l 1,49,-1
 420 21 l 1,50,51
 434 20 434 20 445.5 19.5 c 128,-1,52
 457 19 457 19 467 19 c 0,53,54
 522 19 522 19 571 23 c 128,-1,55
 620 27 620 27 644 35 c 1,56,57
 631 24 631 24 617 16 c 0,58,59
 608 11 608 11 599 -1 c 1,60,-1
 128 0 l 1,61,62
 123 13 123 13 106 25 c 0,63,64
 101 29 101 29 89 35 c 1,0,1
EndSplineSet
EndChar

StartChar: glyph16
Encoding: 67 67 16
Width: 874
GlyphClass: 2
Flags: W
LayerCount: 2
Fore
SplineSet
838 255 m 1,0,-1
 490 255 l 1,1,-1
 490 23 l 2,2,3
 493 22 493 22 505 22 c 0,4,5
 539 22 539 22 590 28 c 128,-1,6
 641 34 641 34 665 42 c 1,7,-1
 651 -1 l 1,8,-1
 199 -1 l 1,9,-1
 192 41 l 1,10,11
 220 32 220 32 280.5 26 c 128,-1,12
 341 20 341 20 364 20 c 1,13,-1
 364 255 l 1,14,-1
 23 256 l 1,15,16
 27 264 27 264 29 301 c 128,-1,17
 31 338 31 338 31 415 c 0,18,19
 31 428 31 428 31 442.5 c 128,-1,20
 31 457 31 457 32 474 c 0,21,22
 32 517 32 517 28.5 545.5 c 128,-1,23
 25 574 25 574 14 582 c 1,24,25
 37 582 37 582 78.5 581 c 128,-1,26
 120 580 120 580 160 579 c 0,27,28
 177 580 177 580 181 580 c 2,29,-1
 373 581 l 1,30,31
 369 580 369 580 366 534 c 128,-1,32
 363 488 363 488 363 442 c 0,33,34
 363 393 363 393 367 383 c 1,35,-1
 488 383 l 1,36,37
 490 388 490 388 491 410 c 128,-1,38
 492 432 492 432 492 463 c 0,39,40
 492 501 492 501 490 538.5 c 128,-1,41
 488 576 488 576 486 581 c 1,42,-1
 665 580 l 1,43,-1
 840 581 l 1,44,45
 833 579 833 579 830.5 553.5 c 128,-1,46
 828 528 828 528 828 479 c 2,47,-1
 828 408 l 2,48,49
 828 358 828 358 828 309 c 0,50,51
 830 266 830 266 838 255 c 1,0,-1
146 560 m 1,52,53
 141 551 141 551 138 512.5 c 128,-1,54
 135 474 135 474 135 422 c 0,55,56
 135 378 135 378 138 338.5 c 128,-1,57
 141 299 141 299 148 276 c 1,58,-1
 717 276 l 2,59,60
 718 277 718 277 720.5 307 c 128,-1,61
 723 337 723 337 723 392 c 0,62,63
 723 456 723 456 721 502.5 c 128,-1,64
 719 549 719 549 714 560 c 1,65,-1
 598 560 l 1,66,-1
 598 492 l 2,67,68
 598 407 598 407 599.5 388 c 128,-1,69
 601 369 601 369 606 364 c 1,70,-1
 259 364 l 1,71,72
 263 367 263 367 264 385.5 c 128,-1,73
 265 404 265 404 265 437 c 0,74,75
 265 476 265 476 263 515.5 c 128,-1,76
 261 555 261 555 258 560 c 1,77,-1
 146 560 l 1,52,53
EndSplineSet
EndChar

StartChar: glyph17
Encoding: 68 68 17
Width: 465
GlyphClass: 2
Flags: W
LayerCount: 2
Fore
SplineSet
152 0 m 1,0,-1
 38 0 l 1,1,2
 42 16 42 16 43 31.5 c 128,-1,3
 44 47 44 47 44 71 c 0,4,5
 44 90 44 90 42 137 c 128,-1,6
 40 184 40 184 40 188 c 0,7,8
 40 268 40 268 62 308 c 0,9,10
 92 363 92 363 173 377 c 1,11,-1
 173 500 l 1,12,-1
 43 500 l 1,13,14
 45 512 45 512 40 529 c 0,15,16
 40 531 40 531 37 536 c 1,17,18
 64 534 64 534 101.5 532.5 c 128,-1,19
 139 531 139 531 150 531 c 0,20,21
 172 531 172 531 174 533 c 0,22,23
 174 548 174 548 173 562.5 c 128,-1,24
 172 577 172 577 161 580 c 1,25,-1
 294 580 l 1,26,27
 284 580 284 580 283 565 c 128,-1,28
 282 550 282 550 282 533 c 0,29,30
 284 532 284 532 290.5 532 c 128,-1,31
 297 532 297 532 304 532 c 0,32,33
 327 532 327 532 355 533 c 128,-1,34
 383 534 383 534 407 536 c 1,35,36
 406 533 406 533 405 527 c 128,-1,37
 404 521 404 521 404 517 c 0,38,39
 404 506 404 506 406 500 c 1,40,-1
 280 500 l 1,41,-1
 280 377 l 1,42,43
 390 351 390 351 402 234.5 c 128,-1,44
 414 118 414 118 424 0 c 1,45,-1
 310 0 l 1,46,47
 313 3 313 3 315 29 c 128,-1,48
 317 55 317 55 317 88 c 0,49,50
 317 128 317 128 315 200 c 128,-1,51
 313 272 313 272 313 284 c 0,52,53
 313 321 313 321 289 343 c 128,-1,54
 265 365 265 365 233 365 c 0,55,56
 156 365 156 365 149 289 c 0,57,58
 149 278 149 278 147 206 c 128,-1,59
 145 134 145 134 145 92 c 0,60,61
 145 18 145 18 152 0 c 1,0,-1
EndSplineSet
EndChar

StartChar: glyph18
Encoding: 73 73 18
Width: 885
GlyphClass: 2
Flags: W
LayerCount: 2
Fore
SplineSet
129 547 m 1,0,1
 126 537 126 537 124 493 c 128,-1,2
 122 449 122 449 122 397 c 0,3,4
 122 347 122 347 123.5 323 c 128,-1,5
 125 299 125 299 129 295 c 1,6,-1
 259 295 l 1,7,8
 262 304 262 304 265 354.5 c 128,-1,9
 268 405 268 405 268 449 c 0,10,11
 268 490 268 490 266 515.5 c 128,-1,12
 264 541 264 541 259 547 c 1,13,-1
 129 547 l 1,0,1
599 547 m 1,14,15
 596 542 596 542 594 504 c 128,-1,16
 592 466 592 466 592 424 c 0,17,18
 592 392 592 392 592.5 350.5 c 128,-1,19
 593 309 593 309 599 295 c 1,20,-1
 718 295 l 1,21,22
 723 303 723 303 725 336 c 128,-1,23
 727 369 727 369 727 419 c 0,24,25
 727 467 727 467 725 501.5 c 128,-1,26
 723 536 723 536 718 547 c 1,27,-1
 599 547 l 1,14,15
368 547 m 1,28,29
 363 541 363 541 359 499.5 c 128,-1,30
 355 458 355 458 355 409 c 0,31,32
 355 370 355 370 358 338.5 c 128,-1,33
 361 307 361 307 368 295 c 1,34,-1
 484 295 l 1,35,36
 489 320 489 320 491 350 c 128,-1,37
 493 380 493 380 493 408 c 0,38,39
 493 442 493 442 490.5 477 c 128,-1,40
 488 512 488 512 484 547 c 1,41,-1
 368 547 l 1,28,29
192 0 m 2,42,43
 189 3 189 3 185 12 c 0,44,45
 178 28 178 28 162 42 c 1,46,47
 187 35 187 35 205.5 33 c 128,-1,48
 224 31 224 31 251 31 c 0,49,50
 268 31 268 31 312.5 32 c 128,-1,51
 357 33 357 33 370 33 c 1,52,-1
 370 80 l 1,53,-1
 370 106 l 1,54,-1
 370 130 l 2,55,56
 370 201 370 201 368 227.5 c 128,-1,57
 366 254 366 254 362 262 c 1,58,-1
 17 262 l 1,59,60
 22 319 22 319 25.5 374 c 128,-1,61
 29 429 29 429 29 465 c 0,62,63
 29 505 29 505 26.5 530.5 c 128,-1,64
 24 556 24 556 17 580 c 1,65,-1
 844 580 l 1,66,67
 836 572 836 572 830.5 510.5 c 128,-1,68
 825 449 825 449 825 377 c 0,69,70
 825 334 825 334 828 299.5 c 128,-1,71
 831 265 831 265 836 259 c 1,72,-1
 476 259 l 1,73,74
 474 253 474 253 472 215.5 c 128,-1,75
 470 178 470 178 470 147 c 0,76,77
 470 96 470 96 471.5 69 c 128,-1,78
 473 42 473 42 476 33 c 1,79,80
 507 33 507 33 533 32.5 c 128,-1,81
 559 32 559 32 581 32 c 0,82,83
 610 32 610 32 630 34 c 128,-1,84
 650 36 650 36 680 42 c 1,85,86
 667 33 667 33 662.5 19.5 c 128,-1,87
 658 6 658 6 653 0 c 1,88,-1
 192 0 l 2,42,43
EndSplineSet
EndChar

StartChar: glyph19
Encoding: 74 74 19
Width: 830
GlyphClass: 2
Flags: W
LayerCount: 2
Fore
SplineSet
295 532 m 1,0,1
 272 538 272 538 260 542 c 0,2,3
 221 554 221 554 208 564 c 1,4,-1
 133 563 l 1,5,6
 123 540 123 540 117 490.5 c 128,-1,7
 111 441 111 441 111 386 c 0,8,9
 111 337 111 337 116.5 305.5 c 128,-1,10
 122 274 122 274 132.5 259.5 c 128,-1,11
 143 245 143 245 158 239 c 1,12,13
 178 281 178 281 209 304 c 0,14,15
 245 331 245 331 295 331 c 0,16,17
 346 331 346 331 379 305 c 0,18,19
 407 283 407 283 425 239 c 1,20,21
 441 244 441 244 453 258.5 c 128,-1,22
 465 273 465 273 473.5 305.5 c 128,-1,23
 482 338 482 338 482 390 c 0,24,25
 482 444 482 444 475 491 c 128,-1,26
 468 538 468 538 457 563 c 1,27,-1
 380 564 l 1,28,29
 368 554 368 554 330 542 c 0,30,31
 318 538 318 538 295 532 c 1,0,1
573 374 m 0,32,33
 561 304 561 304 530 268 c 128,-1,34
 499 232 499 232 434 217 c 1,35,36
 446 175 446 175 452.5 89.5 c 128,-1,37
 459 4 459 4 464 0 c 1,38,-1
 108 0 l 1,39,40
 113 5 113 5 118 50 c 0,41,42
 130 165 130 165 149 217 c 1,43,44
 90 232 90 232 59.5 270 c 128,-1,45
 29 308 29 308 17 374 c 0,46,47
 15 381 15 381 15 389 c 128,-1,48
 15 397 15 397 15 401 c 0,49,50
 15 428 15 428 27 479 c 128,-1,51
 39 530 39 530 39 556 c 0,52,53
 39 567 39 567 39 578 c 0,54,55
 36 589 36 589 35 593 c 1,56,-1
 181 593 l 1,57,58
 159 627 159 627 152 692 c 0,59,60
 140 800 140 800 130 800 c 1,61,-1
 457 800 l 1,62,63
 444 802 444 802 441 757 c 0,64,65
 432 633 432 633 407 593 c 1,66,-1
 555 593 l 1,67,68
 551 576 551 576 551 555 c 256,69,70
 551 534 551 534 567 460 c 0,71,72
 575 423 575 423 575 401 c 0,73,74
 575 383 575 383 573 374 c 0,32,33
371 33 m 1,75,76
 367 99 367 99 363 163 c 0,77,78
 355 291 355 291 295 324 c 1,79,80
 246 296 246 296 227 212 c 1,81,82
 217 122 217 122 207 33 c 1,83,-1
 371 33 l 1,75,76
295 539 m 1,84,85
 332 552 332 552 346 600 c 0,86,87
 356 634 356 634 356 693 c 0,88,89
 356 704 356 704 355.5 715 c 128,-1,90
 355 726 355 726 355 737 c 0,91,92
 355 762 355 762 361 767 c 1,93,-1
 229 767 l 1,94,95
 230 708 230 708 234 657 c 0,96,97
 243 557 243 557 295 539 c 1,84,85
783 371 m 1,98,99
 747 341 747 341 731 325 c 0,100,101
 721 315 721 315 688 275 c 1,102,103
 658 314 658 314 642 330 c 0,104,105
 632 340 632 340 593 371 c 1,106,107
 632 401 632 401 645.5 414.5 c 128,-1,108
 659 428 659 428 688 466 c 1,109,110
 724 423 724 423 731 416 c 0,111,112
 744 403 744 403 783 371 c 1,98,99
EndSplineSet
EndChar

StartChar: glyph20
Encoding: 76 76 20
Width: 925
GlyphClass: 2
Flags: W
LayerCount: 2
Fore
SplineSet
300 754 m 1,0,-1
 159 754 l 1,1,2
 162 739 162 739 162 715 c 0,3,4
 162 685 162 685 157.5 624 c 128,-1,5
 153 563 153 563 153 550 c 1,6,-1
 291 550 l 1,7,8
 291 563 291 563 288.5 610.5 c 128,-1,9
 286 658 286 658 286 674 c 0,10,11
 286 711 286 711 288.5 730 c 128,-1,12
 291 749 291 749 300 754 c 1,0,-1
402 517 m 1,13,-1
 402 303 l 1,14,-1
 523 303 l 1,15,16
 523 336 523 336 522 356 c 0,17,18
 517 457 517 457 517 460 c 0,19,20
 517 506 517 506 524 517 c 1,21,-1
 402 517 l 1,13,-1
28 0 m 1,22,23
 28 26 28 26 33 151 c 128,-1,24
 38 276 38 276 45 490.5 c 128,-1,25
 52 705 52 705 52 754 c 0,26,27
 52 790 52 790 50 800 c 1,28,-1
 413 800 l 1,29,30
 406 797 406 797 403 768 c 128,-1,31
 400 739 400 739 400 693 c 0,32,33
 400 660 400 660 400 624 c 128,-1,34
 400 588 400 588 401 550 c 1,35,-1
 633 550 l 1,36,37
 626 529 626 529 626 497 c 0,38,39
 629 440 629 440 631 397.5 c 128,-1,40
 633 355 633 355 633 303 c 1,41,-1
 729 303 l 2,42,43
 820 303 820 303 850 217 c 1,44,45
 867 108 867 108 885 0 c 1,46,-1
 525 0 l 1,47,48
 528 9 528 9 529 36 c 128,-1,49
 530 63 530 63 530 70 c 0,50,51
 530 113 530 113 527.5 189.5 c 128,-1,52
 525 266 525 266 525 270 c 1,53,-1
 406 270 l 1,54,55
 406 247 406 247 405.5 216.5 c 128,-1,56
 405 186 405 186 405 141 c 0,57,58
 405 75 405 75 406.5 40.5 c 128,-1,59
 408 6 408 6 412 0 c 1,60,-1
 293 0 l 1,61,62
 297 8 297 8 299 45 c 128,-1,63
 301 82 301 82 301 137 c 0,64,65
 301 225 301 225 298.5 325.5 c 128,-1,66
 296 426 296 426 294 504 c 2,67,-1
 294 517 l 1,68,-1
 151 517 l 1,69,70
 151 462 151 462 147 378 c 0,71,72
 136 147 136 147 136 102 c 0,73,74
 136 11 136 11 147 0 c 1,75,-1
 28 0 l 1,22,23
694 270 m 2,76,-1
 634 270 l 1,77,78
 634 252 634 252 634 206 c 128,-1,79
 634 160 634 160 634 117 c 2,80,-1
 634 52 l 2,81,82
 633 36 633 36 633 33 c 1,83,-1
 758 33 l 1,84,85
 758 56 758 56 758 80 c 128,-1,86
 758 104 758 104 759 128 c 0,87,88
 759 199 759 199 749 228 c 0,89,90
 734 270 734 270 694 270 c 2,76,-1
EndSplineSet
EndChar

StartChar: glyph21
Encoding: 78 78 21
Width: 590
GlyphClass: 2
Flags: W
LayerCount: 2
Fore
SplineSet
538 386 m 0,0,1
 538 362 538 362 526 339 c 0,2,3
 485 259 485 259 349 259 c 1,4,5
 356 195 356 195 377.5 107 c 128,-1,6
 399 19 399 19 415 0 c 1,7,-1
 294 0 l 1,8,9
 297 3 297 3 297 14 c 0,10,11
 297 42 297 42 282 108 c 0,12,13
 264 182 264 182 247 257 c 1,14,-1
 129 257 l 1,15,16
 135 238 135 238 137 206 c 128,-1,17
 139 174 139 174 139 140 c 0,18,19
 139 117 139 117 138.5 99.5 c 128,-1,20
 138 82 138 82 138 70 c 0,21,22
 138 40 138 40 140 22.5 c 128,-1,23
 142 5 142 5 148 0 c 1,24,-1
 24 -2 l 1,25,26
 30 2 30 2 33.5 39.5 c 128,-1,27
 37 77 37 77 37 134 c 0,28,29
 37 198 37 198 33.5 238 c 128,-1,30
 30 278 30 278 22 288 c 1,31,-1
 240 290 l 1,32,33
 230 361 230 361 221 427 c 0,34,35
 202 558 202 558 190 580 c 1,36,-1
 555 580 l 1,37,38
 543 572 543 572 538.5 547.5 c 128,-1,39
 534 523 534 523 534 485 c 0,40,41
 534 456 534 456 535.5 428.5 c 128,-1,42
 537 401 537 401 538 386 c 0,0,1
344 288 m 1,43,44
 400 288 400 288 422 332 c 0,45,46
 438 363 438 363 438 427 c 0,47,48
 438 444 438 444 436.5 466.5 c 128,-1,49
 435 489 435 489 434 515 c 0,50,51
 434 544 434 544 443 549 c 1,52,-1
 292 549 l 1,53,54
 304 543 304 543 317 460 c 128,-1,55
 330 377 330 377 344 288 c 1,43,44
EndSplineSet
EndChar

StartChar: P
Encoding: 80 80 22
Width: 870
GlyphClass: 2
Flags: W
LayerCount: 2
Fore
SplineSet
255 547 m 1,0,-1
 140 547 l 1,1,2
 137 492 137 492 136 459 c 0,3,4
 132 359 132 359 132 302 c 0,5,6
 132 280 132 280 132.5 261 c 128,-1,7
 133 242 133 242 136 238 c 1,8,-1
 709 238 l 1,9,10
 711 242 711 242 712 268 c 128,-1,11
 713 294 713 294 713 332 c 0,12,13
 713 390 713 390 712 448 c 128,-1,14
 711 506 711 506 709 552 c 1,15,-1
 593 552 l 1,16,17
 594 546 594 546 588.5 512 c 128,-1,18
 583 478 583 478 583 445 c 0,19,20
 583 416 583 416 585 395.5 c 128,-1,21
 587 375 587 375 595 338 c 1,22,-1
 251 338 l 1,23,24
 256 353 256 353 258 372.5 c 128,-1,25
 260 392 260 392 260 412 c 0,26,27
 260 437 260 437 257 478 c 128,-1,28
 254 519 254 519 254 531 c 256,29,30
 254 543 254 543 255 547 c 1,0,-1
481 372 m 1,31,32
 483 394 483 394 485 422.5 c 128,-1,33
 487 451 487 451 487 486 c 0,34,35
 487 513 487 513 485.5 539 c 128,-1,36
 484 565 484 565 475 580 c 1,37,-1
 826 580 l 1,38,39
 820 571 820 571 816 514 c 128,-1,40
 812 457 812 457 812 391 c 0,41,42
 812 322 812 322 815 272.5 c 128,-1,43
 818 223 818 223 826 206 c 1,44,45
 773 206 773 206 713.5 206 c 128,-1,46
 654 206 654 206 587 207 c 0,47,48
 551 207 551 207 524.5 207 c 128,-1,49
 498 207 498 207 490 206 c 0,50,51
 489 202 489 202 486 161 c 128,-1,52
 483 120 483 120 483 82 c 0,53,54
 483 41 483 41 488 31 c 1,55,56
 495 30 495 30 506.5 29.5 c 128,-1,57
 518 29 518 29 534 29 c 0,58,59
 584 29 584 29 629.5 33 c 128,-1,60
 675 37 675 37 699 45 c 1,61,62
 677 26 677 26 671 20 c 128,-1,63
 665 14 665 14 654 -1 c 1,64,-1
 183 0 l 1,65,66
 178 13 178 13 161 30 c 0,67,68
 156 35 156 35 144 45 c 1,69,70
 170 39 170 39 220.5 35 c 128,-1,71
 271 31 271 31 315 31 c 0,72,73
 329 31 329 31 343 31 c 0,74,75
 353 33 353 33 356 33 c 0,76,77
 359 39 359 39 361 65.5 c 128,-1,78
 363 92 363 92 363 126 c 0,79,80
 363 161 363 161 361.5 179.5 c 128,-1,81
 360 198 360 198 356 206 c 1,82,-1
 9 206 l 1,83,84
 21 212 21 212 27.5 272 c 128,-1,85
 34 332 34 332 34 408 c 0,86,87
 34 477 34 477 31 523.5 c 128,-1,88
 28 570 28 570 21 580 c 1,89,-1
 373 580 l 1,90,91
 368 570 368 570 366 548.5 c 128,-1,92
 364 527 364 527 364 499 c 0,93,94
 364 457 364 457 366 427 c 128,-1,95
 368 397 368 397 371 372 c 1,96,-1
 481 372 l 1,31,32
EndSplineSet
EndChar

StartChar: glyph23
Encoding: 84 84 23
Width: 1070
GlyphClass: 2
Flags: W
LayerCount: 2
Fore
SplineSet
586 767 m 1,0,-1
 441 767 l 1,1,2
 445 762 445 762 447 710 c 128,-1,3
 449 658 449 658 449 605 c 2,4,-1
 449 584 l 1,5,-1
 449 566 l 1,6,-1
 449 551 l 1,7,-1
 449 539 l 2,8,9
 449 521 449 521 448.5 507 c 128,-1,10
 448 493 448 493 448 483 c 1,11,-1
 577 483 l 1,12,-1
 577 579 l 2,13,14
 577 670 577 670 578.5 713 c 128,-1,15
 580 756 580 756 586 767 c 1,0,-1
227 450 m 1,16,-1
 113 450 l 1,17,18
 114 448 114 448 114 432 c 128,-1,19
 114 416 114 416 115 406 c 0,20,21
 115 380 115 380 114.5 354.5 c 128,-1,22
 114 329 114 329 114 304 c 0,23,24
 114 278 114 278 116 266 c 1,25,-1
 190 266 l 1,26,27
 202 315 202 315 214.5 367.5 c 128,-1,28
 227 420 227 420 227 450 c 1,16,-1
577 450 m 1,29,-1
 448 450 l 1,30,-1
 448 425 l 2,31,32
 448 276 448 276 446.5 161.5 c 128,-1,33
 445 47 445 47 439 30 c 1,34,-1
 583 30 l 1,35,36
 580 42 580 42 578.5 173 c 128,-1,37
 577 304 577 304 577 426 c 2,38,-1
 577 450 l 1,29,-1
925 450 m 1,39,-1
 814 450 l 1,40,41
 814 412 814 412 826.5 342.5 c 128,-1,42
 839 273 839 273 851 269 c 1,43,-1
 919 269 l 1,44,45
 923 275 923 275 924 287 c 128,-1,46
 925 299 925 299 925 320 c 0,47,48
 925 345 925 345 924 370 c 128,-1,49
 923 395 923 395 922 419 c 0,50,51
 922 442 922 442 925 450 c 1,39,-1
753 236 m 1,52,53
 757 239 757 239 757 251 c 0,54,55
 757 281 757 281 736 357 c 0,56,57
 712 437 712 437 708 450 c 1,58,-1
 672 450 l 1,59,60
 672 432 672 432 670.5 347.5 c 128,-1,61
 669 263 669 263 668 207 c 0,62,63
 668 114 668 114 672 64 c 128,-1,64
 676 14 676 14 687 0 c 1,65,-1
 347 0 l 1,66,67
 356 11 356 11 360.5 102.5 c 128,-1,68
 365 194 365 194 365 298 c 2,69,-1
 365 327 l 1,70,-1
 365 351 l 1,71,-1
 365 371 l 1,72,-1
 365 387 l 1,73,-1
 365 400 l 2,74,75
 364 446 364 446 364 450 c 1,76,-1
 324 450 l 1,77,78
 322 437 322 437 292 315 c 0,79,80
 279 262 279 262 279 248 c 0,81,82
 279 239 279 239 282 236 c 1,83,-1
 16 236 l 1,84,85
 22 251 22 251 22 337 c 0,86,87
 22 385 22 385 19 427.5 c 128,-1,88
 16 470 16 470 10 483 c 1,89,-1
 364 483 l 1,90,91
 366 527 366 527 368.5 591.5 c 128,-1,92
 371 656 371 656 371 698 c 0,93,94
 371 782 371 782 364 800 c 1,95,-1
 675 800 l 1,96,97
 671 788 671 788 670 696 c 128,-1,98
 669 604 669 604 669 590 c 2,99,-1
 669 483 l 1,100,-1
 1034 483 l 1,101,102
 1022 421 1022 421 1022 373 c 256,103,104
 1022 325 1022 325 1034 236 c 1,105,-1
 753 236 l 1,52,53
EndSplineSet
EndChar

StartChar: glyph24
Encoding: 85 85 24
Width: 794
GlyphClass: 2
Flags: W
LayerCount: 2
Fore
SplineSet
12 382 m 1,0,1
 14 383 14 383 17 384 c 0,2,3
 33 384 33 384 45 384 c 0,4,5
 125 384 125 384 234.5 380 c 128,-1,6
 344 376 344 376 399 371 c 1,7,8
 399 388 399 388 412 475 c 0,9,10
 418 515 418 515 418 535 c 0,11,12
 418 570 418 570 403 580 c 1,13,-1
 766 580 l 1,14,15
 758 576 758 576 752 460 c 128,-1,16
 746 344 746 344 746 217 c 0,17,18
 746 113 746 113 749.5 57 c 128,-1,19
 753 1 753 1 762 -1 c 1,20,-1
 375 0 l 1,21,22
 381 4 381 4 384.5 133.5 c 128,-1,23
 388 263 388 263 399 351 c 1,24,25
 391 354 391 354 347 356 c 128,-1,26
 303 358 303 358 287 358 c 1,27,28
 290 353 290 353 292 320 c 128,-1,29
 294 287 294 287 294 253 c 0,30,31
 294 207 294 207 291.5 176.5 c 128,-1,32
 289 146 289 146 284 146 c 2,33,-1
 270 146 l 1,34,-1
 243 146 l 1,35,-1
 211 146 l 1,36,-1
 180 146 l 1,37,-1
 151 146 l 1,38,-1
 126 146 l 1,39,-1
 104 146 l 1,40,-1
 86 146 l 1,41,-1
 71 146 l 1,42,-1
 59 146 l 2,43,44
 40 146 40 146 22 146 c 0,45,46
 15 147 15 147 16 150 c 0,47,48
 18 160 18 160 23 216 c 128,-1,49
 28 272 28 272 28 309 c 0,50,51
 28 343 28 343 24.5 361.5 c 128,-1,52
 21 380 21 380 12 382 c 1,0,1
113 363 m 0,53,54
 109 361 109 361 107 322.5 c 128,-1,55
 105 284 105 284 105 238 c 0,56,57
 105 214 105 214 105.5 193 c 128,-1,58
 106 172 106 172 108 170 c 128,-1,59
 110 168 110 168 123.5 166.5 c 128,-1,60
 137 165 137 165 163 165 c 0,61,62
 199 165 199 165 203.5 167.5 c 128,-1,63
 208 170 208 170 210 202 c 128,-1,64
 212 234 212 234 212 276 c 0,65,66
 212 310 212 310 211 334 c 128,-1,67
 210 358 210 358 208 361 c 0,68,69
 205 363 205 363 181.5 363.5 c 128,-1,70
 158 364 158 364 149 364 c 0,71,72
 115 364 115 364 113 363 c 0,53,54
652 559 m 1,73,-1
 533 561 l 1,74,75
 526 556 526 556 517 464.5 c 128,-1,76
 508 373 508 373 510 363 c 1,77,-1
 639 347 l 1,78,79
 642 359 642 359 645 449.5 c 128,-1,80
 648 540 648 540 652 559 c 1,73,-1
508 343 m 0,81,82
 502 342 502 342 499 263.5 c 128,-1,83
 496 185 496 185 496 101 c 0,84,85
 496 72 496 72 496.5 47 c 128,-1,86
 497 22 497 22 499 20 c 2,87,-1
 644 20 l 1,88,89
 642 31 642 31 640 178.5 c 128,-1,90
 638 326 638 326 637 329.5 c 128,-1,91
 636 333 636 333 575.5 338.5 c 128,-1,92
 515 344 515 344 508 343 c 0,81,82
EndSplineSet
EndChar

StartChar: glyph25
Encoding: 86 86 25
Width: 774
GlyphClass: 2
Flags: W
LayerCount: 2
Fore
SplineSet
342 334 m 2,0,-1
 497 334 l 2,1,2
 499 335 499 335 500 347 c 128,-1,3
 501 359 501 359 501 377 c 0,4,5
 501 427 501 427 496 489 c 128,-1,6
 491 551 491 551 485 557 c 1,7,-1
 351 557 l 1,8,9
 349 544 349 544 345 457.5 c 128,-1,10
 341 371 341 371 341 352 c 0,11,12
 341 337 341 337 342 334 c 2,0,-1
340 314 m 1,13,14
 339 310 339 310 339 285 c 128,-1,15
 339 260 339 260 339 241 c 0,16,17
 339 104 339 104 340.5 69 c 128,-1,18
 342 34 342 34 346 21 c 1,19,-1
 500 21 l 1,20,-1
 500 314 l 1,21,-1
 340 314 l 1,13,14
86 333 m 1,22,23
 92 333 92 333 102.5 333 c 128,-1,24
 113 333 113 333 123 333 c 2,25,-1
 137 333 l 1,26,-1
 150 333 l 1,27,-1
 161 333 l 2,28,29
 203 333 203 333 219 335 c 1,30,31
 221 344 221 344 226 404.5 c 128,-1,32
 231 465 231 465 233 488 c 128,-1,33
 235 511 235 511 239 548 c 0,34,35
 239 574 239 574 230 577 c 1,36,-1
 612 577 l 1,37,38
 606 555 606 555 606 521 c 0,39,40
 606 511 606 511 607 507 c 0,41,42
 612 472 612 472 616 378 c 128,-1,43
 620 284 620 284 620 209 c 2,44,-1
 620 169 l 2,45,46
 620 117 620 117 620.5 61.5 c 128,-1,47
 621 6 621 6 627 0 c 1,48,-1
 228 0 l 1,49,50
 229 3 229 3 229 17 c 0,51,52
 229 34 229 34 226 67 c 0,53,54
 219 144 219 144 219 151 c 2,55,-1
 219 314 l 1,56,-1
 86 314 l 1,57,58
 80 302 80 302 80 274 c 0,59,60
 80 256 80 256 83 238 c 128,-1,61
 86 220 86 220 91 215 c 1,62,-1
 16 215 l 1,63,64
 15 220 15 220 15 231 c 128,-1,65
 15 242 15 242 15 249 c 0,66,67
 15 269 15 269 15 288 c 128,-1,68
 15 307 15 307 16 324 c 0,69,70
 16 341 16 341 15.5 361.5 c 128,-1,71
 15 382 15 382 15 405 c 256,72,73
 15 428 15 428 16 432 c 1,74,-1
 91 432 l 1,75,76
 86 427 86 427 83 409.5 c 128,-1,77
 80 392 80 392 80 372 c 0,78,79
 80 345 80 345 86 333 c 1,22,23
EndSplineSet
EndChar

StartChar: glyph26
Encoding: 88 88 26
Width: 872
GlyphClass: 2
Flags: W
LayerCount: 2
Fore
SplineSet
466 580 m 1,0,-1
 358 580 l 1,1,2
 315 650 315 650 283 697 c 0,3,4
 248 749 248 749 230 767 c 1,5,6
 177 767 177 767 120 768 c 128,-1,7
 63 769 63 769 14 770 c 1,8,9
 18 781 18 781 18 787 c 0,10,11
 18 792 18 792 14 800 c 1,12,-1
 340 800 l 1,13,-1
 426 662 l 1,14,15
 453 698 453 698 466 718 c 0,16,17
 507 778 507 778 512 800 c 1,18,-1
 814 800 l 1,19,20
 811 786 811 786 811 781 c 0,21,22
 811 778 811 778 814 772 c 1,23,24
 786 772 786 772 759.5 772 c 128,-1,25
 733 772 733 772 708 773 c 0,26,27
 643 773 643 773 614 767 c 0,28,29
 601 767 601 767 537.5 685.5 c 128,-1,30
 474 604 474 604 466 580 c 1,0,-1
711 322 m 1,31,-1
 578 322 l 1,32,-1
 578 33 l 1,33,-1
 711 33 l 1,34,35
 703 85 703 85 703 192 c 0,36,37
 703 280 703 280 711 322 c 1,31,-1
125 547 m 1,38,39
 129 534 129 534 131 472.5 c 128,-1,40
 133 411 133 411 133 318 c 0,41,42
 133 203 133 203 131 124.5 c 128,-1,43
 129 46 129 46 125 33 c 1,44,-1
 241 33 l 1,45,46
 238 44 238 44 235 146.5 c 128,-1,47
 232 249 232 249 232 344 c 0,48,49
 232 396 232 396 233 464.5 c 128,-1,50
 234 533 234 533 241 547 c 1,51,-1
 125 547 l 1,38,39
8 580 m 1,52,-1
 578 580 l 1,53,54
 574 556 574 556 574 503 c 0,55,56
 574 473 574 473 575 435 c 128,-1,57
 576 397 576 397 578 355 c 1,58,-1
 811 355 l 1,59,60
 808 343 808 343 806 299.5 c 128,-1,61
 804 256 804 256 804 209 c 0,62,63
 804 148 804 148 806 85 c 128,-1,64
 808 22 808 22 811 0 c 1,65,-1
 474 0 l 1,66,67
 479 19 479 19 482 91.5 c 128,-1,68
 485 164 485 164 485 256 c 0,69,70
 485 363 485 363 482 446.5 c 128,-1,71
 479 530 479 530 474 547 c 1,72,-1
 346 547 l 1,73,74
 341 537 341 537 339 474.5 c 128,-1,75
 337 412 337 412 337 327 c 0,76,77
 337 192 337 192 339.5 106 c 128,-1,78
 342 20 342 20 346 0 c 1,79,-1
 8 0 l 1,80,81
 11 14 11 14 13.5 141 c 128,-1,82
 16 268 16 268 16 331 c 0,83,84
 16 426 16 426 14 496 c 128,-1,85
 12 566 12 566 8 580 c 1,52,-1
EndSplineSet
EndChar

StartChar: glyph27
Encoding: 89 89 27
Width: 901
GlyphClass: 2
Flags: W
LayerCount: 2
Fore
SplineSet
142 559 m 0,0,1
 140 556 140 556 138 510 c 128,-1,2
 136 464 136 464 136 424 c 0,3,4
 136 360 136 360 137.5 327 c 128,-1,5
 139 294 139 294 142 289 c 1,6,7
 156 289 156 289 200 287.5 c 128,-1,8
 244 286 244 286 245 286 c 0,9,10
 270 286 270 286 272 288 c 0,11,12
 275 288 275 288 276 359 c 128,-1,13
 277 430 277 430 277 459 c 2,14,-1
 277 480 l 1,15,-1
 277 498 l 1,16,-1
 277 512 l 1,17,-1
 277 524 l 2,18,19
 277 567 277 567 272 567 c 0,20,21
 232 567 232 567 187 565.5 c 128,-1,22
 142 564 142 564 142 559 c 0,0,1
614 566 m 0,23,24
 613 565 613 565 612 527 c 128,-1,25
 611 489 611 489 611 453 c 0,26,27
 611 375 611 375 612.5 332.5 c 128,-1,28
 614 290 614 290 616.5 288.5 c 128,-1,29
 619 287 619 287 638 286 c 128,-1,30
 657 285 657 285 675 285 c 2,31,-1
 687 285 l 2,32,33
 706 285 706 285 719.5 285 c 128,-1,34
 733 285 733 285 743 286 c 1,35,36
 747 292 747 292 749 326.5 c 128,-1,37
 751 361 751 361 751 406 c 0,38,39
 751 472 751 472 748.5 513.5 c 128,-1,40
 746 555 746 555 742 559 c 0,41,42
 742 562 742 562 703 565 c 128,-1,43
 664 568 664 568 634 568 c 0,44,45
 616 568 616 568 614 566 c 0,23,24
445 269 m 1,46,47
 411 189 411 189 395 149 c 0,48,49
 346 26 346 26 351 16 c 1,50,-1
 539 16 l 2,51,52
 543 19 543 19 516 94 c 0,53,54
 460 249 460 249 445 269 c 1,46,47
381 288 m 1,55,-1
 508 288 l 1,56,-1
 508 454 l 1,57,-1
 508 498 l 1,58,-1
 508 513 l 1,59,-1
 508 525 l 2,60,61
 508 570 508 570 505 570 c 2,62,-1
 381 570 l 1,63,64
 380 555 380 555 379.5 536 c 128,-1,65
 379 517 379 517 379 507 c 0,66,67
 379 462 379 462 379.5 407.5 c 128,-1,68
 380 353 380 353 381 288 c 1,55,-1
505 269 m 1,69,-1
 480 269 l 1,70,71
 498 250 498 250 518 227 c 0,72,73
 548 193 548 193 564 169 c 0,74,75
 600 119 600 119 624.5 74 c 128,-1,76
 649 29 649 29 659 -1 c 1,77,-1
 220 0 l 1,78,79
 230 21 230 21 257 69 c 0,80,81
 293 132 293 132 318 168 c 0,82,83
 334 190 334 190 364 224 c 0,84,85
 389 252 389 252 408 271 c 1,86,-1
 384 271 l 1,87,-1
 23 271 l 1,88,89
 35 283 35 283 35 293 c 2,90,-1
 34 544 l 2,91,92
 34 549 34 549 28 564 c 0,93,94
 26 569 26 569 21 579 c 1,95,96
 37 577 37 577 62 577 c 0,97,98
 104 577 104 577 180 580 c 0,99,100
 382 588 382 588 442 588 c 0,101,102
 519 588 519 588 655 582 c 128,-1,103
 791 576 791 576 821 576 c 256,104,105
 851 576 851 576 860 579 c 1,106,107
 859 569 859 569 858 560 c 0,108,109
 850 534 850 534 850 520 c 2,110,-1
 852 281 l 1,111,112
 858 274 858 274 862 269 c 1,113,-1
 505 269 l 1,69,-1
EndSplineSet
EndChar

StartChar: glyph28
Encoding: 90 90 28
Width: 660
GlyphClass: 2
Flags: W
LayerCount: 2
Fore
SplineSet
354 396 m 1,0,1
 354 387 354 387 355 376.5 c 128,-1,2
 356 366 356 366 356 355 c 1,3,-1
 378 355 l 1,4,-1
 401 355 l 1,5,-1
 423 355 l 1,6,-1
 443 355 l 1,7,-1
 462 355 l 1,8,-1
 479 355 l 1,9,-1
 494 355 l 1,10,-1
 507 355 l 2,11,12
 528 355 528 355 548 355 c 128,-1,13
 568 355 568 355 588 356 c 1,14,15
 584 345 584 345 584 298 c 0,16,17
 584 215 584 215 593.5 114.5 c 128,-1,18
 603 14 603 14 616 -2 c 1,19,-1
 20 0 l 1,20,21
 29 13 29 13 35.5 90.5 c 128,-1,22
 42 168 42 168 42 252 c 0,23,24
 42 278 42 278 42 304 c 0,25,26
 40 344 40 344 34 355 c 1,27,-1
 258 356 l 1,28,29
 255 447 255 447 252 492 c 0,30,31
 240 629 240 629 212 629 c 1,32,-1
 577 629 l 1,33,34
 571 620 571 620 564 557.5 c 128,-1,35
 557 495 557 495 542 476 c 0,36,37
 500 425 500 425 452 408 c 0,38,39
 418 396 418 396 354 396 c 1,0,1
489 27 m 2,40,41
 494 29 494 29 497 46.5 c 128,-1,42
 500 64 500 64 500 88 c 0,43,44
 500 130 500 130 494.5 192 c 128,-1,45
 489 254 489 254 483 319 c 1,46,-1
 357 319 l 1,47,48
 357 294 357 294 356.5 268.5 c 128,-1,49
 356 243 356 243 356 217 c 0,50,51
 356 122 356 122 357.5 78 c 128,-1,52
 359 34 359 34 365 27 c 1,53,-1
 489 27 l 2,40,41
349 415 m 1,54,55
 403 415 403 415 433 449 c 0,56,57
 472 494 472 494 472 597 c 1,58,-1
 339 597 l 1,59,60
 339 565 339 565 342.5 499.5 c 128,-1,61
 346 434 346 434 349 415 c 1,54,55
135 319 m 1,62,63
 130 306 130 306 126.5 256.5 c 128,-1,64
 123 207 123 207 123 142 c 0,65,66
 123 71 123 71 126 50.5 c 128,-1,67
 129 30 129 30 135 27 c 2,68,-1
 249 27 l 1,69,70
 254 32 254 32 256 90.5 c 128,-1,71
 258 149 258 149 258 217 c 2,72,-1
 258 235 l 1,73,-1
 258 250 l 1,74,-1
 258 262 l 2,75,76
 258 280 258 280 257.5 294 c 128,-1,77
 257 308 257 308 257 319 c 1,78,-1
 135 319 l 1,62,63
EndSplineSet
EndChar

StartChar: glyph29
Encoding: 91 91 29
Width: 305
GlyphClass: 2
Flags: W
LayerCount: 2
Fore
SplineSet
269 580 m 1,0,1
 269 572 269 572 269 564 c 0,2,3
 269 558 269 558 282 539 c 1,4,5
 269 544 269 544 255 547 c 128,-1,6
 241 550 241 550 228 550 c 0,7,8
 216 550 216 550 201 547 c 1,9,-1
 201 149 l 2,10,11
 201 122 201 122 211 106 c 0,12,13
 226 82 226 82 227 80 c 1,14,15
 217 85 217 85 203 85 c 0,16,17
 148 85 148 85 104 0 c 1,18,-1
 104 547 l 1,19,20
 89 550 89 550 74 550 c 0,21,22
 53 550 53 550 34 545 c 0,23,24
 28 544 28 544 18 539 c 1,25,26
 26 553 26 553 28.5 562 c 128,-1,27
 31 571 31 571 33 580 c 1,28,-1
 269 580 l 1,0,1
EndSplineSet
EndChar

StartChar: glyph30
Encoding: 93 93 30
Width: 710
GlyphClass: 2
Flags: W
LayerCount: 2
Fore
SplineSet
14 0 m 1,0,1
 29 14 29 14 41 101 c 128,-1,2
 53 188 53 188 92 235 c 0,3,4
 152 307 152 307 295 323 c 1,5,6
 297 346 297 346 298 376.5 c 128,-1,7
 299 407 299 407 299 448 c 0,8,9
 299 495 299 495 296.5 526.5 c 128,-1,10
 294 558 294 558 288 580 c 1,11,-1
 657 580 l 1,12,13
 653 573 653 573 650 502.5 c 128,-1,14
 647 432 647 432 647 342 c 0,15,16
 647 213 647 213 652.5 112.5 c 128,-1,17
 658 12 658 12 669 0 c 1,18,-1
 14 0 l 1,0,1
296 290 m 1,19,20
 194 290 194 290 163 172 c 1,21,22
 153 103 153 103 144 34 c 1,23,-1
 288 33 l 1,24,25
 291 42 291 42 294 168 c 0,26,27
 294 209 294 209 296 290 c 1,19,20
409 290 m 1,28,29
 408 283 408 283 407 241.5 c 128,-1,30
 406 200 406 200 406 167 c 0,31,32
 406 105 406 105 407.5 73 c 128,-1,33
 409 41 409 41 413 33 c 1,34,-1
 538 33 l 1,35,36
 541 37 541 37 542 62 c 128,-1,37
 543 87 543 87 543 95 c 0,38,39
 543 135 543 135 542 176.5 c 128,-1,40
 541 218 541 218 540 257 c 0,41,42
 540 287 540 287 542 290 c 1,43,-1
 409 290 l 1,28,29
403 547 m 1,44,45
 408 542 408 542 409 517.5 c 128,-1,46
 410 493 410 493 410 478 c 0,47,48
 410 442 410 442 409 409 c 128,-1,49
 408 376 408 376 407 346 c 0,50,51
 407 327 407 327 409 323 c 1,52,-1
 540 323 l 1,53,54
 541 413 541 413 541.5 474 c 128,-1,55
 542 535 542 535 546 547 c 1,56,-1
 403 547 l 1,44,45
EndSplineSet
EndChar

StartChar: glyph31
Encoding: 97 97 31
Width: 600
GlyphClass: 2
Flags: W
LayerCount: 2
Fore
SplineSet
358 0 m 1,0,-1
 242 0 l 1,1,2
 249 49 249 49 251.5 122.5 c 128,-1,3
 254 196 254 196 254 212 c 2,4,-1
 254 230 l 1,5,-1
 254 245 l 1,6,-1
 254 257 l 2,7,8
 254 275 254 275 253.5 291.5 c 128,-1,9
 253 308 253 308 253 322 c 1,10,-1
 133 322 l 1,11,12
 130 295 130 295 128 243.5 c 128,-1,13
 126 192 126 192 126 151 c 0,14,15
 126 46 126 46 133 0 c 1,16,-1
 30 0 l 1,17,18
 35 47 35 47 37 95.5 c 128,-1,19
 39 144 39 144 39 183 c 0,20,21
 39 245 39 245 36.5 283 c 128,-1,22
 34 321 34 321 30 355 c 1,23,-1
 252 355 l 1,24,25
 252 365 252 365 252 380 c 128,-1,26
 252 395 252 395 253 418 c 0,27,28
 253 477 253 477 250.5 527.5 c 128,-1,29
 248 578 248 578 240 630 c 1,30,-1
 360 630 l 1,31,32
 351 574 351 574 348.5 513.5 c 128,-1,33
 346 453 346 453 346 391 c 0,34,35
 346 366 346 366 346 362 c 128,-1,36
 346 358 346 358 346 355 c 2,37,-1
 568 354 l 1,38,39
 565 332 565 332 562 290 c 128,-1,40
 559 248 559 248 559 190 c 0,41,42
 559 108 559 108 568 0 c 1,43,-1
 467 0 l 1,44,45
 467 11 467 11 469 88 c 128,-1,46
 471 165 471 165 471 213 c 2,47,-1
 471 229 l 1,48,-1
 471 243 l 1,49,-1
 471 254 l 2,50,51
 471 268 471 268 470.5 284.5 c 128,-1,52
 470 301 470 301 467 322 c 1,53,-1
 346 322 l 1,54,55
 346 296 346 296 345.5 271.5 c 128,-1,56
 345 247 345 247 345 224 c 0,57,58
 345 156 345 156 347.5 104 c 128,-1,59
 350 52 350 52 358 0 c 1,0,-1
EndSplineSet
EndChar

StartChar: glyph32
Encoding: 98 98 32
Width: 668
GlyphClass: 2
Flags: W
LayerCount: 2
Fore
SplineSet
588 341 m 1,0,1
 580 346 580 346 557 346 c 0,2,3
 508 346 508 346 398 326 c 0,4,5
 302 309 302 309 214 289 c 0,6,7
 170 278 170 278 126 268 c 1,8,9
 124 237 124 237 122 198 c 128,-1,10
 120 159 120 159 120 114 c 0,11,12
 120 83 120 83 121 62.5 c 128,-1,13
 122 42 122 42 126 30 c 1,14,15
 161 29 161 29 207.5 28.5 c 128,-1,16
 254 28 254 28 317 28 c 0,17,18
 426 28 426 28 489 30.5 c 128,-1,19
 552 33 552 33 566 41 c 1,20,21
 562 34 562 34 559 27 c 0,22,23
 549 9 549 9 553 0 c 1,24,-1
 7 0 l 1,25,26
 14 18 14 18 18 101 c 128,-1,27
 22 184 22 184 22 284 c 0,28,29
 22 394 22 394 18.5 465 c 128,-1,30
 15 536 15 536 7 580 c 1,31,-1
 115 580 l 1,32,33
 112 568 112 568 112 548 c 0,34,35
 112 520 112 520 116 477 c 0,36,37
 127 358 127 358 127 302 c 1,38,39
 178 311 178 311 197 314 c 128,-1,40
 216 317 216 317 242 324 c 1,41,42
 245 333 245 333 247 364.5 c 128,-1,43
 249 396 249 396 249 438 c 0,44,45
 249 484 249 484 247 520 c 128,-1,46
 245 556 245 556 240 580 c 1,47,-1
 363 580 l 1,48,49
 359 572 359 572 354 517.5 c 128,-1,50
 349 463 349 463 349 416 c 0,51,52
 349 392 349 392 350.5 370.5 c 128,-1,53
 352 349 352 349 359 345 c 1,54,-1
 479 367 l 1,55,-1
 480 580 l 1,56,-1
 588 580 l 1,57,58
 579 561 579 561 574 526.5 c 128,-1,59
 569 492 569 492 569 457 c 0,60,61
 569 417 569 417 573 388.5 c 128,-1,62
 577 360 577 360 588 341 c 1,0,1
EndSplineSet
EndChar

StartChar: glyph33
Encoding: 99 99 33
Width: 676
GlyphClass: 2
Flags: W
LayerCount: 2
Fore
SplineSet
112 547 m 1,0,1
 112 467 112 467 115 446 c 0,2,3
 122 396 122 396 150 382 c 0,4,5
 170 372 170 372 202 372 c 0,6,7
 220 372 220 372 236.5 375 c 128,-1,8
 253 378 253 378 271 386 c 1,9,10
 271 400 271 400 261 462 c 128,-1,11
 251 524 251 524 251 547 c 1,12,-1
 112 547 l 1,0,1
614 580 m 1,13,14
 608 568 608 568 599.5 464 c 128,-1,15
 591 360 591 360 570 284 c 0,16,17
 544 189 544 189 487 58 c 0,18,19
 464 6 464 6 466 0 c 1,20,-1
 348 0 l 1,21,22
 350 1 350 1 350 10 c 0,23,24
 350 39 350 39 317 182 c 128,-1,25
 284 325 284 325 284 341 c 0,26,27
 284 349 284 349 258 349 c 0,28,29
 250 349 250 349 220 347 c 128,-1,30
 190 345 190 345 171 345 c 0,31,32
 128 345 128 345 96 353 c 128,-1,33
 64 361 64 361 44 384 c 0,34,35
 29 401 29 401 23.5 427.5 c 128,-1,36
 18 454 18 454 18 486 c 0,37,38
 18 498 18 498 19 520 c 128,-1,39
 20 542 20 542 20 549 c 0,40,41
 20 575 20 575 12 580 c 1,42,-1
 359 580 l 1,43,44
 358 578 358 578 358 564 c 0,45,46
 358 484 358 484 386.5 285 c 128,-1,47
 415 86 415 86 442 31 c 1,48,49
 473 97 473 97 489 198 c 128,-1,50
 505 299 505 299 505 397 c 0,51,52
 505 517 505 517 486 580 c 1,53,-1
 614 580 l 1,13,14
EndSplineSet
EndChar

StartChar: glyph34
Encoding: 100 100 34
Width: 845
GlyphClass: 2
Flags: W
LayerCount: 2
Fore
SplineSet
8 580 m 1,0,-1
 578 580 l 1,1,2
 574 556 574 556 574 503 c 0,3,4
 574 473 574 473 575 435 c 128,-1,5
 576 397 576 397 578 355 c 1,6,-1
 811 355 l 1,7,8
 808 343 808 343 806 299.5 c 128,-1,9
 804 256 804 256 804 209 c 0,10,11
 804 148 804 148 806 85 c 128,-1,12
 808 22 808 22 811 0 c 1,13,-1
 474 0 l 1,14,15
 479 19 479 19 482 91.5 c 128,-1,16
 485 164 485 164 485 256 c 0,17,18
 485 363 485 363 482 446.5 c 128,-1,19
 479 530 479 530 474 547 c 1,20,-1
 346 547 l 1,21,22
 341 537 341 537 339 474.5 c 128,-1,23
 337 412 337 412 337 327 c 0,24,25
 337 192 337 192 339.5 106 c 128,-1,26
 342 20 342 20 346 0 c 1,27,-1
 8 0 l 1,28,29
 11 14 11 14 13.5 141 c 128,-1,30
 16 268 16 268 16 331 c 0,31,32
 16 426 16 426 14 496 c 128,-1,33
 12 566 12 566 8 580 c 1,0,-1
125 547 m 1,34,35
 129 534 129 534 131 472.5 c 128,-1,36
 133 411 133 411 133 318 c 0,37,38
 133 203 133 203 131 124.5 c 128,-1,39
 129 46 129 46 125 33 c 1,40,-1
 241 33 l 1,41,42
 238 44 238 44 235 146.5 c 128,-1,43
 232 249 232 249 232 344 c 0,44,45
 232 396 232 396 233 464.5 c 128,-1,46
 234 533 234 533 241 547 c 1,47,-1
 125 547 l 1,34,35
711 322 m 1,48,-1
 578 322 l 1,49,-1
 578 33 l 1,50,-1
 711 33 l 1,51,52
 703 85 703 85 703 192 c 0,53,54
 703 280 703 280 711 322 c 1,48,-1
EndSplineSet
EndChar

StartChar: glyph35
Encoding: 101 101 35
Width: 435
GlyphClass: 2
Flags: W
LayerCount: 2
Fore
SplineSet
375 580 m 1,0,1
 372 560 372 560 372 533 c 0,2,3
 372 501 372 501 378 421 c 128,-1,4
 384 341 384 341 384 303 c 0,5,6
 384 268 384 268 381 189 c 128,-1,7
 378 110 378 110 378 76 c 0,8,9
 378 23 378 23 384 0 c 1,10,-1
 29 0 l 1,11,12
 30 3 30 3 30 16 c 0,13,14
 30 49 30 49 25.5 83.5 c 128,-1,15
 21 118 21 118 13 131 c 1,16,-1
 129 131 l 1,17,18
 123 110 123 110 123 80 c 0,19,20
 123 48 123 48 129 33 c 1,21,-1
 269 33 l 1,22,23
 277 46 277 46 280 79.5 c 128,-1,24
 283 113 283 113 283 156 c 0,25,26
 283 178 283 178 282 223.5 c 128,-1,27
 281 269 281 269 281 289 c 1,28,29
 273 289 273 289 254 289 c 128,-1,30
 235 289 235 289 203 290 c 0,31,32
 178 290 178 290 154.5 290 c 128,-1,33
 131 290 131 290 111 287 c 1,34,35
 115 299 115 299 115 304 c 0,36,37
 113 313 113 313 111 324 c 1,38,39
 147 320 147 320 185 320 c 0,40,41
 199 320 199 320 230.5 321 c 128,-1,42
 262 322 262 322 281 322 c 1,43,44
 281 383 281 383 273 448 c 128,-1,45
 265 513 265 513 254 547 c 1,46,-1
 126 547 l 1,47,48
 126 509 126 509 127 495 c 128,-1,49
 128 481 128 481 135 463 c 1,50,-1
 17 463 l 1,51,52
 19 470 19 470 22.5 495 c 128,-1,53
 26 520 26 520 26 535 c 0,54,55
 26 554 26 554 24.5 562 c 128,-1,56
 23 570 23 570 17 580 c 1,57,-1
 375 580 l 1,0,1
EndSplineSet
EndChar

StartChar: glyph36
Encoding: 102 102 36
Width: 616
GlyphClass: 2
Flags: W
LayerCount: 2
Fore
SplineSet
126 378 m 1,0,1
 116 355 116 355 110 305.5 c 128,-1,2
 104 256 104 256 104 201 c 0,3,4
 104 152 104 152 110 117 c 0,5,6
 120 61 120 61 183 51 c 0,7,8
 222 47 222 47 234 46 c 1,9,10
 234 186 234 186 235.5 250.5 c 128,-1,11
 237 315 237 315 239 362 c 0,12,13
 238 373 238 373 238 378 c 1,14,-1
 126 378 l 1,0,1
354 -200 m 1,15,16
 341 -197 341 -197 321 -193 c 128,-1,17
 301 -189 301 -189 280 -189 c 0,18,19
 251 -189 251 -189 222 -200 c 1,20,21
 229 -190 229 -190 232.5 -145.5 c 128,-1,22
 236 -101 236 -101 236 -49 c 2,23,-1
 236 -36 l 1,24,-1
 236 -25 l 2,25,26
 236 -9 236 -9 236 7 c 0,27,28
 234 21 234 21 234 23 c 1,29,30
 140 23 140 23 82 66 c 128,-1,31
 24 109 24 109 10 189 c 0,32,33
 8 196 8 196 8 204 c 128,-1,34
 8 212 8 212 8 216 c 0,35,36
 8 243 8 243 20 294 c 128,-1,37
 32 345 32 345 32 371 c 0,38,39
 32 382 32 382 32 393 c 0,40,41
 29 404 29 404 28 408 c 1,42,-1
 238 408 l 1,43,44
 238 420 238 420 238 433 c 128,-1,45
 238 446 238 446 239 461 c 0,46,47
 239 493 239 493 235.5 513.5 c 128,-1,48
 232 534 232 534 220 548 c 0,49,50
 213 555 213 555 193 555 c 0,51,52
 176 555 176 555 151 549.5 c 128,-1,53
 126 544 126 544 110 538 c 1,54,55
 110 541 110 541 117.5 553.5 c 128,-1,56
 125 566 125 566 123 580 c 1,57,-1
 453 580 l 1,58,59
 451 567 451 567 458.5 554.5 c 128,-1,60
 466 542 466 542 466 538 c 1,61,62
 451 544 451 544 426 549.5 c 128,-1,63
 401 555 401 555 382 555 c 256,64,65
 363 555 363 555 356 548 c 0,66,67
 346 536 346 536 341.5 512.5 c 128,-1,68
 337 489 337 489 337 461 c 0,69,70
 337 446 337 446 337 433 c 128,-1,71
 337 420 337 420 338 408 c 1,72,-1
 548 408 l 1,73,74
 544 391 544 391 544 370 c 256,75,76
 544 349 544 349 560 275 c 0,77,78
 568 238 568 238 568 216 c 0,79,80
 568 198 568 198 566 189 c 0,81,82
 553 111 553 111 492.5 67 c 128,-1,83
 432 23 432 23 338 23 c 1,84,85
 334 11 334 11 334 -47 c 0,86,87
 334 -102 334 -102 338.5 -145 c 128,-1,88
 343 -188 343 -188 354 -200 c 1,15,16
466 117 m 0,89,90
 475 153 475 153 475 205 c 0,91,92
 475 259 475 259 468 306 c 128,-1,93
 461 353 461 353 450 378 c 1,94,-1
 338 378 l 1,95,-1
 338 46 l 1,96,97
 389 52 389 52 408 59 c 0,98,99
 455 76 455 76 466 117 c 0,89,90
EndSplineSet
EndChar

StartChar: glyph37
Encoding: 103 103 37
Width: 815
GlyphClass: 2
Flags: W
LayerCount: 2
Fore
SplineSet
0 580 m 1,0,-1
 381 580 l 1,1,2
 371 568 371 568 352 471 c 0,3,4
 314 276 314 276 313 272 c 0,5,6
 286 152 286 152 257 90 c 1,7,8
 369 230 369 230 491 302 c 0,9,10
 578 353 578 353 674 368 c 0,11,12
 725 372 725 372 776 376 c 1,13,14
 765 366 765 366 758 310.5 c 128,-1,15
 751 255 751 255 751 190 c 0,16,17
 751 112 751 112 758.5 59 c 128,-1,18
 766 6 766 6 781 2 c 1,19,20
 758 10 758 10 729 10 c 0,21,22
 711 10 711 10 685 7 c 0,23,24
 623 0 623 0 602 0 c 0,25,26
 482 0 482 0 449 44 c 0,27,28
 423 79 423 79 423 202 c 1,29,30
 385 190 385 190 284 81 c 0,31,32
 179 -32 179 -32 179 -68 c 0,33,34
 179 -75 179 -75 185 -78 c 1,35,36
 171 -74 171 -74 162.5 -73 c 128,-1,37
 154 -72 154 -72 143 -72 c 0,38,39
 127 -72 127 -72 91 -78 c 1,40,41
 124 -4 124 -4 157 69 c 0,42,43
 207 194 207 194 207 277 c 1,44,45
 87 277 87 277 39 328 c 0,46,47
 4 365 4 365 4 438 c 0,48,49
 4 464 4 464 6.5 490 c 128,-1,50
 9 516 9 516 13 548 c 0,51,52
 13 575 13 575 0 580 c 1,0,-1
108 547 m 1,53,-1
 108 479 l 2,54,55
 108 382 108 382 123 348 c 0,56,57
 145 297 145 297 214 297 c 1,58,59
 233 407 233 407 241.5 469 c 128,-1,60
 250 531 250 531 248 547 c 1,61,-1
 108 547 l 1,53,-1
545 49 m 0,62,63
 564 36 564 36 583 36 c 0,64,65
 592 36 592 36 619 37.5 c 128,-1,66
 646 39 646 39 658 39 c 1,67,68
 652 45 652 45 649 89 c 128,-1,69
 646 133 646 133 646 190 c 0,70,71
 646 245 646 245 648 281.5 c 128,-1,72
 650 318 650 318 656 326 c 1,73,74
 610 326 610 326 569 303 c 0,75,76
 560 298 560 298 525 274 c 1,77,78
 525 244 525 244 523 197 c 128,-1,79
 521 150 521 150 521 134 c 0,80,81
 521 96 521 96 525.5 77.5 c 128,-1,82
 530 59 530 59 545 49 c 0,62,63
EndSplineSet
EndChar

StartChar: glyph38
Encoding: 104 104 38
Width: 570
GlyphClass: 2
Flags: W
LayerCount: 2
Fore
SplineSet
17 0 m 1,0,1
 34 15 34 15 55 180.5 c 128,-1,2
 76 346 76 346 76 476 c 0,3,4
 76 544 76 544 69 580 c 1,5,6
 98 575 98 575 106.5 574 c 128,-1,7
 115 573 115 573 125 573 c 0,8,9
 142 573 142 573 181 580 c 1,10,11
 179 580 179 580 169 472 c 0,12,13
 152 298 152 298 148 256 c 0,14,15
 135 133 135 133 126 96 c 1,16,17
 179 166 179 166 215 203 c 0,18,19
 243 232 243 232 303 281 c 0,20,21
 354 323 354 323 414 340 c 1,22,23
 471 347 471 347 528 355 c 1,24,25
 523 346 523 346 520 283 c 128,-1,26
 517 220 517 220 517 144 c 0,27,28
 517 80 517 80 519.5 44 c 128,-1,29
 522 8 522 8 528 0 c 1,30,31
 517 4 517 4 493 4 c 0,32,33
 466 4 466 4 450 3 c 0,34,35
 371 -2 371 -2 367 -2 c 0,36,37
 356 -2 356 -2 346 -2 c 0,38,39
 337 0 337 0 334 0 c 0,40,41
 294 4 294 4 264 43 c 0,42,43
 228 90 228 90 228 168 c 1,44,45
 180 120 180 120 144 71 c 0,46,47
 115 32 115 32 101 0 c 1,48,49
 84 3 84 3 78 4 c 128,-1,50
 72 5 72 5 62 5 c 0,51,52
 56 5 56 5 40.5 3 c 128,-1,53
 25 1 25 1 17 0 c 1,0,1
326 250 m 0,54,55
 321 243 321 243 317 224 c 128,-1,56
 313 205 313 205 313 180 c 0,57,58
 313 118 313 118 336 80 c 0,59,60
 367 28 367 28 432 28 c 1,61,62
 435 34 435 34 437 63.5 c 128,-1,63
 439 93 439 93 439 126 c 0,64,65
 439 191 439 191 437 235.5 c 128,-1,66
 435 280 435 280 432 304 c 1,67,68
 405 304 405 304 375.5 289 c 128,-1,69
 346 274 346 274 326 250 c 0,54,55
EndSplineSet
EndChar

StartChar: glyph39
Encoding: 105 105 39
Width: 415
GlyphClass: 2
Flags: W
LayerCount: 2
Fore
SplineSet
139 547 m 1,0,1
 139 439 139 439 153 386.5 c 128,-1,2
 167 334 167 334 199 325 c 1,3,4
 221 334 221 334 241.5 382.5 c 128,-1,5
 262 431 262 431 262 496 c 0,6,7
 262 520 262 520 259 547 c 1,8,-1
 139 547 l 1,0,1
199 324 m 1,9,10
 149 318 149 318 127 250 c 0,11,12
 110 198 110 198 110 119 c 0,13,14
 110 86 110 86 112 63.5 c 128,-1,15
 114 41 114 41 117 33 c 1,16,-1
 272 33 l 1,17,18
 274 47 274 47 276 79.5 c 128,-1,19
 278 112 278 112 278 134 c 0,20,21
 278 211 278 211 264 255 c 0,22,23
 244 317 244 317 199 324 c 1,9,10
221 326 m 1,24,25
 308 317 308 317 342 246 c 0,26,27
 366 196 366 196 366 108 c 0,28,29
 366 93 366 93 365 68 c 128,-1,30
 364 43 364 43 364 34 c 0,31,32
 364 6 364 6 371 0 c 1,33,-1
 15 0 l 1,34,35
 18 3 18 3 19 15 c 128,-1,36
 20 27 20 27 20 45 c 2,37,-1
 20 88 l 2,38,39
 20 191 20 191 42 243 c 0,40,41
 77 326 77 326 172 326 c 1,42,43
 90 355 90 355 61 423 c 1,44,45
 49 501 49 501 37 580 c 1,46,-1
 361 580 l 1,47,48
 360 482 360 482 329 411 c 128,-1,49
 298 340 298 340 221 326 c 1,24,25
EndSplineSet
EndChar

StartChar: glyph40
Encoding: 106 106 40
Width: 875
GlyphClass: 2
Flags: W
LayerCount: 2
Fore
SplineSet
564 546 m 1,0,1
 564 543 564 543 579 418 c 0,2,3
 586 360 586 360 586 316 c 1,4,5
 660 327 660 327 685 391 c 0,6,7
 703 437 703 437 703 546 c 1,8,-1
 564 546 l 1,0,1
477 284 m 1,9,-1
 333 284 l 1,10,11
 333 220 333 220 335.5 148 c 128,-1,12
 338 76 338 76 341 0 c 1,13,14
 323 -1 323 -1 301.5 -1.5 c 128,-1,15
 280 -2 280 -2 260 -2 c 0,16,17
 250 -2 250 -2 243.5 -2 c 128,-1,18
 237 -2 237 -2 232 0 c 1,19,20
 235 14 235 14 235 82 c 0,21,22
 235 151 235 151 232.5 297 c 128,-1,23
 230 443 230 443 230 457 c 0,24,25
 230 536 230 536 234 547 c 1,26,-1
 106 547 l 1,27,28
 111 542 111 542 113 510.5 c 128,-1,29
 115 479 115 479 115 428 c 0,30,31
 115 366 115 366 111 229 c 128,-1,32
 107 92 107 92 107 52 c 0,33,34
 107 9 107 9 110 0 c 1,35,-1
 0 0 l 1,36,37
 6 9 6 9 9.5 81 c 128,-1,38
 13 153 13 153 13 260 c 0,39,40
 13 376 13 376 10 469 c 128,-1,41
 7 562 7 562 2 580 c 1,42,-1
 339 580 l 1,43,-1
 333 316 l 1,44,-1
 476 316 l 1,45,46
 476 399 476 399 465 480.5 c 128,-1,47
 454 562 454 562 442 580 c 1,48,-1
 839 580 l 1,49,50
 806 477 806 477 773 374 c 1,51,52
 723 284 723 284 586 284 c 1,53,54
 586 271 586 271 582.5 186.5 c 128,-1,55
 579 102 579 102 579 64 c 0,56,57
 579 14 579 14 584 0 c 1,58,-1
 454 0 l 1,59,60
 459 25 459 25 464 51 c 0,61,62
 477 110 477 110 477 133 c 2,63,-1
 477 284 l 1,9,-1
EndSplineSet
EndChar

StartChar: glyph41
Encoding: 107 107 41
Width: 500
GlyphClass: 2
Flags: W
LayerCount: 2
Fore
SplineSet
461 221 m 1,0,1
 448 192 448 192 442.5 159 c 128,-1,2
 437 126 437 126 437 92 c 0,3,4
 437 54 437 54 441 28.5 c 128,-1,5
 445 3 445 3 448 0 c 1,6,-1
 319 0 l 1,7,8
 326 21 326 21 328.5 52.5 c 128,-1,9
 331 84 331 84 331 125 c 2,10,-1
 331 139 l 2,11,12
 331 150 331 150 331 162 c 0,13,14
 329 170 329 170 328 178 c 1,15,16
 295 178 295 178 203 178 c 128,-1,17
 111 178 111 178 0 178 c 1,18,19
 2 190 2 190 2 195 c 0,20,21
 2 201 2 201 1.5 204.5 c 128,-1,22
 1 208 1 208 0 211 c 1,23,-1
 43 211 l 2,24,25
 115 211 115 211 171.5 261.5 c 128,-1,26
 228 312 228 312 228 372 c 0,27,28
 228 472 228 472 226 499.5 c 128,-1,29
 224 527 224 527 216 580 c 1,30,-1
 353 580 l 1,31,32
 347 555 347 555 342 449 c 128,-1,33
 337 343 337 343 330 322 c 0,34,35
 317 284 317 284 260 242 c 0,36,37
 233 226 233 226 206 211 c 1,38,-1
 353 211 l 2,39,40
 378 211 378 211 410.5 213.5 c 128,-1,41
 443 216 443 216 461 221 c 1,0,1
EndSplineSet
EndChar

StartChar: glyph42
Encoding: 108 108 42
Width: 885
GlyphClass: 2
Flags: W
LayerCount: 2
Fore
SplineSet
494 547 m 1,0,-1
 354 547 l 1,1,2
 354 364 354 364 348.5 259 c 128,-1,3
 343 154 343 154 322 0 c 1,4,-1
 10 0 l 1,5,-1
 10 580 l 1,6,-1
 256 580 l 1,7,-1
 236 800 l 1,8,-1
 608 800 l 1,9,10
 602 747 602 747 600 717 c 0,11,12
 592 625 592 625 592 580 c 1,13,-1
 838 580 l 1,14,-1
 838 0 l 1,15,-1
 526 0 l 1,16,17
 507 142 507 142 500.5 262.5 c 128,-1,18
 494 383 494 383 494 547 c 1,0,-1
357 580 m 1,19,-1
 495 580 l 1,20,21
 495 637 495 637 499 710 c 0,22,23
 500 734 500 734 503 772 c 1,24,-1
 349 772 l 1,25,26
 352 734 352 734 354.5 685.5 c 128,-1,27
 357 637 357 637 357 580 c 1,19,-1
105 547 m 1,28,29
 112 531 112 531 116 472.5 c 128,-1,30
 120 414 120 414 120 348 c 0,31,32
 120 261 120 261 115 170.5 c 128,-1,33
 110 80 110 80 102 33 c 1,34,-1
 223 33 l 1,35,36
 242 105 242 105 249.5 240.5 c 128,-1,37
 257 376 257 376 257 547 c 1,38,-1
 105 547 l 1,28,29
742 33 m 1,39,40
 733 141 733 141 729.5 214.5 c 128,-1,41
 726 288 726 288 726 353 c 0,42,43
 726 451 726 451 735 547 c 1,44,-1
 591 547 l 1,45,46
 591 359 591 359 598 234 c 128,-1,47
 605 109 605 109 625 33 c 1,48,-1
 742 33 l 1,39,40
EndSplineSet
EndChar

StartChar: glyph43
Encoding: 109 109 43
Width: 670
GlyphClass: 2
Flags: W
LayerCount: 2
Fore
SplineSet
502 0 m 1,0,1
 509 25 509 25 513.5 68 c 128,-1,2
 518 111 518 111 518 173 c 0,3,4
 518 241 518 241 514 321 c 128,-1,5
 510 401 510 401 498 532 c 1,6,7
 447 498 447 498 410 436 c 0,8,9
 362 355 362 355 362 312 c 0,10,11
 362 116 362 116 367 63.5 c 128,-1,12
 372 11 372 11 382 0 c 1,13,-1
 250 0 l 1,14,15
 256 5 256 5 258 49 c 128,-1,16
 260 93 260 93 260 175 c 0,17,18
 260 220 260 220 259 342.5 c 128,-1,19
 258 465 258 465 258 534 c 1,20,21
 175 451 175 451 137.5 360.5 c 128,-1,22
 100 270 100 270 100 148 c 0,23,24
 100 76 100 76 112 45 c 0,25,26
 116 34 116 34 141 0 c 1,27,-1
 0 0 l 1,28,29
 2 14 2 14 2 34.5 c 128,-1,30
 2 55 2 55 2 67 c 0,31,32
 2 94 2 94 1.5 115 c 128,-1,33
 1 136 1 136 0 153 c 0,34,35
 0 231 0 231 30 301 c 0,36,37
 67 388 67 388 156 478 c 0,38,39
 167 489 167 489 225 542 c 0,40,41
 264 578 264 578 275 595 c 1,42,-1
 364 595 l 1,43,44
 361 561 361 561 358.5 506.5 c 128,-1,45
 356 452 356 452 356 416 c 1,46,47
 374 456 374 456 421 502 c 0,48,49
 475 554 475 554 530 606 c 1,50,-1
 605 606 l 1,51,-1
 628 262 l 1,52,-1
 628 0 l 1,53,-1
 502 0 l 1,0,1
EndSplineSet
EndChar

StartChar: glyph44
Encoding: 110 110 44
Width: 425
GlyphClass: 2
Flags: W
LayerCount: 2
Fore
SplineSet
35 293 m 2,0,1
 35 375 35 375 23.5 469 c 128,-1,2
 12 563 12 563 0 580 c 1,3,-1
 397 580 l 1,4,5
 364 477 364 477 331 374 c 1,6,7
 281 284 281 284 144 284 c 1,8,9
 141 235 141 235 138.5 178 c 128,-1,10
 136 121 136 121 136 23 c 1,11,12
 149 23 149 23 181 23 c 128,-1,13
 213 23 213 23 236 23 c 256,14,15
 259 23 259 23 289 37 c 0,16,17
 294 39 294 39 302 44 c 1,18,19
 301 43 301 43 288 29 c 0,20,21
 281 22 281 22 272 0 c 1,22,-1
 12 0 l 1,23,24
 16 0 16 0 25.5 53 c 128,-1,25
 35 106 35 106 35 133 c 2,26,-1
 35 293 l 2,0,1
122 546 m 1,27,28
 122 543 122 543 137 418 c 0,29,30
 144 360 144 360 144 316 c 1,31,32
 218 327 218 327 243 391 c 0,33,34
 261 437 261 437 261 546 c 1,35,-1
 122 546 l 1,27,28
EndSplineSet
EndChar

StartChar: glyph45
Encoding: 111 111 45
Width: 455
GlyphClass: 2
Flags: W
LayerCount: 2
Fore
SplineSet
296 34 m 1,0,-1
 280 264 l 1,1,2
 204 253 204 253 170 189 c 0,3,4
 141 134 141 134 141 34 c 1,5,-1
 296 34 l 1,0,-1
292 547 m 1,6,-1
 151 547 l 1,7,8
 151 441 151 441 196 398 c 0,9,10
 224 371 224 371 266 371 c 0,11,12
 272 371 272 371 275.5 371 c 128,-1,13
 279 371 279 371 280 372 c 0,14,15
 280 390 280 390 286 470 c 0,16,17
 288 496 288 496 292 547 c 1,6,-1
398 580 m 1,18,19
 389 530 389 530 382 437.5 c 128,-1,20
 375 345 375 345 375 287 c 0,21,22
 375 205 375 205 386.5 111 c 128,-1,23
 398 17 398 17 410 0 c 1,24,-1
 13 0 l 1,25,26
 41 123 41 123 52 152 c 0,27,28
 78 223 78 223 125 256 c 0,29,30
 179 294 179 294 280 294 c 1,31,32
 281 299 281 299 281 312 c 0,33,34
 281 319 281 319 281 323.5 c 128,-1,35
 281 328 281 328 280 332 c 1,36,37
 170 332 170 332 112 376 c 0,38,39
 34 436 34 436 34 580 c 1,40,-1
 398 580 l 1,18,19
EndSplineSet
EndChar

StartChar: glyph46
Encoding: 112 112 46
Width: 640
GlyphClass: 2
Flags: W
LayerCount: 2
Fore
SplineSet
496 33 m 1,0,1
 487 141 487 141 483.5 214.5 c 128,-1,2
 480 288 480 288 480 353 c 0,3,4
 480 451 480 451 489 547 c 1,5,-1
 345 547 l 1,6,7
 345 359 345 359 352 234 c 128,-1,8
 359 109 359 109 379 33 c 1,9,-1
 496 33 l 1,0,1
112 547 m 1,10,11
 116 540 116 540 118 514 c 128,-1,12
 120 488 120 488 120 448 c 0,13,14
 120 379 120 379 118 310 c 0,15,16
 111 70 111 70 111 40 c 0,17,18
 111 -51 111 -51 116.5 -113 c 128,-1,19
 122 -175 122 -175 136 -200 c 1,20,-1
 10 -200 l 1,21,22
 17 -188 17 -188 21 -56 c 128,-1,23
 25 76 25 76 25 242 c 0,24,25
 25 390 25 390 21.5 479.5 c 128,-1,26
 18 569 18 569 10 580 c 1,27,-1
 592 580 l 1,28,-1
 592 0 l 1,29,-1
 280 0 l 1,30,31
 282 10 282 10 282 25 c 0,32,33
 282 66 282 66 273.5 158.5 c 128,-1,34
 265 251 265 251 256.5 360 c 128,-1,35
 248 469 248 469 248 547 c 1,36,-1
 112 547 l 1,10,11
EndSplineSet
EndChar

StartChar: glyph47
Encoding: 113 113 47
Width: 700
GlyphClass: 2
Flags: W
LayerCount: 2
Fore
SplineSet
17 580 m 1,0,1
 31 576 31 576 43 575 c 128,-1,2
 55 574 55 574 73 574 c 0,3,4
 95 574 95 574 111 576 c 128,-1,5
 127 578 127 578 138 580 c 1,6,7
 134 575 134 575 132 555.5 c 128,-1,8
 130 536 130 536 130 510 c 0,9,10
 130 491 130 491 131 450.5 c 128,-1,11
 132 410 132 410 132 394 c 0,12,13
 132 362 132 362 128 355 c 1,14,-1
 272 355 l 1,15,16
 271 357 271 357 270 373.5 c 128,-1,17
 269 390 269 390 269 395 c 0,18,19
 269 410 269 410 270 451 c 128,-1,20
 271 492 271 492 271 512 c 0,21,22
 271 530 271 530 271 548 c 0,23,24
 269 576 269 576 262 580 c 1,25,26
 277 578 277 578 297.5 575.5 c 128,-1,27
 318 573 318 573 335 573 c 0,28,29
 360 573 360 573 368 574 c 0,30,31
 386 579 386 579 395 580 c 1,32,33
 390 574 390 574 388 556 c 128,-1,34
 386 538 386 538 386 511 c 0,35,36
 386 481 386 481 387 451 c 128,-1,37
 388 421 388 421 389 393 c 0,38,39
 389 360 389 360 385 355 c 1,40,-1
 536 355 l 1,41,42
 534 359 534 359 533.5 380.5 c 128,-1,43
 533 402 533 402 533 419 c 2,44,-1
 533 514 l 1,45,-1
 533 535 l 2,46,47
 533 568 533 568 530 580 c 1,48,49
 554 577 554 577 572 576 c 128,-1,50
 590 575 590 575 601 575 c 256,51,52
 612 575 612 575 623.5 576 c 128,-1,53
 635 577 635 577 653 580 c 1,54,55
 649 573 649 573 646 542.5 c 128,-1,56
 643 512 643 512 643 479 c 0,57,58
 643 423 643 423 646 380.5 c 128,-1,59
 649 338 649 338 655 322 c 1,60,61
 646 327 646 327 624 327 c 0,62,63
 610 327 610 327 562.5 324.5 c 128,-1,64
 515 322 515 322 489 322 c 1,65,66
 494 318 494 318 494 164 c 128,-1,67
 494 10 494 10 509 0 c 1,68,-1
 142 0 l 1,69,70
 154 9 154 9 157 111 c 128,-1,71
 160 213 160 213 162 322 c 1,72,73
 144 324 144 324 121 325 c 128,-1,74
 98 326 98 326 71 326 c 0,75,76
 54 326 54 326 41 326 c 128,-1,77
 28 326 28 326 13 322 c 1,78,79
 18 330 18 330 21 375.5 c 128,-1,80
 24 421 24 421 24 476 c 0,81,82
 24 522 24 522 23 545 c 128,-1,83
 22 568 22 568 17 580 c 1,0,1
272 322 m 1,84,85
 269 309 269 309 267 280.5 c 128,-1,86
 265 252 265 252 265 225 c 0,87,88
 265 173 265 173 267.5 122 c 128,-1,89
 270 71 270 71 272 33 c 1,90,-1
 385 33 l 1,91,92
 384 36 384 36 384 51 c 0,93,94
 384 73 384 73 388.5 147 c 128,-1,95
 393 221 393 221 393 247 c 0,96,97
 393 281 393 281 391.5 295 c 128,-1,98
 390 309 390 309 385 322 c 1,99,-1
 272 322 l 1,84,85
EndSplineSet
EndChar

StartChar: glyph48
Encoding: 114 114 48
Width: 440
GlyphClass: 2
Flags: W
LayerCount: 2
Fore
SplineSet
0 0 m 1,0,1
 11 16 11 16 23 109.5 c 128,-1,2
 35 203 35 203 35 287 c 2,3,-1
 35 447 l 2,4,5
 35 473 35 473 25 526.5 c 128,-1,6
 15 580 15 580 12 580 c 1,7,-1
 327 580 l 1,8,9
 334 562 334 562 339 556 c 0,10,11
 348 546 348 546 357 536 c 1,12,13
 344 543 344 543 336 546 c 0,14,15
 309 557 309 557 291 557 c 0,16,17
 213 557 213 557 187 557 c 128,-1,18
 161 557 161 557 136 557 c 1,19,20
 136 409 136 409 140 379.5 c 128,-1,21
 144 350 144 350 144 326 c 1,22,23
 273 326 273 326 331 272 c 0,24,25
 375 231 375 231 386 144 c 1,26,27
 391 72 391 72 397 0 c 1,28,-1
 0 0 l 1,0,1
144 294 m 1,29,30
 144 242 144 242 133 146 c 128,-1,31
 122 50 122 50 122 34 c 1,32,-1
 295 34 l 1,33,-1
 295 82 l 2,34,35
 295 205 295 205 255 249 c 0,36,37
 220 288 220 288 144 294 c 1,29,30
EndSplineSet
EndChar

StartChar: glyph49
Encoding: 115 115 49
Width: 744
GlyphClass: 2
Flags: W
LayerCount: 2
Fore
SplineSet
530 0 m 1,0,-1
 180 0 l 1,1,2
 187 16 187 16 193 70 c 128,-1,3
 199 124 199 124 199 168 c 0,4,5
 199 197 199 197 196 214 c 1,6,7
 114 223 114 223 67 257 c 0,8,9
 16 294 16 294 16 372 c 0,10,11
 16 482 16 482 111 534 c 0,12,13
 195 580 195 580 355 580 c 0,14,15
 495 580 495 580 587 532 c 0,16,17
 694 476 694 476 694 372 c 0,18,19
 694 295 694 295 644 258 c 1,20,21
 580 236 580 236 516 214 c 1,22,23
 513 194 513 194 513 160 c 0,24,25
 513 113 513 113 518 64.5 c 128,-1,26
 523 16 523 16 530 0 c 1,0,-1
355 395 m 256,27,28
 460 395 460 395 490 347 c 0,29,30
 497 336 497 336 515 244 c 1,31,32
 572 239 572 239 590 292 c 0,33,34
 598 316 598 316 598 372 c 0,35,36
 598 419 598 419 546 473 c 0,37,38
 475 547 475 547 355 547 c 0,39,40
 248 547 248 547 185 502 c 0,41,42
 112 449 112 449 112 372 c 2,43,-1
 112 354 l 2,44,45
 112 308 112 308 122 283 c 0,46,47
 138 243 138 243 181 243 c 0,48,49
 190 243 190 243 195 244 c 1,50,51
 216 340 216 340 220 346 c 0,52,53
 250 395 250 395 355 395 c 256,27,28
293 33 m 1,54,-1
 417 33 l 2,55,56
 421 36 421 36 423 56 c 128,-1,57
 425 76 425 76 425 106 c 0,58,59
 425 152 425 152 422.5 199 c 128,-1,60
 420 246 420 246 417 285 c 1,61,62
 407 339 407 339 392 360.5 c 128,-1,63
 377 382 377 382 355 387 c 1,64,65
 333 380 333 380 318.5 351 c 128,-1,66
 304 322 304 322 297 285 c 0,67,68
 296 259 296 259 295 242 c 0,69,70
 288 121 288 121 288 86 c 0,71,72
 288 37 288 37 293 33 c 1,54,-1
EndSplineSet
EndChar

StartChar: glyph50
Encoding: 116 116 50
Width: 880
GlyphClass: 2
Flags: W
LayerCount: 2
Fore
SplineSet
0 580 m 1,0,-1
 582 580 l 1,1,-1
 828 580 l 1,2,-1
 828 0 l 1,3,-1
 516 0 l 1,4,5
 497 142 497 142 490.5 262.5 c 128,-1,6
 484 383 484 383 484 547 c 1,7,-1
 344 547 l 1,8,9
 344 364 344 364 338.5 259 c 128,-1,10
 333 154 333 154 312 0 c 1,11,-1
 0 0 l 1,12,-1
 0 580 l 1,0,-1
95 547 m 1,13,14
 102 531 102 531 106 472.5 c 128,-1,15
 110 414 110 414 110 348 c 0,16,17
 110 261 110 261 105 170.5 c 128,-1,18
 100 80 100 80 92 33 c 1,19,-1
 213 33 l 1,20,21
 232 105 232 105 239.5 240.5 c 128,-1,22
 247 376 247 376 247 547 c 1,23,-1
 95 547 l 1,13,14
732 33 m 1,24,25
 723 141 723 141 719.5 214.5 c 128,-1,26
 716 288 716 288 716 353 c 0,27,28
 716 451 716 451 725 547 c 1,29,-1
 581 547 l 1,30,31
 581 359 581 359 588 234 c 128,-1,32
 595 109 595 109 615 33 c 1,33,-1
 732 33 l 1,24,25
EndSplineSet
EndChar

StartChar: glyph51
Encoding: 117 117 51
Width: 695
GlyphClass: 2
Flags: W
LayerCount: 2
Fore
SplineSet
410 0 m 1,0,-1
 13 0 l 1,1,2
 41 123 41 123 52 152 c 0,3,4
 78 223 78 223 125 256 c 0,5,6
 179 294 179 294 280 294 c 1,7,-1
 280 332 l 1,8,9
 170 332 170 332 112 376 c 0,10,11
 34 436 34 436 34 580 c 1,12,-1
 396 580 l 1,13,-1
 482 580 l 2,14,15
 553 580 553 580 605 481 c 0,16,17
 654 388 654 388 654 286 c 0,18,19
 654 117 654 117 607 55 c 0,20,21
 565 0 565 0 482 0 c 2,22,-1
 412 0 l 1,23,-1
 410 0 l 1,0,-1
296 34 m 1,24,-1
 280 264 l 1,25,26
 204 253 204 253 170 189 c 0,27,28
 141 134 141 134 141 34 c 1,29,-1
 296 34 l 1,24,-1
292 547 m 1,30,-1
 151 547 l 1,31,32
 151 441 151 441 196 398 c 0,33,34
 224 371 224 371 266 371 c 0,35,36
 272 371 272 371 275.5 371 c 128,-1,37
 279 371 279 371 280 372 c 0,38,39
 280 390 280 390 286 470 c 0,40,41
 288 496 288 496 292 547 c 1,30,-1
390 547 m 1,42,43
 382 519 382 519 378 458.5 c 128,-1,44
 374 398 374 398 374 334 c 1,45,-1
 560 334 l 1,46,47
 560 416 560 416 533 477 c 0,48,49
 502 547 502 547 450 547 c 2,50,-1
 390 547 l 1,42,43
462 33 m 2,51,52
 511 33 511 33 534 70 c 0,53,54
 561 113 561 113 561 237 c 2,55,-1
 561 296 l 1,56,-1
 374 296 l 1,57,58
 374 210 374 210 382 134 c 128,-1,59
 390 58 390 58 400 33 c 1,60,-1
 462 33 l 2,51,52
EndSplineSet
EndChar

StartChar: glyph52
Encoding: 118 118 52
Width: 875
GlyphClass: 2
Flags: W
LayerCount: 2
Fore
SplineSet
832 0 m 1,0,-1
 250 0 l 1,1,-1
 4 0 l 1,2,-1
 4 580 l 1,3,-1
 316 580 l 1,4,5
 335 438 335 438 341.5 317.5 c 128,-1,6
 348 197 348 197 348 33 c 1,7,-1
 488 33 l 1,8,9
 488 216 488 216 493.5 321 c 128,-1,10
 499 426 499 426 520 580 c 1,11,-1
 832 580 l 1,12,-1
 832 0 l 1,0,-1
100 547 m 1,13,14
 109 439 109 439 112.5 365.5 c 128,-1,15
 116 292 116 292 116 227 c 0,16,17
 116 129 116 129 107 33 c 1,18,-1
 251 33 l 1,19,20
 251 221 251 221 244 346 c 128,-1,21
 237 471 237 471 217 547 c 1,22,-1
 100 547 l 1,13,14
737 33 m 1,23,24
 730 49 730 49 726 107.5 c 128,-1,25
 722 166 722 166 722 232 c 0,26,27
 722 319 722 319 727 409.5 c 128,-1,28
 732 500 732 500 740 547 c 1,29,-1
 619 547 l 1,30,31
 600 475 600 475 592.5 339.5 c 128,-1,32
 585 204 585 204 585 33 c 1,33,-1
 737 33 l 1,23,24
EndSplineSet
EndChar

StartChar: glyph53
Encoding: 119 119 53
Width: 620
GlyphClass: 2
Flags: W
LayerCount: 2
Fore
SplineSet
574 580 m 1,0,1
 566 566 566 566 561 467 c 128,-1,2
 556 368 556 368 556 252 c 0,3,4
 556 141 556 141 559.5 76.5 c 128,-1,5
 563 12 563 12 572 0 c 1,6,-1
 2 0 l 1,7,8
 7 18 7 18 10 111 c 128,-1,9
 13 204 13 204 13 321 c 0,10,11
 13 422 13 422 10 496 c 128,-1,12
 7 570 7 570 0 580 c 1,13,-1
 110 580 l 1,14,15
 107 571 107 571 107 523 c 0,16,17
 107 481 107 481 111 344 c 128,-1,18
 115 207 115 207 115 147 c 0,19,20
 115 116 115 116 115 86 c 0,21,22
 113 40 113 40 106 33 c 1,23,-1
 234 33 l 1,24,25
 232 39 232 39 231 64.5 c 128,-1,26
 230 90 230 90 230 128 c 0,27,28
 230 209 230 209 232.5 354 c 128,-1,29
 235 499 235 499 235 503 c 2,30,-1
 235 517 l 1,31,-1
 235 529 l 2,32,33
 235 569 235 569 232 580 c 0,34,35
 234 582 234 582 263 582 c 0,36,37
 283 582 283 582 303.5 581.5 c 128,-1,38
 324 581 324 581 341 580 c 1,39,40
 337 569 337 569 335 489.5 c 128,-1,41
 333 410 333 410 333 308 c 0,42,43
 333 181 333 181 334.5 115 c 128,-1,44
 336 49 336 49 339 33 c 1,45,-1
 455 33 l 1,46,47
 459 51 459 51 463.5 167 c 128,-1,48
 468 283 468 283 468 380 c 0,49,50
 468 465 468 465 464.5 517 c 128,-1,51
 461 569 461 569 453 580 c 1,52,-1
 574 580 l 1,0,1
EndSplineSet
EndChar

StartChar: glyph54
Encoding: 120 120 54
Width: 875
GlyphClass: 2
Flags: W
LayerCount: 2
Fore
SplineSet
732 33 m 1,0,1
 723 141 723 141 719.5 214.5 c 128,-1,2
 716 288 716 288 716 353 c 0,3,4
 716 451 716 451 725 547 c 1,5,-1
 581 547 l 1,6,7
 581 359 581 359 588 234 c 128,-1,8
 595 109 595 109 615 33 c 1,9,-1
 732 33 l 1,0,1
95 547 m 1,10,11
 102 531 102 531 106 472.5 c 128,-1,12
 110 414 110 414 110 348 c 0,13,14
 110 261 110 261 105 170.5 c 128,-1,15
 100 80 100 80 92 33 c 1,16,-1
 213 33 l 1,17,18
 232 105 232 105 239.5 240.5 c 128,-1,19
 247 376 247 376 247 547 c 1,20,-1
 95 547 l 1,10,11
0 580 m 1,21,-1
 358 580 l 1,22,23
 315 650 315 650 283 697 c 0,24,25
 248 749 248 749 230 767 c 1,26,27
 177 767 177 767 120 768 c 128,-1,28
 63 769 63 769 14 770 c 1,29,30
 17 781 17 781 17 788 c 0,31,32
 17 792 17 792 14 800 c 1,33,-1
 340 800 l 1,34,-1
 426 662 l 1,35,36
 453 698 453 698 466 718 c 0,37,38
 507 778 507 778 512 800 c 1,39,-1
 814 800 l 1,40,41
 812 791 812 791 811 782 c 0,42,43
 811 778 811 778 814 772 c 1,44,45
 786 772 786 772 759.5 772 c 128,-1,46
 733 772 733 772 708 773 c 0,47,48
 643 773 643 773 614 767 c 0,49,50
 601 767 601 767 537.5 685.5 c 128,-1,51
 474 604 474 604 466 580 c 1,52,-1
 828 580 l 1,53,-1
 828 0 l 1,54,-1
 516 0 l 1,55,56
 497 142 497 142 490.5 262.5 c 128,-1,57
 484 383 484 383 484 547 c 1,58,-1
 344 547 l 1,59,60
 344 364 344 364 338.5 259 c 128,-1,61
 333 154 333 154 312 0 c 1,62,-1
 0 0 l 1,63,-1
 0 580 l 1,21,-1
EndSplineSet
EndChar

StartChar: glyph55
Encoding: 121 121 55
Width: 645
GlyphClass: 2
Flags: W
LayerCount: 2
Fore
SplineSet
368 470 m 1,0,1
 365 466 365 466 364 447 c 128,-1,2
 363 428 363 428 363 422 c 0,3,4
 363 390 363 390 364.5 348.5 c 128,-1,5
 366 307 366 307 367 283 c 0,6,7
 367 259 367 259 364 253 c 1,8,-1
 493 253 l 1,9,10
 491 257 491 257 490 277 c 128,-1,11
 489 297 489 297 489 325 c 0,12,13
 489 364 489 364 490 402 c 128,-1,14
 491 440 491 440 493 470 c 1,15,-1
 368 470 l 1,0,1
251 220 m 1,16,17
 247 215 247 215 245 196 c 128,-1,18
 243 177 243 177 243 158 c 0,19,20
 243 137 243 137 243 116.5 c 128,-1,21
 243 96 243 96 244 76 c 0,22,23
 244 39 244 39 239 33 c 1,24,-1
 370 33 l 1,25,26
 366 40 366 40 366 65 c 256,27,28
 366 90 366 90 368.5 133.5 c 128,-1,29
 371 177 371 177 371 182 c 0,30,31
 371 211 371 211 366 220 c 1,32,-1
 251 220 l 1,16,17
459 220 m 1,33,34
 471 206 471 206 473 106 c 128,-1,35
 475 6 475 6 482 0 c 1,36,-1
 136 0 l 1,37,38
 140 3 140 3 141 15.5 c 128,-1,39
 142 28 142 28 142 53 c 0,40,41
 142 75 142 75 141.5 97.5 c 128,-1,42
 141 120 141 120 141 143 c 0,43,44
 141 178 141 178 142.5 195 c 128,-1,45
 144 212 144 212 150 220 c 1,46,47
 133 222 133 222 111 224 c 128,-1,48
 89 226 89 226 63 226 c 0,49,50
 27 226 27 226 16 220 c 1,51,52
 19 229 19 229 22 314 c 128,-1,53
 25 399 25 399 25 480 c 0,54,55
 25 567 25 567 20 580 c 1,56,57
 53 575 53 575 86 575 c 0,58,59
 118 575 118 575 136 580 c 1,60,61
 130 557 130 557 130 532 c 0,62,63
 130 513 130 513 133 502 c 1,64,-1
 374 502 l 1,65,66
 376 508 376 508 378 525.5 c 128,-1,67
 380 543 380 543 380 558 c 0,68,69
 380 568 380 568 378 580 c 1,70,71
 395 578 395 578 409 576.5 c 128,-1,72
 423 575 423 575 440 575 c 0,73,74
 463 575 463 575 487 580 c 1,75,76
 483 568 483 568 483 541 c 0,77,78
 483 528 483 528 484 518.5 c 128,-1,79
 485 509 485 509 487 502 c 1,80,81
 574 498 574 498 586 498 c 0,82,83
 594 498 594 498 601 502 c 1,84,85
 596 489 596 489 593 445.5 c 128,-1,86
 590 402 590 402 590 348 c 0,87,88
 590 307 590 307 593 269 c 128,-1,89
 596 231 596 231 601 220 c 1,90,91
 594 223 594 223 581.5 224 c 128,-1,92
 569 225 569 225 550 225 c 0,93,94
 514 225 514 225 477 222 c 0,95,96
 470 222 470 222 459 220 c 1,33,34
134 470 m 0,97,98
 132 467 132 467 131.5 445 c 128,-1,99
 131 423 131 423 131 407 c 2,100,-1
 131 335 l 1,101,-1
 131 320 l 2,102,103
 131 288 131 288 130 273 c 128,-1,104
 129 258 129 258 124 253 c 1,105,-1
 259 253 l 1,106,107
 255 260 255 260 255 295 c 0,108,109
 255 322 255 322 256 352.5 c 128,-1,110
 257 383 257 383 258 413 c 0,111,112
 258 459 258 459 251 470 c 1,113,114
 197 470 197 470 178 470 c 128,-1,115
 159 470 159 470 134 470 c 0,97,98
EndSplineSet
EndChar

StartChar: glyph56
Encoding: 122 122 56
Width: 740
GlyphClass: 2
Flags: W
LayerCount: 2
Fore
SplineSet
147 597 m 1,0,1
 142 576 142 576 138.5 485 c 128,-1,2
 135 394 135 394 135 355 c 1,3,-1
 254 355 l 1,4,5
 257 369 257 369 257 411 c 0,6,7
 257 471 257 471 253.5 519.5 c 128,-1,8
 250 568 250 568 242 597 c 1,9,-1
 147 597 l 1,0,1
606 322 m 1,10,-1
 491 322 l 1,11,12
 485 302 485 302 485 270 c 0,13,14
 485 221 485 221 496 156 c 128,-1,15
 507 91 507 91 524 33 c 1,16,-1
 620 33 l 1,17,18
 614 50 614 50 608 117 c 128,-1,19
 602 184 602 184 602 245 c 0,20,21
 602 266 602 266 602.5 279.5 c 128,-1,22
 603 293 603 293 606 322 c 1,10,-1
108 -95 m 1,23,24
 175 -19 175 -19 221 138 c 0,25,26
 260 272 260 272 254 322 c 1,27,-1
 138 322 l 1,28,29
 138 281 138 281 132.5 198 c 128,-1,30
 127 115 127 115 108 -95 c 1,23,24
256 60 m 0,31,32
 199 -37 199 -37 159 -84 c 0,33,34
 110 -142 110 -142 31 -200 c 1,35,36
 37 -171 37 -171 41 -36 c 128,-1,37
 45 99 45 99 45 252 c 0,38,39
 45 408 45 408 41.5 506.5 c 128,-1,40
 38 605 38 605 31 630 c 1,41,-1
 357 630 l 1,42,43
 352 619 352 619 348.5 564 c 128,-1,44
 345 509 345 509 345 409 c 2,45,-1
 345 355 l 1,46,-1
 710 355 l 1,47,48
 706 347 706 347 703 290.5 c 128,-1,49
 700 234 700 234 700 169 c 0,50,51
 700 103 700 103 702 58 c 128,-1,52
 704 13 704 13 710 0 c 1,53,-1
 438 0 l 1,54,55
 424 25 424 25 409 136.5 c 128,-1,56
 394 248 394 248 394 322 c 1,57,-1
 342 322 l 1,58,59
 331 239 331 239 312.5 181.5 c 128,-1,60
 294 124 294 124 256 60 c 0,31,32
EndSplineSet
EndChar

StartChar: glyph57
Encoding: 123 123 57
Width: 954
GlyphClass: 2
Flags: W
LayerCount: 2
Fore
SplineSet
265 250 m 1,0,-1
 265 325 l 1,1,-1
 119 325 l 1,2,-1
 89 315 l 1,3,-1
 89 358 l 1,4,-1
 119 349 l 1,5,-1
 265 349 l 1,6,-1
 265 400 l 1,7,8
 255 476 255 476 246 497 c 0,9,10
 218 561 218 561 143 561 c 0,11,12
 120 561 120 561 80 546 c 128,-1,13
 40 531 40 531 12 511 c 1,14,15
 9 526 9 526 9 536 c 0,16,17
 9 547 9 547 12 561 c 1,18,19
 63 573 63 573 98.5 577 c 128,-1,20
 134 581 134 581 169 581 c 0,21,22
 180 582 180 582 188 582 c 0,23,24
 227 582 227 582 258 574 c 0,25,26
 305 562 305 562 324 534 c 0,27,28
 356 488 356 488 356 448.5 c 128,-1,29
 356 409 356 409 363 397 c 1,30,31
 375 408 375 408 404.5 416 c 128,-1,32
 434 424 434 424 458 424 c 0,33,34
 477 424 477 424 494 419.5 c 128,-1,35
 511 415 511 415 547 402 c 1,36,37
 570 497 570 497 576 509 c 0,38,39
 612 583 612 583 693 583 c 2,40,-1
 796 583 l 2,41,42
 799 583 799 583 863 570 c 0,43,44
 892 564 892 564 907 564 c 1,45,-1
 907 513 l 1,46,47
 877 530 877 530 848 548 c 1,48,49
 816 561 816 561 778 561 c 0,50,51
 676 561 676 561 653 429 c 1,52,53
 645 342 645 342 642 309 c 1,54,-1
 804 309 l 1,55,-1
 833 318 l 1,56,-1
 833 275 l 1,57,-1
 804 286 l 1,58,-1
 642 286 l 1,59,-1
 642 221 l 2,60,61
 642 105 642 105 673 59 c 0,62,63
 699 20 699 20 755 20 c 0,64,65
 831 20 831 20 907 61 c 1,66,-1
 907 23 l 1,67,68
 856 12 856 12 821 5.5 c 128,-1,69
 786 -1 786 -1 766 -1 c 2,70,-1
 684 -1 l 2,71,72
 611 -1 611 -1 578 53 c 0,73,74
 550 98 550 98 550 178 c 1,75,76
 524 169 524 169 500 162.5 c 128,-1,77
 476 156 476 156 452 156 c 0,78,79
 427 156 427 156 397 167 c 128,-1,80
 367 178 367 178 363 179 c 1,81,82
 337 79 337 79 331 68 c 0,83,84
 294 -4 294 -4 211 -4 c 2,85,-1
 122 -4 l 2,86,87
 101 -4 101 -4 60 5 c 128,-1,88
 19 14 19 14 9 14 c 1,89,-1
 9 53 l 1,90,91
 44 40 44 40 79 27 c 0,92,93
 115 16 115 16 137 16 c 0,94,95
 221 16 221 16 250 96 c 0,96,97
 265 137 265 137 265 211 c 2,98,-1
 265 227 l 1,99,-1
 119 227 l 1,100,-1
 89 216 l 1,101,-1
 119 250 l 1,102,-1
 265 250 l 1,103,-1
 119 250 l 1,104,-1
 89 259 l 1,105,-1
 265 250 l 1,0,-1
560 292 m 0,106,107
 560 332 560 332 531 363 c 128,-1,108
 502 394 502 394 458 394 c 0,109,110
 416 394 416 394 384.5 363.5 c 128,-1,111
 353 333 353 333 353 290 c 0,112,113
 353 260 353 260 380 226 c 0,114,115
 411 187 411 187 449 187 c 0,116,117
 490 187 490 187 525 218 c 128,-1,118
 560 249 560 249 560 292 c 0,106,107
EndSplineSet
EndChar

StartChar: glyph58
Encoding: 124 124 58
Width: 1151
GlyphClass: 2
Flags: W
LayerCount: 2
Fore
SplineSet
148 269 m 1,0,-1
 24 269 l 1,1,2
 24 296 24 296 24 329 c 128,-1,3
 24 362 24 362 25 412 c 2,4,-1
 25 454 l 1,5,-1
 25 469 l 1,6,-1
 25 482 l 2,7,8
 25 528 25 528 22 551 c 0,9,10
 22 559 22 559 14 574 c 0,11,12
 13 576 13 576 10 580 c 1,13,-1
 273 580 l 1,14,15
 273 590 273 590 273 602.5 c 128,-1,16
 273 615 273 615 274 635 c 2,17,-1
 274 646 l 2,18,19
 274 672 274 672 274 698 c 0,20,21
 271 717 271 717 270 724 c 0,22,23
 270 739 270 739 256 742 c 1,24,-1
 373 742 l 1,25,26
 373 763 373 763 372.5 783.5 c 128,-1,27
 372 804 372 804 365 804 c 1,28,-1
 484 804 l 1,29,30
 480 804 480 804 478 792.5 c 128,-1,31
 476 781 476 781 476 765 c 0,32,33
 476 757 476 757 476 752 c 128,-1,34
 476 747 476 747 477 742 c 1,35,-1
 611 742 l 1,36,-1
 610 789 l 2,37,38
 610 792 610 792 609 796 c 128,-1,39
 608 800 608 800 605 804 c 1,40,-1
 721 804 l 1,41,-1
 718 785 l 2,42,43
 717 781 717 781 717 774.5 c 128,-1,44
 717 768 717 768 717 765 c 0,45,46
 717 757 717 757 717 752 c 128,-1,47
 717 747 717 747 718 742 c 1,48,-1
 828 742 l 1,49,50
 825 739 825 739 824 736 c 0,51,52
 819 725 819 725 819 710 c 2,53,-1
 818 580 l 1,54,-1
 1075 580 l 1,55,56
 1071 573 1071 573 1068 520 c 128,-1,57
 1065 467 1065 467 1065 407 c 0,58,59
 1065 375 1065 375 1065 343 c 0,60,61
 1067 290 1067 290 1073 269 c 1,62,-1
 944 269 l 1,63,64
 942 247 942 247 941 218 c 128,-1,65
 940 189 940 189 940 152 c 0,66,67
 940 112 940 112 943 80 c 0,68,69
 943 59 943 59 948 28 c 0,70,71
 949 18 949 18 954 -1 c 1,72,-1
 610 -1 l 1,73,74
 612 26 612 26 613 58.5 c 128,-1,75
 614 91 614 91 614 122 c 0,76,77
 614 158 614 158 612 197 c 128,-1,78
 610 236 610 236 608 269 c 1,79,-1
 489 269 l 2,80,81
 486 269 486 269 482.5 214 c 128,-1,82
 479 159 479 159 479 122 c 0,83,84
 479 92 479 92 480 59.5 c 128,-1,85
 481 27 481 27 483 -1 c 1,86,-1
 138 -1 l 1,87,88
 145 11 145 11 147.5 22 c 128,-1,89
 150 33 150 33 150 48 c 0,90,91
 149 68 149 68 149 80 c 0,92,93
 151 92 151 92 151 117 c 128,-1,94
 151 142 151 142 152 158 c 0,95,96
 152 194 152 194 151 221 c 128,-1,97
 150 248 150 248 148 269 c 1,0,-1
964 554 m 1,98,-1
 821 554 l 1,99,-1
 822 424 l 2,100,101
 822 371 822 371 825 318 c 0,102,103
 825 307 825 307 828 288 c 1,104,-1
 956 288 l 1,105,106
 960 317 960 317 961 334 c 0,107,108
 967 393 967 393 967 418 c 2,109,-1
 964 554 l 1,98,-1
496 652 m 1,110,-1
 494 721 l 1,111,-1
 373 721 l 1,112,-1
 368 663 l 1,113,-1
 365 580 l 1,114,-1
 496 580 l 1,115,-1
 496 652 l 1,110,-1
499 554 m 1,116,-1
 368 554 l 1,117,-1
 367 421 l 1,118,-1
 370 288 l 1,119,-1
 493 288 l 1,120,121
 495 319 495 319 497 356 c 128,-1,122
 499 393 499 393 499 428 c 2,123,-1
 499 554 l 1,116,-1
276 554 m 1,124,-1
 132 554 l 1,125,-1
 130 418 l 2,126,127
 130 384 130 384 134 335 c 0,128,129
 135 318 135 318 139 288 c 1,130,-1
 269 288 l 1,131,-1
 275 424 l 1,132,-1
 276 554 l 1,124,-1
848 139 m 0,133,134
 848 171 848 171 845.5 205.5 c 128,-1,135
 843 240 843 240 840 269 c 1,136,-1
 714 269 l 1,137,138
 712 236 712 236 711 216 c 0,139,140
 707 143 707 143 707 117 c 0,141,142
 707 87 707 87 712 39 c 0,143,144
 712 31 712 31 715 17 c 1,145,-1
 839 17 l 1,146,147
 840 33 840 33 841 43 c 0,148,149
 848 116 848 116 848 139 c 0,133,134
258 269 m 1,150,151
 254 240 254 240 253 223 c 0,152,153
 248 171 248 171 248 139 c 0,154,155
 248 110 248 110 250 77.5 c 128,-1,156
 252 45 252 45 254 17 c 1,157,-1
 380 17 l 1,158,159
 383 40 383 40 385.5 67 c 128,-1,160
 388 94 388 94 388 117 c 0,161,162
 388 159 388 159 385.5 197 c 128,-1,163
 383 235 383 235 379 269 c 1,164,-1
 258 269 l 1,150,151
725 554 m 1,165,-1
 594 554 l 1,166,-1
 594 428 l 2,167,168
 594 394 594 394 596 357 c 128,-1,169
 598 320 598 320 600 288 c 1,170,-1
 723 288 l 1,171,-1
 726 421 l 1,172,-1
 725 554 l 1,165,-1
724 580 m 1,173,-1
 720 721 l 1,174,-1
 600 721 l 1,175,-1
 594 580 l 1,176,-1
 724 580 l 1,173,-1
EndSplineSet
EndChar

StartChar: glyph59
Encoding: 126 126 59
Width: 1070
GlyphClass: 2
Flags: W
LayerCount: 2
Fore
SplineSet
806 341 m 1,0,1
 780 376 780 376 768 423 c 128,-1,2
 756 470 756 470 756 522 c 0,3,4
 756 535 756 535 756.5 548 c 128,-1,5
 757 561 757 561 761 593 c 1,6,-1
 581 593 l 1,7,-1
 581 228 l 1,8,-1
 834 228 l 2,9,10
 883 228 883 228 910.5 195.5 c 128,-1,11
 938 163 938 163 938 98 c 0,12,13
 938 64 938 64 934 46.5 c 128,-1,14
 930 29 930 29 920 0 c 1,15,-1
 662 0 l 1,16,17
 648 42 648 42 648 95 c 0,18,19
 648 122 648 122 652 151.5 c 128,-1,20
 656 181 656 181 662 208 c 1,21,-1
 402 208 l 1,22,23
 407 182 407 182 411 149.5 c 128,-1,24
 415 117 415 117 415 88 c 0,25,26
 415 36 415 36 402 0 c 1,27,-1
 143 0 l 1,28,29
 134 29 134 29 131 40 c 0,30,31
 125 65 125 65 125 98 c 0,32,33
 125 163 125 163 152.5 195.5 c 128,-1,34
 180 228 180 228 228 228 c 2,35,-1
 483 228 l 1,36,-1
 483 593 l 1,37,-1
 303 593 l 1,38,39
 303 509 303 509 297 466 c 0,40,41
 286 389 286 389 254 340 c 1,42,-1
 81 340 l 2,43,44
 61 340 61 340 38.5 356 c 128,-1,45
 16 372 16 372 16 391 c 2,46,-1
 16 541 l 2,47,48
 16 568 16 568 38.5 590.5 c 128,-1,49
 61 613 61 613 86 613 c 2,50,-1
 364 613 l 1,51,52
 364 693 364 693 374 733 c 0,53,54
 391 801 391 801 438 801 c 2,55,-1
 625 801 l 2,56,57
 669 801 669 801 686 746 c 0,58,59
 697 710 697 710 697 643 c 2,60,-1
 697 614 l 1,61,-1
 972 614 l 2,62,63
 993 614 993 614 1017.5 590.5 c 128,-1,64
 1042 567 1042 567 1042 542 c 2,65,-1
 1042 392 l 2,66,67
 1042 373 1042 373 1020 357 c 128,-1,68
 998 341 998 341 978 341 c 2,69,-1
 806 341 l 1,0,1
278 209 m 1,70,71
 238 203 238 203 221 182 c 0,72,73
 201 157 201 157 201 107 c 0,74,75
 201 76 201 76 207.5 51.5 c 128,-1,76
 214 27 214 27 223 19 c 1,77,-1
 326 19 l 1,78,79
 338 49 338 49 338 101 c 0,80,81
 338 134 338 134 334 160 c 128,-1,82
 330 186 330 186 319 209 c 1,83,-1
 278 209 l 1,70,71
862 107 m 0,84,85
 862 157 862 157 842.5 180.5 c 128,-1,86
 823 204 823 204 785 209 c 1,87,-1
 742 209 l 1,88,89
 724 168 724 168 724 105 c 0,90,91
 724 53 724 53 737 19 c 1,92,-1
 840 19 l 1,93,94
 847 26 847 26 854.5 51.5 c 128,-1,95
 862 77 862 77 862 107 c 0,84,85
964 464 m 2,96,-1
 964 486 l 2,97,98
 964 529 964 529 958 551 c 0,99,100
 949 585 949 585 921 594 c 1,101,-1
 844 594 l 1,102,103
 842 567 842 567 840.5 542 c 128,-1,104
 839 517 839 517 839 510 c 0,105,106
 839 464 839 464 847 427 c 128,-1,107
 855 390 855 390 878 365 c 1,108,-1
 940 365 l 1,109,110
 956 376 956 376 960 401 c 128,-1,111
 964 426 964 426 964 464 c 2,96,-1
136 593 m 1,112,113
 110 584 110 584 102.5 548 c 128,-1,114
 95 512 95 512 95 463 c 0,115,116
 95 421 95 421 98.5 398.5 c 128,-1,117
 102 376 102 376 118 365 c 1,118,-1
 181 365 l 1,119,120
 201 388 201 388 210 428 c 128,-1,121
 219 468 219 468 219 511 c 0,122,123
 219 544 219 544 217 564.5 c 128,-1,124
 215 585 215 585 214 593 c 1,125,-1
 136 593 l 1,112,113
486 781 m 1,126,127
 465 768 465 768 456.5 728 c 128,-1,128
 448 688 448 688 448 643 c 0,129,130
 448 621 448 621 449 614 c 1,131,-1
 605 614 l 1,132,133
 606 621 606 621 606 630 c 128,-1,134
 606 639 606 639 606 644 c 0,135,136
 606 690 606 690 598.5 729.5 c 128,-1,137
 591 769 591 769 576 781 c 1,138,-1
 486 781 l 1,126,127
EndSplineSet
EndChar

StartChar: cacute
Encoding: 263 263 61
Width: 700
GlyphClass: 2
Flags: W
LayerCount: 2
Fore
SplineSet
17 580 m 1,0,-1
 43 575 l 1,1,-1
 73 574 l 1,2,-1
 88 574 l 2,3,4
 94 574 94 574 100 574 c 0,5,6
 108 576 108 576 111 576 c 2,7,-1
 138 580 l 1,8,9
 135 575 135 575 132 555 c 2,10,-1
 130 510 l 1,11,-1
 131 450 l 1,12,-1
 132 394 l 2,13,14
 132 362 132 362 128 355 c 1,15,-1
 272 355 l 1,16,-1
 270 373 l 1,17,-1
 269 395 l 1,18,-1
 270 451 l 1,19,-1
 271 512 l 1,20,-1
 271 548 l 2,21,22
 271 573 271 573 262 580 c 1,23,-1
 297 575 l 1,24,-1
 335 573 l 1,25,-1
 368 574 l 1,26,-1
 395 580 l 1,27,28
 391 575 391 575 388 556 c 2,29,-1
 386 511 l 1,30,-1
 387 451 l 2,31,32
 387 436 387 436 387 423 c 128,-1,33
 387 410 387 410 389 393 c 0,34,35
 389 360 389 360 385 355 c 1,36,-1
 536 355 l 1,37,-1
 533 380 l 1,38,-1
 533 419 l 1,39,-1
 533 514 l 1,40,-1
 533 535 l 2,41,42
 533 568 533 568 530 580 c 1,43,-1
 572 576 l 1,44,-1
 601 575 l 1,45,-1
 623 576 l 2,46,47
 627 576 627 576 633 576.5 c 128,-1,48
 639 577 639 577 653 580 c 1,49,50
 651 575 651 575 646 542 c 2,51,-1
 643 479 l 1,52,-1
 646 380 l 2,53,54
 646 362 646 362 648.5 347.5 c 128,-1,55
 651 333 651 333 655 322 c 1,56,57
 645 327 645 327 624 327 c 2,58,-1
 562 324 l 1,59,-1
 489 322 l 1,60,61
 494 319 494 319 494 164 c 0,62,63
 494 12 494 12 509 0 c 1,64,-1
 142 0 l 1,65,66
 157 11 157 11 157 111 c 2,67,-1
 162 322 l 1,68,-1
 121 325 l 1,69,-1
 71 326 l 1,70,-1
 41 326 l 2,71,72
 28 326 28 326 13 322 c 1,73,74
 16 328 16 328 21 375 c 2,75,-1
 24 476 l 1,76,-1
 23 545 l 2,77,78
 23 566 23 566 17 580 c 1,0,-1
272 322 m 1,79,-1
 267 280 l 1,80,-1
 265 225 l 2,81,82
 265 208 265 208 266 174 c 128,-1,83
 267 140 267 140 267 122 c 2,84,-1
 272 33 l 1,85,-1
 385 33 l 1,86,-1
 384 51 l 1,87,-1
 388 147 l 1,88,-1
 393 247 l 1,89,-1
 393 269 l 2,90,91
 393 283 393 283 391 295 c 0,92,93
 391 308 391 308 385 322 c 1,94,-1
 272 322 l 1,79,-1
EndSplineSet
EndChar

StartChar: ccaron
Encoding: 269 269 62
Width: 645
GlyphClass: 2
Flags: W
LayerCount: 2
Fore
SplineSet
368 470 m 1,0,1
 364 466 364 466 364 447 c 2,2,-1
 363 422 l 1,3,-1
 364 348 l 1,4,-1
 367 283 l 2,5,6
 367 259 367 259 364 253 c 1,7,-1
 493 253 l 1,8,-1
 490 277 l 1,9,-1
 489 325 l 1,10,-1
 490 402 l 1,11,-1
 493 470 l 1,12,-1
 368 470 l 1,0,1
251 220 m 1,13,-1
 245 196 l 1,14,-1
 243 158 l 1,15,-1
 243 116 l 1,16,-1
 244 76 l 2,17,18
 244 39 244 39 239 33 c 1,19,-1
 370 33 l 1,20,21
 368 37 368 37 367 43 c 128,-1,22
 366 49 366 49 366 65 c 2,23,-1
 368 133 l 1,24,-1
 371 182 l 2,25,26
 371 211 371 211 366 220 c 1,27,-1
 251 220 l 1,13,-1
459 220 m 1,28,29
 473 204 473 204 473 106 c 0,30,31
 473 9 473 9 482 0 c 1,32,-1
 136 0 l 1,33,34
 138 2 138 2 141 15 c 2,35,-1
 142 53 l 1,36,-1
 141 97 l 1,37,-1
 141 143 l 1,38,-1
 142 195 l 2,39,40
 144 212 144 212 150 220 c 1,41,-1
 111 224 l 1,42,-1
 63 226 l 2,43,44
 28 226 28 226 16 220 c 1,45,46
 18 227 18 227 20 262 c 128,-1,47
 22 297 22 297 22 314 c 2,48,-1
 25 480 l 1,49,-1
 25 501 l 1,50,-1
 25 517 l 1,51,-1
 25 529 l 2,52,53
 25 572 25 572 20 580 c 1,54,55
 51 576 51 576 62 575.5 c 128,-1,56
 73 575 73 575 86 575 c 0,57,58
 111 575 111 575 121.5 577 c 128,-1,59
 132 579 132 579 136 580 c 1,60,61
 130 557 130 557 130 532 c 2,62,-1
 133 502 l 1,63,-1
 374 502 l 1,64,-1
 378 525 l 1,65,-1
 380 558 l 1,66,-1
 378 580 l 1,67,-1
 409 576 l 1,68,-1
 440 575 l 2,69,70
 450 575 450 575 462.5 576 c 128,-1,71
 475 577 475 577 487 580 c 1,72,-1
 483 541 l 1,73,-1
 484 518 l 1,74,-1
 487 502 l 1,75,-1
 586 498 l 2,76,77
 594 498 594 498 601 502 c 1,78,79
 599 495 599 495 596.5 475.5 c 128,-1,80
 594 456 594 456 593 445 c 2,81,-1
 590 348 l 1,82,-1
 593 269 l 2,83,84
 593 236 593 236 601 220 c 1,85,-1
 581 224 l 1,86,-1
 550 225 l 1,87,-1
 477 222 l 1,88,-1
 459 220 l 1,28,29
134 470 m 1,89,-1
 131 445 l 1,90,-1
 131 407 l 1,91,-1
 131 335 l 1,92,-1
 131 320 l 1,93,-1
 130 273 l 2,94,95
 130 259 130 259 124 253 c 1,96,-1
 259 253 l 1,97,98
 255 261 255 261 255 295 c 2,99,-1
 256 352 l 2,100,101
 256 367 256 367 256 380.5 c 128,-1,102
 256 394 256 394 258 413 c 0,103,104
 258 459 258 459 251 470 c 1,105,-1
 178 470 l 1,106,-1
 134 470 l 1,89,-1
EndSplineSet
EndChar

StartChar: scaron
Encoding: 353 353 63
Width: 620
GlyphClass: 2
Flags: W
LayerCount: 2
Fore
SplineSet
574 580 m 1,0,1
 568 569 568 569 564.5 535 c 128,-1,2
 561 501 561 501 561 467 c 0,3,4
 561 421 561 421 560 391 c 0,5,6
 556 271 556 271 556 252 c 0,7,8
 556 197 556 197 557 155.5 c 128,-1,9
 558 114 558 114 559 76 c 0,10,11
 559 48 559 48 562.5 27.5 c 128,-1,12
 566 7 566 7 572 0 c 1,13,-1
 2 0 l 1,14,15
 5 11 5 11 7.5 40 c 128,-1,16
 10 69 10 69 10 111 c 2,17,-1
 13 321 l 1,18,-1
 10 496 l 2,19,20
 10 531 10 531 7 552.5 c 128,-1,21
 4 574 4 574 0 580 c 1,22,-1
 110 580 l 1,23,24
 107 571 107 571 107 523 c 2,25,-1
 111 344 l 1,26,-1
 115 147 l 1,27,-1
 115 86 l 2,28,29
 115 44 115 44 106 33 c 1,30,-1
 234 33 l 1,31,-1
 231 64 l 1,32,-1
 230 128 l 1,33,-1
 232 354 l 1,34,-1
 235 503 l 1,35,-1
 235 517 l 1,36,-1
 235 529 l 2,37,38
 235 568 235 568 232 580 c 1,39,-1
 263 582 l 1,40,-1
 303 581 l 1,41,-1
 341 580 l 1,42,43
 339 572 339 572 337 538 c 128,-1,44
 335 504 335 504 335 489 c 2,45,-1
 333 308 l 1,46,-1
 334 115 l 2,47,48
 334 51 334 51 339 33 c 1,49,-1
 455 33 l 1,50,51
 457 47 457 47 460 96 c 128,-1,52
 463 145 463 145 463 167 c 2,53,-1
 468 380 l 2,54,55
 468 410 468 410 466 456 c 128,-1,56
 464 502 464 502 464 517 c 0,57,58
 464 542 464 542 461 557.5 c 128,-1,59
 458 573 458 573 453 580 c 1,60,-1
 574 580 l 1,0,1
EndSplineSet
EndChar

StartChar: zcaron
Encoding: 382 382 64
Width: 875
GlyphClass: 2
Flags: W
LayerCount: 2
Fore
SplineSet
732 33 m 1,0,1
 723 141 723 141 719.5 214.5 c 128,-1,2
 716 288 716 288 716 353 c 0,3,4
 716 451 716 451 725 547 c 1,5,-1
 581 547 l 1,6,7
 581 359 581 359 588 234 c 128,-1,8
 595 109 595 109 615 33 c 1,9,-1
 732 33 l 1,0,1
95 547 m 1,10,11
 102 531 102 531 106 472.5 c 128,-1,12
 110 414 110 414 110 348 c 0,13,14
 110 261 110 261 105 170.5 c 128,-1,15
 100 80 100 80 92 33 c 1,16,-1
 213 33 l 1,17,18
 232 105 232 105 239.5 240.5 c 128,-1,19
 247 376 247 376 247 547 c 1,20,-1
 95 547 l 1,10,11
0 580 m 1,21,-1
 358 580 l 1,22,23
 315 650 315 650 283 697 c 0,24,25
 248 749 248 749 230 767 c 1,26,27
 177 767 177 767 120 768 c 128,-1,28
 63 769 63 769 14 770 c 1,29,30
 17 781 17 781 17 788 c 0,31,32
 17 792 17 792 14 800 c 1,33,-1
 340 800 l 1,34,-1
 426 662 l 1,35,36
 453 698 453 698 466 718 c 0,37,38
 507 778 507 778 512 800 c 1,39,-1
 814 800 l 1,40,41
 812 791 812 791 811 782 c 0,42,43
 811 778 811 778 814 772 c 1,44,45
 786 772 786 772 759.5 772 c 128,-1,46
 733 772 733 772 708 773 c 0,47,48
 643 773 643 773 614 767 c 0,49,50
 601 767 601 767 537.5 685.5 c 128,-1,51
 474 604 474 604 466 580 c 1,52,-1
 828 580 l 1,53,-1
 828 0 l 1,54,-1
 516 0 l 1,55,56
 497 142 497 142 490.5 262.5 c 128,-1,57
 484 383 484 383 484 547 c 1,58,-1
 344 547 l 1,59,60
 344 364 344 364 338.5 259 c 128,-1,61
 333 154 333 154 312 0 c 1,62,-1
 0 0 l 1,63,-1
 0 580 l 1,21,-1
EndSplineSet
EndChar

StartChar: quotesingle
Encoding: 61479 61479 65
Width: 305
GlyphClass: 2
Flags: W
LayerCount: 2
Fore
SplineSet
273 580 m 1,0,-1
 273 564 l 2,1,2
 273 558 273 558 286 539 c 1,3,-1
 259 547 l 1,4,-1
 232 550 l 1,5,-1
 205 547 l 1,6,-1
 205 466 l 2,7,8
 205 439 205 439 215 423 c 2,9,-1
 231 397 l 1,10,11
 225 400 225 400 207 402 c 0,12,13
 153 402 153 402 108 317 c 1,14,-1
 108 547 l 1,15,-1
 78 550 l 2,16,17
 54 550 54 550 38 545 c 0,18,19
 33 545 33 545 22 539 c 1,20,-1
 32 562 l 1,21,-1
 37 580 l 1,22,-1
 273 580 l 1,0,-1
EndSplineSet
EndChar

StartChar: plus
Encoding: 61483 61483 66
Width: 808
GlyphClass: 2
Flags: W
LayerCount: 2
Fore
SplineSet
271 651 m 1,0,1
 354 638 354 638 379 638 c 0,2,3
 397 638 397 638 410 640 c 128,-1,4
 423 642 423 642 430 643 c 2,5,-1
 477 651 l 1,6,7
 441 629 441 629 425 541 c 0,8,9
 420 513 420 513 417 477.5 c 128,-1,10
 414 442 414 442 414 401 c 2,11,-1
 414 369 l 1,12,-1
 415 354 l 1,13,-1
 436 353 l 1,14,-1
 461 353 l 2,15,16
 546 353 546 353 599 361 c 0,17,18
 690 373 690 373 737 404 c 1,19,-1
 727 349 l 1,20,-1
 723 306 l 2,21,22
 723 282 723 282 732 222 c 1,23,24
 688 255 688 255 632 270 c 128,-1,25
 576 285 576 285 522 285 c 0,26,27
 485 285 485 285 446 279 c 2,28,-1
 415 273 l 1,29,-1
 414 259 l 1,30,-1
 414 239 l 2,31,32
 414 176 414 176 422 126 c 128,-1,33
 430 76 430 76 441 39 c 128,-1,34
 452 2 452 2 470 -32 c 1,35,36
 420 -18 420 -18 381 -18 c 0,37,38
 361 -18 361 -18 337.5 -21 c 128,-1,39
 314 -24 314 -24 282 -32 c 1,40,41
 314 28 314 28 329 119 c 0,42,43
 338 175 338 175 338 240 c 2,44,-1
 338 259 l 1,45,-1
 337 273 l 1,46,-1
 312 277 l 1,47,-1
 248 281 l 2,48,49
 186 281 186 281 128.5 267.5 c 128,-1,50
 71 254 71 254 20 214 c 1,51,-1
 21 271 l 1,52,-1
 22 313 l 2,53,54
 22 348 22 348 15 396 c 1,55,56
 53 371 53 371 129 359 c 0,57,58
 156 355 156 355 185 353 c 128,-1,59
 214 351 214 351 254 351 c 2,60,-1
 306 351 l 1,61,-1
 337 354 l 1,62,-1
 337 367 l 1,63,-1
 338 386 l 1,64,65
 338 470 338 470 327 529 c 0,66,67
 311 625 311 625 271 651 c 1,0,1
EndSplineSet
EndChar

StartChar: comma
Encoding: 61484 61484 67
Width: 278
GlyphClass: 2
Flags: W
LayerCount: 2
Fore
SplineSet
87 0 m 1,0,-1
 87 106 l 1,1,-1
 191 106 l 1,2,-1
 191 8 l 2,3,4
 191 -79 191 -79 147 -119 c 0,5,6
 124 -141 124 -141 87 -147 c 1,7,-1
 87 -101 l 1,8,9
 115 -98 115 -98 127.5 -70 c 128,-1,10
 140 -42 140 -42 140 0 c 1,11,-1
 87 0 l 1,0,-1
EndSplineSet
EndChar

StartChar: hyphen
Encoding: 61485 61485 68
Width: 500
GlyphClass: 2
Flags: W
LayerCount: 2
Fore
SplineSet
100 240 m 1,0,-1
 100 300 l 1,1,-1
 400 300 l 1,2,-1
 400 240 l 1,3,-1
 100 240 l 1,0,-1
EndSplineSet
EndChar

StartChar: period
Encoding: 61486 61486 69
Width: 500
GlyphClass: 2
Flags: W
LayerCount: 2
Fore
SplineSet
502 321 m 1,0,1
 466 291 466 291 440 265 c 2,2,-1
 387 205 l 1,3,4
 357 244 357 244 331 270 c 0,5,6
 321 280 321 280 300 298 c 0,7,8
 285 311 285 311 272 321 c 1,9,10
 311 351 311 351 334 374 c 128,-1,11
 357 397 357 397 387 436 c 1,12,-1
 440 376 l 2,13,14
 464 352 464 352 502 321 c 1,0,1
EndSplineSet
EndChar

StartChar: slash
Encoding: 61487 61487 70
Width: 720
GlyphClass: 2
Flags: W
LayerCount: 2
Fore
SplineSet
439 547 m 1,0,-1
 442 523 l 1,1,-1
 443 473 l 1,2,-1
 440 292 l 1,3,-1
 438 157 l 1,4,-1
 439 99 l 2,5,6
 439 77 439 77 443 72 c 1,7,-1
 559 126 l 2,8,9
 561 129 561 129 562.5 143 c 128,-1,10
 564 157 564 157 564 174 c 2,11,-1
 565 292 l 1,12,-1
 564 441 l 2,13,14
 564 458 564 458 563 493 c 128,-1,15
 562 528 562 528 562 545 c 1,16,-1
 439 547 l 1,0,-1
243 547 m 1,17,-1
 245 521 l 2,18,19
 245 476 245 476 238 395 c 2,20,-1
 225 211 l 2,21,22
 225 175 225 175 222 123 c 128,-1,23
 219 71 219 71 219 55 c 0,24,25
 219 -12 219 -12 226 -40 c 1,26,-1
 292 -7 l 1,27,-1
 343 18 l 1,28,-1
 346 178 l 1,29,-1
 352 400 l 2,30,31
 352 458 352 458 353.5 493.5 c 128,-1,32
 355 529 355 529 358 547 c 1,33,-1
 243 547 l 1,17,-1
23 -200 m 1,34,-1
 27 -173 l 1,35,-1
 21 -135 l 1,36,-1
 126 -84 l 1,37,38
 126 -42 126 -42 128 -5 c 0,39,40
 135 123 135 123 135 141 c 2,41,-1
 154 380 l 1,42,-1
 164 538 l 2,43,44
 164 572 164 572 159 580 c 1,45,-1
 664 580 l 1,46,47
 661 575 661 575 658.5 555.5 c 128,-1,48
 656 536 656 536 656 507 c 2,49,-1
 653 357 l 2,50,51
 653 310 653 310 654 268.5 c 128,-1,52
 655 227 655 227 659.5 175 c 128,-1,53
 664 123 664 123 676 111 c 1,54,-1
 664 112 l 1,55,56
 603 112 603 112 455 41 c 0,57,58
 330 -19 330 -19 194 -99 c 2,59,-1
 23 -200 l 1,34,-1
EndSplineSet
EndChar

StartChar: semicolon
Encoding: 61499 61499 71
Width: 700
GlyphClass: 2
Flags: W
LayerCount: 2
Fore
SplineSet
218 547 m 1,0,-1
 220 529 l 2,1,2
 220 500 220 500 208 398 c 2,3,-1
 198 290 l 1,4,-1
 386 290 l 1,5,-1
 387 304 l 2,6,7
 387 338 387 338 372.5 415 c 128,-1,8
 358 492 358 492 340 547 c 1,9,-1
 218 547 l 1,0,-1
524 257 m 1,10,-1
 396 257 l 1,11,-1
 397 240 l 1,12,-1
 397 224 l 1,13,-1
 396 165 l 1,14,-1
 395 103 l 2,15,16
 395 41 395 41 402 33 c 1,17,-1
 533 33 l 1,18,19
 536 39 536 39 536 62 c 0,20,21
 536 87 536 87 536 112 c 0,22,23
 533 137 533 137 532 149 c 2,24,-1
 524 257 l 1,10,-1
446 580 m 1,25,26
 442 574 442 574 442 553 c 0,27,28
 442 497 442 497 461.5 399 c 128,-1,29
 481 301 481 301 492 290 c 1,30,-1
 627 290 l 1,31,32
 620 279 620 279 620 210 c 0,33,34
 620 152 620 152 621.5 131 c 128,-1,35
 623 110 623 110 629.5 62.5 c 128,-1,36
 636 15 636 15 653 0 c 1,37,-1
 463 0 l 1,38,-1
 234 0 l 1,39,-1
 32 0 l 1,40,41
 53 53 53 53 90 261 c 128,-1,42
 127 469 127 469 127 550 c 0,43,44
 127 571 127 571 124 580 c 1,45,-1
 446 580 l 1,25,26
192 259 m 1,46,47
 192 249 192 249 170 143 c 2,48,-1
 149 33 l 1,49,-1
 291 33 l 2,50,51
 296 35 296 35 299 60 c 2,52,-1
 301 120 l 1,53,-1
 299 201 l 1,54,-1
 297 257 l 1,55,-1
 192 259 l 1,46,47
EndSplineSet
EndChar

StartChar: less
Encoding: 61500 61500 72
Width: 0
GlyphClass: 2
Flags: W
LayerCount: 2
Fore
SplineSet
158 680 m 1,0,1
 201 680 201 680 379 732 c 0,2,3
 468 757 468 757 527 757 c 2,4,-1
 588 756 l 2,5,6
 609 756 609 756 619 754 c 2,7,-1
 629 755 l 1,8,-1
 627 739 l 1,9,-1
 627 717 l 2,10,11
 627 669 627 669 629 662 c 1,12,-1
 511 662 l 1,13,14
 515 666 515 666 515 689 c 2,15,-1
 518 731 l 1,16,17
 477 731 477 731 443 726 c 128,-1,18
 409 721 409 721 369 708 c 2,19,-1
 259 674 l 1,20,-1
 180 661 l 2,21,22
 138 657 138 657 130 656 c 0,23,24
 110 656 110 656 101 656 c 2,25,-1
 68 657 l 2,26,27
 54 657 54 657 47 659 c 1,28,29
 50 662 50 662 50 689 c 2,30,-1
 49 720 l 1,31,-1
 48 747 l 1,32,-1
 163 747 l 1,33,-1
 158 680 l 1,0,1
EndSplineSet
EndChar

StartChar: equal
Encoding: 61501 61501 73
Width: 0
GlyphClass: 2
Flags: W
LayerCount: 2
Fore
SplineSet
128 680 m 1,0,1
 175 689 175 689 234 735 c 0,2,3
 260 755 260 755 277 755 c 2,4,-1
 365 754 l 1,5,-1
 379 755 l 1,6,-1
 377 739 l 1,7,-1
 377 717 l 2,8,9
 377 669 377 669 379 662 c 1,10,-1
 261 662 l 1,11,12
 263 664 263 664 264 670 c 128,-1,13
 265 676 265 676 265 690 c 2,14,-1
 268 732 l 1,15,16
 253 727 253 727 224 705 c 128,-1,17
 195 683 195 683 164 672 c 2,18,-1
 112 659 l 1,19,-1
 73 655 l 1,20,-1
 44 658 l 2,21,22
 29 661 29 661 17 659 c 1,23,24
 20 662 20 662 20 689 c 2,25,-1
 19 720 l 1,26,-1
 18 747 l 1,27,-1
 133 747 l 1,28,-1
 128 680 l 1,0,1
EndSplineSet
EndChar

StartChar: greater
Encoding: 61502 61502 74
Width: 0
GlyphClass: 2
Flags: W
LayerCount: 2
Fore
SplineSet
159 686 m 1,0,1
 204 686 204 686 247.5 690 c 128,-1,2
 291 694 291 694 335 703 c 2,3,-1
 508 739 l 2,4,5
 552 748 552 748 594.5 753 c 128,-1,6
 637 758 637 758 680 758 c 2,7,-1
 741 757 l 2,8,9
 762 757 762 757 772 755 c 2,10,-1
 782 756 l 1,11,-1
 780 740 l 1,12,-1
 780 718 l 2,13,14
 780 670 780 670 782 663 c 1,15,-1
 664 663 l 1,16,17
 668 667 668 667 668 690 c 2,18,-1
 671 732 l 1,19,20
 653 736 653 736 643.5 736.5 c 128,-1,21
 634 737 634 737 628 737 c 0,22,23
 581 737 581 737 499 718 c 2,24,-1
 332 682 l 2,25,26
 249 664 249 664 201 664 c 2,27,-1
 172 664 l 1,28,-1
 146 664 l 1,29,-1
 126 664 l 1,30,-1
 111 664 l 1,31,-1
 100 664 l 1,32,-1
 71 664 l 1,33,-1
 48 665 l 1,34,35
 51 668 51 668 51 695 c 2,36,-1
 50 726 l 1,37,-1
 49 753 l 1,38,-1
 164 753 l 1,39,-1
 159 686 l 1,0,1
EndSplineSet
EndChar

StartChar: B
Encoding: 61506 61506 75
Width: 770
GlyphClass: 2
Flags: W
LayerCount: 2
Fore
SplineSet
89 35 m 1,0,1
 106 30 106 30 174 24 c 2,2,-1
 280 19 l 1,3,-1
 303 19 l 1,4,-1
 314 20 l 1,5,-1
 314 255 l 1,6,-1
 23 256 l 1,7,8
 29 264 29 264 48 327 c 2,9,-1
 73 415 l 1,10,-1
 93 487 l 2,11,12
 107 541 107 541 107 561 c 0,13,14
 107 576 107 576 101 582 c 1,15,-1
 136 580 l 1,16,-1
 165 578 l 1,17,-1
 236 581 l 1,18,19
 233 577 233 577 224 554 c 128,-1,20
 215 531 215 531 210 518 c 2,21,-1
 178 414 l 1,22,-1
 159 341 l 2,23,24
 153 317 153 317 153 296 c 1,25,-1
 591 296 l 1,26,-1
 561 412 l 2,27,28
 551 449 551 449 543 472 c 0,29,30
 539 482 539 482 526 514 c 0,31,32
 505 572 505 572 497 582 c 1,33,-1
 531 579 l 1,34,-1
 567 576 l 1,35,-1
 600 578 l 1,36,-1
 632 581 l 1,37,38
 628 575 628 575 628 570 c 0,39,40
 628 550 628 550 646 482 c 2,41,-1
 667 408 l 1,42,-1
 694 309 l 2,43,44
 706 267 706 267 718 255 c 1,45,-1
 420 255 l 1,46,-1
 420 21 l 1,47,48
 437 21 437 21 445 19 c 2,49,-1
 467 19 l 1,50,-1
 480 19 l 1,51,-1
 492 19 l 2,52,53
 536 19 536 19 571 23 c 0,54,55
 596 23 596 23 610 25.5 c 128,-1,56
 624 28 624 28 644 35 c 1,57,-1
 617 16 l 2,58,59
 607 11 607 11 599 -1 c 1,60,-1
 128 0 l 1,61,62
 124 12 124 12 106 25 c 2,63,-1
 89 35 l 1,0,1
EndSplineSet
EndChar

StartChar: C
Encoding: 61507 61507 76
Width: 874
GlyphClass: 2
Flags: W
LayerCount: 2
Fore
SplineSet
838 255 m 1,0,-1
 490 255 l 1,1,-1
 490 23 l 1,2,-1
 505 22 l 2,3,4
 537 22 537 22 578 26.5 c 128,-1,5
 619 31 619 31 635.5 34 c 128,-1,6
 652 37 652 37 665 42 c 1,7,-1
 651 -1 l 1,8,-1
 199 -1 l 1,9,-1
 192 41 l 1,10,11
 219 32 219 32 280 26 c 2,12,-1
 364 20 l 1,13,-1
 364 255 l 1,14,-1
 23 256 l 1,15,16
 25 262 25 262 27 277.5 c 128,-1,17
 29 293 29 293 29 301 c 2,18,-1
 31 415 l 1,19,-1
 31 442 l 1,20,-1
 32 474 l 2,21,22
 32 518 32 518 28.5 546 c 128,-1,23
 25 574 25 574 14 582 c 1,24,-1
 78 581 l 2,25,26
 91 581 91 581 118.5 580 c 128,-1,27
 146 579 146 579 160 579 c 2,28,-1
 181 580 l 1,29,-1
 373 581 l 1,30,31
 371 575 371 575 371 570 c 0,32,33
 367 550 367 550 366 534 c 2,34,-1
 363 442 l 2,35,36
 363 394 363 394 367 383 c 1,37,-1
 488 383 l 1,38,-1
 491 410 l 1,39,-1
 492 463 l 2,40,41
 492 475 492 475 491 500 c 128,-1,42
 490 525 490 525 490 538 c 0,43,44
 490 573 490 573 486 581 c 1,45,-1
 665 580 l 1,46,-1
 840 581 l 1,47,48
 834 580 834 580 830 553 c 2,49,-1
 828 479 l 1,50,-1
 828 408 l 1,51,-1
 828 309 l 2,52,53
 828 268 828 268 838 255 c 1,0,-1
146 560 m 1,54,55
 143 554 143 554 138 512 c 2,56,-1
 135 422 l 1,57,-1
 138 338 l 2,58,59
 138 320 138 320 140.5 306 c 128,-1,60
 143 292 143 292 148 276 c 1,61,-1
 717 276 l 1,62,-1
 720 307 l 2,63,64
 723 337 723 337 723 392 c 0,65,66
 723 414 723 414 722 451 c 128,-1,67
 721 488 721 488 721 502 c 0,68,69
 721 546 721 546 714 560 c 1,70,-1
 598 560 l 1,71,-1
 598 492 l 1,72,-1
 599 388 l 2,73,74
 599 371 599 371 606 364 c 1,75,-1
 259 364 l 1,76,77
 261 366 261 366 264 385 c 2,78,-1
 265 437 l 2,79,80
 265 450 265 450 264 476 c 128,-1,81
 263 502 263 502 263 515 c 0,82,83
 263 553 263 553 258 560 c 1,84,-1
 146 560 l 1,54,55
EndSplineSet
EndChar

StartChar: D
Encoding: 61508 61508 77
Width: 465
GlyphClass: 2
Flags: W
LayerCount: 2
Fore
SplineSet
152 0 m 1,0,-1
 38 0 l 1,1,-1
 43 31 l 1,2,-1
 44 71 l 1,3,-1
 42 137 l 1,4,-1
 40 188 l 2,5,6
 40 268 40 268 62 308 c 0,7,8
 92 362 92 362 173 377 c 1,9,-1
 173 500 l 1,10,-1
 43 500 l 1,11,12
 44 511 44 511 40 529 c 2,13,-1
 37 536 l 1,14,-1
 101 532 l 1,15,-1
 150 531 l 1,16,-1
 163 531 l 2,17,18
 172 531 172 531 174 533 c 2,19,-1
 173 562 l 2,20,21
 173 577 173 577 161 580 c 1,22,-1
 294 580 l 1,23,24
 286 580 286 580 283 565 c 2,25,-1
 282 533 l 1,26,-1
 290 532 l 1,27,-1
 304 532 l 1,28,-1
 355 533 l 1,29,-1
 407 536 l 1,30,-1
 405 527 l 1,31,-1
 404 517 l 2,32,33
 404 505 404 505 406 500 c 1,34,-1
 280 500 l 1,35,-1
 280 377 l 1,36,37
 389 352 389 352 402 234 c 2,38,-1
 424 0 l 1,39,-1
 310 0 l 1,40,41
 312 2 312 2 315 29 c 2,42,-1
 317 88 l 1,43,-1
 315 200 l 1,44,-1
 313 284 l 2,45,46
 313 319 313 319 289 343 c 0,47,48
 264 365 264 365 233 365 c 0,49,50
 156 365 156 365 149 289 c 1,51,-1
 147 206 l 1,52,-1
 145 92 l 2,53,54
 145 18 145 18 152 0 c 1,0,-1
EndSplineSet
EndChar

StartChar: I
Encoding: 61513 61513 78
Width: 885
GlyphClass: 2
Flags: W
LayerCount: 2
Fore
SplineSet
129 547 m 1,0,1
 128 543 128 543 126 527 c 128,-1,2
 124 511 124 511 124 493 c 2,3,-1
 122 397 l 1,4,-1
 123 323 l 2,5,6
 123 301 123 301 129 295 c 1,7,-1
 259 295 l 2,8,9
 260 298 260 298 262.5 318.5 c 128,-1,10
 265 339 265 339 265 354 c 2,11,-1
 268 449 l 1,12,-1
 268 477 l 2,13,14
 268 489 268 489 268 502 c 0,15,16
 266 511 266 511 266 515 c 0,17,18
 266 538 266 538 259 547 c 1,19,-1
 129 547 l 1,0,1
599 547 m 2,20,21
 597 545 597 545 595.5 533 c 128,-1,22
 594 521 594 521 594 504 c 2,23,-1
 592 424 l 1,24,-1
 592 350 l 2,25,26
 592 309 592 309 599 295 c 1,27,-1
 718 295 l 1,28,29
 722 302 722 302 725 336 c 2,30,-1
 727 419 l 1,31,-1
 727 453 l 2,32,33
 727 465 727 465 727 478 c 0,34,35
 725 494 725 494 725 501 c 0,36,37
 725 533 725 533 718 547 c 1,38,-1
 599 547 l 2,20,21
368 547 m 1,39,40
 364 541 364 541 359 499 c 2,41,-1
 355 409 l 1,42,-1
 358 338 l 2,43,44
 361 308 361 308 368 295 c 1,45,-1
 484 295 l 1,46,-1
 491 350 l 1,47,-1
 493 408 l 1,48,-1
 490 477 l 1,49,-1
 484 547 l 1,50,-1
 368 547 l 1,39,40
192 0 m 1,51,-1
 185 12 l 2,52,53
 179 28 179 28 162 42 c 1,54,-1
 205 33 l 1,55,-1
 251 31 l 1,56,-1
 312 32 l 1,57,-1
 370 33 l 1,58,-1
 370 80 l 1,59,-1
 370 106 l 1,60,-1
 370 130 l 1,61,-1
 370 177 l 2,62,63
 370 191 370 191 370 206 c 0,64,65
 368 222 368 222 368 227 c 0,66,67
 368 239 368 239 366 248 c 128,-1,68
 364 257 364 257 362 262 c 1,69,-1
 17 262 l 1,70,-1
 25 374 l 1,71,-1
 29 465 l 1,72,-1
 26 530 l 2,73,74
 26 541 26 541 25 549 c 128,-1,75
 24 557 24 557 17 580 c 1,76,-1
 844 580 l 1,77,78
 838 574 838 574 830 510 c 0,79,80
 830 485 830 485 827.5 437.5 c 128,-1,81
 825 390 825 390 825 377 c 2,82,-1
 828 299 l 2,83,84
 831 265 831 265 836 259 c 1,85,-1
 476 259 l 1,86,-1
 472 215 l 1,87,-1
 470 147 l 1,88,-1
 471 69 l 2,89,90
 471 43 471 43 476 33 c 1,91,-1
 533 32 l 1,92,-1
 581 32 l 1,93,-1
 601 32 l 2,94,95
 608 32 608 32 616 32 c 0,96,97
 626 34 626 34 630 34 c 0,98,99
 646 34 646 34 680 42 c 1,100,101
 667 33 667 33 663 20.5 c 128,-1,102
 659 8 659 8 653 0 c 1,103,-1
 192 0 l 1,51,-1
EndSplineSet
EndChar

StartChar: J
Encoding: 61514 61514 79
Width: 830
GlyphClass: 2
Flags: W
LayerCount: 2
Fore
SplineSet
295 532 m 1,0,-1
 260 542 l 2,1,2
 221 554 221 554 208 564 c 1,3,-1
 133 563 l 1,4,5
 125 542 125 542 118 492 c 128,-1,6
 111 442 111 442 111 386 c 0,7,8
 111 362 111 362 112 341.5 c 128,-1,9
 113 321 113 321 117.5 298 c 128,-1,10
 122 275 122 275 132 259 c 0,11,12
 142 246 142 246 158 239 c 1,13,14
 177 279 177 279 211 305 c 128,-1,15
 245 331 245 331 295 331 c 0,16,17
 347 331 347 331 379 305 c 0,18,19
 405 285 405 285 425 239 c 1,20,21
 440 243 440 243 452 257.5 c 128,-1,22
 464 272 464 272 473 305 c 128,-1,23
 482 338 482 338 482 390 c 0,24,25
 482 446 482 446 475.5 492 c 128,-1,26
 469 538 469 538 457 563 c 1,27,-1
 380 564 l 1,28,29
 368 555 368 555 330 542 c 2,30,-1
 295 532 l 1,0,-1
573 374 m 0,31,32
 561 305 561 305 530.5 268.5 c 128,-1,33
 500 232 500 232 434 217 c 1,34,35
 442 189 442 189 447 159 c 128,-1,36
 452 129 452 129 452 89 c 256,37,38
 452 49 452 49 455.5 27 c 128,-1,39
 459 5 459 5 464 0 c 1,40,-1
 108 0 l 1,41,42
 112 4 112 4 118 50 c 0,43,44
 130 165 130 165 149 217 c 1,45,46
 89 232 89 232 59 270 c 128,-1,47
 29 308 29 308 17 374 c 2,48,-1
 15 389 l 1,49,-1
 15 401 l 2,50,51
 15 428 15 428 27 479 c 128,-1,52
 39 530 39 530 39 556 c 2,53,-1
 39 578 l 1,54,-1
 35 593 l 1,55,-1
 181 593 l 1,56,57
 161 624 161 624 152 692 c 0,58,59
 140 800 140 800 130 800 c 1,60,-1
 457 800 l 1,61,62
 445 801 445 801 441 757 c 1,63,64
 441 698 441 698 432 658.5 c 128,-1,65
 423 619 423 619 407 593 c 1,66,-1
 555 593 l 1,67,-1
 551 555 l 2,68,69
 551 533 551 533 567 460 c 0,70,71
 571 440 571 440 573 427.5 c 128,-1,72
 575 415 575 415 575 401 c 2,73,-1
 575 389 l 2,74,75
 575 385 575 385 575 381 c 0,76,77
 573 376 573 376 573 374 c 0,31,32
371 33 m 1,78,79
 371 69 371 69 368 105.5 c 128,-1,80
 365 142 365 142 363 163 c 0,81,82
 363 226 363 226 345.5 265.5 c 128,-1,83
 328 305 328 305 295 324 c 1,84,85
 248 298 248 298 227 212 c 1,86,87
 220 139 220 139 217 112.5 c 128,-1,88
 214 86 214 86 207 33 c 1,89,-1
 371 33 l 1,78,79
295 539 m 1,90,91
 331 551 331 551 346 600 c 0,92,93
 356 637 356 637 356 693 c 2,94,-1
 355 715 l 1,95,-1
 355 737 l 2,96,97
 355 761 355 761 361 767 c 1,98,-1
 229 767 l 1,99,100
 229 739 229 739 230 711 c 128,-1,101
 231 683 231 683 234 657 c 0,102,103
 243 558 243 558 295 539 c 1,90,91
783 371 m 1,104,-1
 731 325 l 1,105,-1
 688 275 l 1,106,107
 658 314 658 314 642 330 c 2,108,-1
 593 371 l 1,109,-1
 645 414 l 1,110,-1
 688 466 l 1,111,-1
 731 416 l 1,112,-1
 783 371 l 1,104,-1
EndSplineSet
EndChar

StartChar: L
Encoding: 61516 61516 80
Width: 925
GlyphClass: 2
Flags: W
LayerCount: 2
Fore
SplineSet
300 754 m 1,0,-1
 159 754 l 1,1,2
 162 739 162 739 162 715 c 0,3,4
 162 701 162 701 161 677.5 c 128,-1,5
 160 654 160 654 157 624 c 2,6,-1
 153 550 l 1,7,-1
 291 550 l 1,8,-1
 288 610 l 1,9,-1
 286 674 l 2,10,11
 286 690 286 690 286 703.5 c 128,-1,12
 286 717 286 717 288.5 732.5 c 128,-1,13
 291 748 291 748 300 754 c 1,0,-1
402 517 m 1,14,-1
 402 303 l 1,15,-1
 523 303 l 1,16,-1
 522 356 l 1,17,-1
 517 460 l 2,18,19
 517 506 517 506 524 517 c 1,20,-1
 402 517 l 1,14,-1
28 0 m 1,21,-1
 33 151 l 1,22,-1
 45 490 l 1,23,-1
 52 754 l 1,24,-1
 52 777 l 2,25,26
 52 792 52 792 50 800 c 1,27,-1
 413 800 l 1,28,29
 407 797 407 797 403.5 768 c 128,-1,30
 400 739 400 739 400 693 c 2,31,-1
 400 624 l 1,32,-1
 401 550 l 1,33,-1
 633 550 l 1,34,35
 630 539 630 539 628 526.5 c 128,-1,36
 626 514 626 514 626 497 c 2,37,-1
 631 397 l 1,38,-1
 633 303 l 1,39,-1
 729 303 l 2,40,41
 819 303 819 303 850 217 c 1,42,-1
 885 0 l 1,43,-1
 525 0 l 1,44,45
 529 12 529 12 529 36 c 2,46,-1
 530 70 l 1,47,-1
 527 189 l 1,48,-1
 525 270 l 1,49,-1
 406 270 l 1,50,-1
 405 216 l 1,51,-1
 405 141 l 1,52,-1
 406 40 l 2,53,54
 406 26 406 26 408 15 c 128,-1,55
 410 4 410 4 412 0 c 1,56,-1
 293 0 l 1,57,58
 295 6 295 6 297 21.5 c 128,-1,59
 299 37 299 37 299 45 c 2,60,-1
 301 137 l 1,61,-1
 298 325 l 1,62,-1
 294 504 l 1,63,-1
 294 517 l 1,64,-1
 151 517 l 1,65,66
 151 499 151 499 149 447 c 128,-1,67
 147 395 147 395 147 378 c 2,68,-1
 136 102 l 2,69,70
 136 11 136 11 147 0 c 1,71,-1
 28 0 l 1,21,-1
694 270 m 2,72,-1
 634 270 l 1,73,-1
 634 206 l 1,74,-1
 634 117 l 1,75,-1
 634 52 l 1,76,-1
 633 33 l 1,77,-1
 758 33 l 1,78,-1
 758 80 l 1,79,-1
 759 128 l 2,80,81
 759 199 759 199 749 228 c 0,82,83
 734 270 734 270 694 270 c 2,72,-1
EndSplineSet
EndChar

StartChar: N
Encoding: 61518 61518 81
Width: 590
GlyphClass: 2
Flags: W
LayerCount: 2
Fore
SplineSet
538 386 m 2,0,1
 538 363 538 363 526 339 c 0,2,3
 485 259 485 259 349 259 c 1,4,5
 355 194 355 194 376.5 107 c 128,-1,6
 398 20 398 20 415 0 c 1,7,-1
 294 0 l 1,8,9
 297 3 297 3 297 14 c 0,10,11
 297 40 297 40 282 108 c 2,12,-1
 247 257 l 1,13,-1
 129 257 l 1,14,15
 134 243 134 243 137 206 c 2,16,-1
 139 140 l 1,17,-1
 138 99 l 1,18,-1
 138 70 l 2,19,20
 138 56 138 56 138 44.5 c 128,-1,21
 138 33 138 33 140 19 c 128,-1,22
 142 5 142 5 148 0 c 1,23,-1
 24 -2 l 1,24,25
 27 0 27 0 30 10 c 128,-1,26
 33 20 33 20 33 39 c 2,27,-1
 37 134 l 1,28,-1
 37 149 l 1,29,-1
 37 162 l 2,30,31
 37 209 37 209 33 238 c 0,32,33
 33 257 33 257 30 269 c 128,-1,34
 27 281 27 281 22 288 c 1,35,-1
 240 290 l 1,36,-1
 221 427 l 2,37,38
 203 559 203 559 190 580 c 1,39,-1
 555 580 l 1,40,41
 544 573 544 573 538 547 c 1,42,-1
 534 485 l 1,43,-1
 535 428 l 1,44,-1
 538 386 l 2,0,1
344 288 m 1,45,46
 400 288 400 288 422 332 c 0,47,48
 430 348 430 348 434 370 c 128,-1,49
 438 392 438 392 438 427 c 2,50,-1
 438 440 l 2,51,52
 436 457 436 457 436 466 c 2,53,-1
 436 483 l 2,54,55
 436 490 436 490 436 498 c 0,56,57
 434 510 434 510 434 515 c 0,58,59
 434 543 434 543 443 549 c 1,60,-1
 292 549 l 1,61,62
 304 543 304 543 317 460 c 2,63,-1
 344 288 l 1,45,46
EndSplineSet
EndChar

StartChar: O
Encoding: 61519 61519 82
Width: 870
GlyphClass: 2
Flags: W
LayerCount: 2
Fore
SplineSet
255 547 m 1,0,-1
 140 547 l 1,1,-1
 136 459 l 1,2,-1
 132 302 l 1,3,-1
 132 261 l 2,4,5
 132 243 132 243 136 238 c 1,6,-1
 709 238 l 1,7,-1
 712 268 l 1,8,-1
 713 332 l 1,9,-1
 712 448 l 1,10,-1
 709 552 l 1,11,-1
 593 552 l 1,12,-1
 588 512 l 2,13,14
 585 490 585 490 584 479 c 128,-1,15
 583 468 583 468 583 445 c 0,16,17
 583 432 583 432 583 420 c 128,-1,18
 583 408 583 408 585 395 c 0,19,20
 585 382 585 382 588.5 366 c 128,-1,21
 592 350 592 350 595 338 c 1,22,-1
 251 338 l 1,23,-1
 258 372 l 1,24,-1
 260 412 l 1,25,-1
 257 478 l 1,26,-1
 254 531 l 1,27,-1
 255 547 l 1,0,-1
481 372 m 1,28,-1
 485 422 l 1,29,-1
 487 486 l 1,30,-1
 487 506 l 2,31,32
 487 514 487 514 487 522 c 0,33,34
 485 534 485 534 485 539 c 0,35,36
 485 564 485 564 475 580 c 1,37,-1
 826 580 l 1,38,39
 823 576 823 576 819.5 556.5 c 128,-1,40
 816 537 816 537 816 514 c 2,41,-1
 812 391 l 1,42,-1
 815 272 l 2,43,44
 815 249 815 249 818 232.5 c 128,-1,45
 821 216 821 216 826 206 c 1,46,-1
 713 206 l 1,47,-1
 587 207 l 1,48,-1
 524 207 l 1,49,-1
 490 206 l 1,50,-1
 486 161 l 1,51,-1
 483 82 l 2,52,53
 483 40 483 40 488 31 c 1,54,-1
 506 29 l 1,55,-1
 534 29 l 1,56,-1
 546 29 l 2,57,58
 572 29 572 29 598 29 c 0,59,60
 619 32 619 32 629 33 c 0,61,62
 653 33 653 33 665.5 35.5 c 128,-1,63
 678 38 678 38 699 45 c 1,64,-1
 671 20 l 1,65,-1
 654 -1 l 1,66,-1
 183 0 l 1,67,68
 178 13 178 13 161 30 c 2,69,-1
 144 45 l 1,70,71
 166 40 166 40 220 35 c 2,72,-1
 315 31 l 1,73,-1
 343 31 l 1,74,-1
 356 33 l 2,75,76
 358 37 358 37 361 65 c 2,77,-1
 363 126 l 1,78,-1
 363 149 l 2,79,80
 363 157 363 157 363 165 c 0,81,82
 361 175 361 175 361 179 c 0,83,84
 361 198 361 198 356 206 c 1,85,-1
 9 206 l 1,86,87
 21 212 21 212 27 272 c 0,88,89
 30 303 30 303 32 336 c 128,-1,90
 34 369 34 369 34 408 c 2,91,-1
 31 523 l 2,92,93
 31 544 31 544 28 559 c 128,-1,94
 25 574 25 574 21 580 c 1,95,-1
 373 580 l 1,96,97
 369 572 369 572 366 548 c 2,98,-1
 364 499 l 2,99,100
 364 479 364 479 364 462 c 128,-1,101
 364 445 364 445 366 427 c 0,102,103
 366 410 366 410 367 400 c 128,-1,104
 368 390 368 390 371 372 c 1,105,-1
 481 372 l 1,28,-1
EndSplineSet
EndChar

StartChar: T
Encoding: 61524 61524 83
Width: 1070
GlyphClass: 2
Flags: W
LayerCount: 2
Fore
SplineSet
586 767 m 1,0,-1
 441 767 l 1,1,2
 443 764 443 764 445 742 c 128,-1,3
 447 720 447 720 447 710 c 2,4,-1
 449 605 l 1,5,-1
 449 584 l 1,6,-1
 449 566 l 1,7,-1
 449 551 l 1,8,-1
 449 539 l 1,9,-1
 448 507 l 1,10,-1
 448 483 l 1,11,-1
 577 483 l 1,12,-1
 577 579 l 1,13,-1
 578 713 l 2,14,15
 578 754 578 754 586 767 c 1,0,-1
227 450 m 1,16,-1
 113 450 l 1,17,-1
 114 432 l 1,18,-1
 115 406 l 1,19,-1
 114 354 l 1,20,-1
 114 304 l 2,21,22
 114 275 114 275 116 266 c 1,23,-1
 190 266 l 1,24,-1
 214 367 l 2,25,26
 227 424 227 424 227 450 c 1,16,-1
577 450 m 1,27,-1
 448 450 l 1,28,-1
 448 425 l 2,29,30
 448 373 448 373 447 285 c 128,-1,31
 446 197 446 197 446 161 c 0,32,33
 446 47 446 47 439 30 c 1,34,-1
 583 30 l 1,35,36
 578 50 578 50 578 173 c 2,37,-1
 577 426 l 1,38,-1
 577 450 l 1,27,-1
925 450 m 1,39,-1
 814 450 l 1,40,41
 814 413 814 413 826 343 c 128,-1,42
 838 273 838 273 851 269 c 1,43,-1
 919 269 l 1,44,-1
 924 287 l 1,45,-1
 925 320 l 1,46,-1
 924 370 l 1,47,-1
 924 388 l 2,48,49
 924 395 924 395 924 403 c 0,50,51
 922 414 922 414 922 419 c 0,52,53
 922 441 922 441 925 450 c 1,39,-1
753 236 m 1,54,55
 755 238 755 238 757 251 c 0,56,57
 757 280 757 280 736 357 c 2,58,-1
 708 450 l 1,59,-1
 672 450 l 1,60,-1
 670 347 l 2,61,62
 670 317 670 317 669 270 c 128,-1,63
 668 223 668 223 668 207 c 0,64,65
 668 109 668 109 672 64 c 0,66,67
 672 40 672 40 676 24.5 c 128,-1,68
 680 9 680 9 687 0 c 1,69,-1
 347 0 l 1,70,71
 353 6 353 6 356.5 31.5 c 128,-1,72
 360 57 360 57 360 102 c 0,73,74
 360 140 360 140 362.5 210 c 128,-1,75
 365 280 365 280 365 298 c 2,76,-1
 365 327 l 1,77,-1
 365 351 l 1,78,-1
 365 371 l 1,79,-1
 365 387 l 1,80,-1
 365 400 l 1,81,-1
 364 450 l 1,82,-1
 324 450 l 1,83,84
 322 435 322 435 312 392 c 0,85,86
 299 345 299 345 292 315 c 2,87,-1
 279 248 l 2,88,89
 279 239 279 239 282 236 c 1,90,-1
 16 236 l 1,91,92
 22 251 22 251 22 337 c 2,93,-1
 19 427 l 2,94,95
 19 445 19 445 16.5 459 c 128,-1,96
 14 473 14 473 10 483 c 1,97,-1
 364 483 l 1,98,-1
 368 591 l 1,99,-1
 371 698 l 2,100,101
 371 783 371 783 364 800 c 1,102,-1
 675 800 l 1,103,104
 673 794 673 794 671.5 764.5 c 128,-1,105
 670 735 670 735 670 696 c 2,106,-1
 669 590 l 1,107,-1
 669 483 l 1,108,-1
 1034 483 l 1,109,110
 1022 421 1022 421 1022 373 c 0,111,112
 1022 326 1022 326 1034 236 c 1,113,-1
 753 236 l 1,54,55
EndSplineSet
EndChar

StartChar: U
Encoding: 61525 61525 84
Width: 794
GlyphClass: 2
Flags: W
LayerCount: 2
Fore
SplineSet
12 382 m 1,0,-1
 17 384 l 1,1,-1
 45 384 l 2,2,3
 72 384 72 384 144.5 382 c 128,-1,4
 217 380 217 380 234 380 c 0,5,6
 280 380 280 380 320.5 377.5 c 128,-1,7
 361 375 361 375 399 371 c 1,8,9
 399 390 399 390 412 475 c 0,10,11
 418 514 418 514 418 535 c 0,12,13
 418 569 418 569 403 580 c 1,14,-1
 766 580 l 1,15,16
 752 574 752 574 752 460 c 0,17,18
 752 423 752 423 749 342 c 128,-1,19
 746 261 746 261 746 217 c 0,20,21
 746 166 746 166 747 128.5 c 128,-1,22
 748 91 748 91 749 57 c 0,23,24
 749 3 749 3 762 -1 c 1,25,-1
 375 0 l 1,26,27
 378 2 378 2 381 36 c 128,-1,28
 384 70 384 70 384 133 c 0,29,30
 384 197 384 197 387.5 243 c 128,-1,31
 391 289 391 289 399 351 c 1,32,33
 395 353 395 353 380.5 354.5 c 128,-1,34
 366 356 366 356 347 356 c 2,35,-1
 287 358 l 1,36,37
 289 355 289 355 292 320 c 2,38,-1
 294 253 l 1,39,-1
 291 176 l 2,40,41
 291 146 291 146 284 146 c 2,42,-1
 270 146 l 1,43,-1
 243 146 l 1,44,-1
 211 146 l 1,45,-1
 180 146 l 1,46,-1
 151 146 l 1,47,-1
 126 146 l 1,48,-1
 104 146 l 1,49,-1
 86 146 l 1,50,-1
 71 146 l 1,51,-1
 59 146 l 1,52,-1
 22 146 l 2,53,54
 20 146 20 146 18.5 147.5 c 128,-1,55
 17 149 17 149 16 150 c 2,56,-1
 23 216 l 1,57,-1
 28 309 l 2,58,59
 28 323 28 323 28 338 c 0,60,61
 25 355 25 355 23 367 c 128,-1,62
 21 379 21 379 12 382 c 1,0,-1
113 363 m 1,63,64
 111 357 111 357 109 348 c 128,-1,65
 107 339 107 339 107 322 c 2,66,-1
 105 238 l 1,67,-1
 105 193 l 2,68,69
 105 173 105 173 108 170 c 2,70,-1
 123 166 l 1,71,-1
 163 165 l 1,72,-1
 185 165 l 2,73,74
 199 165 199 165 203 167.5 c 128,-1,75
 207 170 207 170 210 202 c 2,76,-1
 212 276 l 1,77,-1
 211 334 l 2,78,79
 211 358 211 358 208 361 c 2,80,-1
 181 363 l 1,81,-1
 149 364 l 1,82,-1
 113 363 l 1,63,64
652 559 m 1,83,-1
 533 561 l 1,84,85
 527 557 527 557 517.5 467 c 128,-1,86
 508 377 508 377 510 363 c 1,87,-1
 639 347 l 1,88,89
 641 356 641 356 643 394 c 128,-1,90
 645 432 645 432 645 449 c 0,91,92
 645 493 645 493 647 518 c 128,-1,93
 649 543 649 543 652 559 c 1,83,-1
508 343 m 2,94,95
 499 343 499 343 499 263 c 2,96,-1
 496 101 l 1,97,-1
 496 47 l 2,98,99
 496 23 496 23 499 20 c 2,100,-1
 644 20 l 1,101,-1
 640 178 l 1,102,-1
 637 329 l 1,103,104
 628 331 628 331 622 332 c 0,105,106
 600 336 600 336 575 338 c 2,107,-1
 508 343 l 2,94,95
EndSplineSet
EndChar

StartChar: V
Encoding: 61526 61526 85
Width: 774
GlyphClass: 2
Flags: W
LayerCount: 2
Fore
SplineSet
342 334 m 1,0,-1
 497 334 l 1,1,-1
 500 347 l 1,2,-1
 501 377 l 1,3,-1
 501 390 l 1,4,-1
 501 401 l 2,5,6
 501 420 501 420 500 443 c 128,-1,7
 499 466 499 466 496 489 c 0,8,9
 496 520 496 520 493 536 c 128,-1,10
 490 552 490 552 485 557 c 1,11,-1
 351 557 l 1,12,-1
 345 457 l 1,13,-1
 341 352 l 1,14,-1
 342 334 l 1,0,-1
340 314 m 1,15,-1
 339 285 l 1,16,-1
 339 241 l 1,17,-1
 340 69 l 2,18,19
 340 54 340 54 342 41 c 128,-1,20
 344 28 344 28 346 21 c 1,21,-1
 500 21 l 1,22,-1
 500 314 l 1,23,-1
 340 314 l 1,15,-1
86 333 m 1,24,-1
 102 333 l 1,25,-1
 123 333 l 1,26,-1
 137 333 l 1,27,-1
 150 333 l 1,28,-1
 161 333 l 1,29,-1
 189 333 l 2,30,31
 205 333 205 333 219 335 c 1,32,-1
 226 404 l 1,33,-1
 233 488 l 1,34,-1
 239 548 l 2,35,36
 239 572 239 572 230 577 c 1,37,-1
 612 577 l 1,38,39
 606 556 606 556 606 521 c 2,40,-1
 607 507 l 2,41,42
 609 489 609 489 612.5 450 c 128,-1,43
 616 411 616 411 616 378 c 2,44,-1
 620 209 l 1,45,-1
 620 169 l 1,46,-1
 620 61 l 2,47,48
 620 7 620 7 627 0 c 1,49,-1
 228 0 l 1,50,-1
 229 17 l 1,51,-1
 226 67 l 1,52,-1
 219 151 l 1,53,-1
 219 314 l 1,54,-1
 86 314 l 1,55,56
 80 302 80 302 80 274 c 2,57,-1
 83 238 l 2,58,59
 86 220 86 220 91 215 c 1,60,-1
 16 215 l 1,61,-1
 15 231 l 1,62,-1
 15 249 l 1,63,-1
 15 288 l 1,64,-1
 16 324 l 1,65,-1
 15 361 l 1,66,-1
 15 405 l 1,67,-1
 16 432 l 1,68,-1
 91 432 l 1,69,70
 88 429 88 429 83 409 c 2,71,-1
 80 372 l 2,72,73
 80 345 80 345 86 333 c 1,24,-1
EndSplineSet
EndChar

StartChar: X
Encoding: 61528 61528 86
Width: 872
GlyphClass: 2
Flags: W
LayerCount: 2
Fore
SplineSet
466 580 m 1,0,-1
 358 580 l 1,1,2
 316 649 316 649 283 697 c 0,3,4
 247 750 247 750 230 767 c 1,5,-1
 120 768 l 2,6,7
 101 768 101 768 65.5 769 c 128,-1,8
 30 770 30 770 14 770 c 1,9,-1
 18 787 l 1,10,-1
 14 800 l 1,11,-1
 340 800 l 1,12,-1
 426 662 l 1,13,-1
 466 718 l 2,14,15
 506 777 506 777 512 800 c 1,16,-1
 814 800 l 1,17,-1
 811 781 l 1,18,-1
 814 772 l 1,19,-1
 759 772 l 1,20,-1
 708 773 l 2,21,22
 644 773 644 773 614 767 c 0,23,24
 603 767 603 767 537 685 c 0,25,26
 476 606 476 606 466 580 c 1,0,-1
711 322 m 1,27,-1
 578 322 l 1,28,-1
 578 33 l 1,29,-1
 711 33 l 1,30,31
 703 87 703 87 703 192 c 0,32,33
 703 283 703 283 711 322 c 1,27,-1
125 547 m 1,34,35
 127 538 127 538 129 511 c 128,-1,36
 131 484 131 484 131 472 c 2,37,-1
 133 318 l 2,38,39
 133 278 133 278 132 213 c 128,-1,40
 131 148 131 148 131 124 c 0,41,42
 131 89 131 89 129 64.5 c 128,-1,43
 127 40 127 40 125 33 c 1,44,-1
 241 33 l 1,45,46
 239 41 239 41 237 83.5 c 128,-1,47
 235 126 235 126 235 146 c 2,48,-1
 232 344 l 1,49,-1
 233 464 l 2,50,51
 233 534 233 534 241 547 c 1,52,-1
 125 547 l 1,34,35
8 580 m 1,53,-1
 578 580 l 1,54,-1
 574 503 l 1,55,-1
 575 435 l 1,56,-1
 578 355 l 1,57,-1
 811 355 l 1,58,59
 810 352 810 352 808 335 c 128,-1,60
 806 318 806 318 806 299 c 2,61,-1
 804 209 l 2,62,63
 804 190 804 190 805 149 c 128,-1,64
 806 108 806 108 806 85 c 0,65,66
 806 25 806 25 811 0 c 1,67,-1
 474 0 l 1,68,69
 477 11 477 11 479.5 34.5 c 128,-1,70
 482 58 482 58 482 91 c 2,71,-1
 485 256 l 1,72,-1
 482 446 l 2,73,74
 482 490 482 490 480 512.5 c 128,-1,75
 478 535 478 535 474 547 c 1,76,-1
 346 547 l 2,77,78
 344 544 344 544 341.5 522.5 c 128,-1,79
 339 501 339 501 339 474 c 2,80,-1
 337 327 l 2,81,82
 337 279 337 279 338 205 c 128,-1,83
 339 131 339 131 339 106 c 0,84,85
 339 64 339 64 341 40 c 128,-1,86
 343 16 343 16 346 0 c 1,87,-1
 8 0 l 1,88,89
 13 23 13 23 13 141 c 2,90,-1
 16 331 l 2,91,92
 16 364 16 364 15 419 c 128,-1,93
 14 474 14 474 14 496 c 0,94,95
 14 527 14 527 12 550 c 128,-1,96
 10 573 10 573 8 580 c 1,53,-1
EndSplineSet
EndChar

StartChar: Y
Encoding: 61529 61529 87
Width: 901
GlyphClass: 2
Flags: W
LayerCount: 2
Fore
SplineSet
142 559 m 2,0,-1
 138 510 l 1,1,-1
 136 424 l 1,2,-1
 137 327 l 2,3,4
 137 296 137 296 142 289 c 1,5,-1
 200 287 l 1,6,-1
 245 286 l 1,7,-1
 260 286 l 2,8,9
 270 286 270 286 272 288 c 0,10,11
 273 293 273 293 274.5 310.5 c 128,-1,12
 276 328 276 328 276 359 c 2,13,-1
 277 459 l 1,14,-1
 277 480 l 1,15,-1
 277 498 l 1,16,-1
 277 512 l 1,17,-1
 277 524 l 2,18,19
 277 566 277 566 272 567 c 0,20,21
 260 567 260 567 232 566 c 128,-1,22
 204 565 204 565 187 565 c 0,23,24
 142 565 142 565 142 559 c 2,0,-1
614 566 m 2,25,-1
 612 527 l 1,26,-1
 611 453 l 1,27,-1
 612 332 l 2,28,29
 612 292 612 292 616 288 c 2,30,-1
 638 286 l 1,31,-1
 675 285 l 1,32,-1
 687 285 l 1,33,-1
 719 285 l 1,34,-1
 743 286 l 1,35,36
 746 292 746 292 749 326 c 2,37,-1
 751 406 l 2,38,39
 751 438 751 438 750 463.5 c 128,-1,40
 749 489 749 489 748 513 c 0,41,42
 748 532 748 532 746 544.5 c 128,-1,43
 744 557 744 557 742 559 c 0,44,45
 737 561 737 561 728.5 563 c 128,-1,46
 720 565 720 565 703 565 c 2,47,-1
 634 568 l 2,48,49
 616 568 616 568 614 566 c 2,25,-1
445 269 m 1,50,-1
 395 149 l 2,51,52
 348 28 348 28 351 16 c 1,53,-1
 539 16 l 1,54,55
 543 20 543 20 516 94 c 0,56,57
 460 250 460 250 445 269 c 1,50,-1
381 288 m 1,58,-1
 508 288 l 1,59,-1
 508 454 l 1,60,-1
 508 498 l 1,61,-1
 508 513 l 1,62,-1
 508 525 l 2,63,64
 508 548 508 548 507.5 556 c 128,-1,65
 507 564 507 564 505 570 c 1,66,-1
 381 570 l 1,67,-1
 381 558 l 2,68,69
 381 552 381 552 379 536 c 2,70,-1
 379 507 l 1,71,-1
 379 407 l 2,72,73
 379 391 379 391 380 351.5 c 128,-1,74
 381 312 381 312 381 288 c 1,58,-1
505 269 m 1,75,-1
 480 269 l 1,76,-1
 518 227 l 2,77,78
 547 195 547 195 564 169 c 0,79,80
 602 117 602 117 624 74 c 0,81,82
 631 61 631 61 644 33 c 0,83,84
 654 12 654 12 659 -1 c 1,85,-1
 220 0 l 1,86,87
 230 24 230 24 257 69 c 0,88,89
 276 103 276 103 291 127.5 c 128,-1,90
 306 152 306 152 318 168 c 2,91,-1
 364 224 l 1,92,-1
 408 271 l 1,93,-1
 384 271 l 1,94,-1
 23 271 l 1,95,96
 35 283 35 283 35 293 c 2,97,-1
 34 544 l 1,98,-1
 28 564 l 1,99,-1
 21 579 l 1,100,-1
 62 577 l 1,101,-1
 180 580 l 1,102,-1
 442 588 l 2,103,104
 482 588 482 588 507 587 c 0,105,106
 631 582 631 582 655 582 c 2,107,-1
 821 576 l 2,108,109
 851 576 851 576 860 579 c 1,110,111
 860 567 860 567 858 560.5 c 128,-1,112
 856 554 856 554 853.5 540 c 128,-1,113
 851 526 851 526 850 520 c 2,114,-1
 852 281 l 1,115,-1
 862 269 l 1,116,-1
 505 269 l 1,75,-1
EndSplineSet
EndChar

StartChar: Z
Encoding: 61530 61530 88
Width: 660
GlyphClass: 2
Flags: W
LayerCount: 2
Fore
SplineSet
354 396 m 1,0,-1
 355 376 l 1,1,-1
 356 355 l 1,2,-1
 378 355 l 1,3,-1
 401 355 l 1,4,-1
 423 355 l 1,5,-1
 443 355 l 1,6,-1
 462 355 l 1,7,-1
 479 355 l 1,8,-1
 494 355 l 1,9,-1
 507 355 l 1,10,-1
 548 355 l 1,11,-1
 588 356 l 1,12,13
 586 349 586 349 585 337 c 128,-1,14
 584 325 584 325 584 298 c 0,15,16
 584 216 584 216 593 115.5 c 128,-1,17
 602 15 602 15 616 -2 c 1,18,-1
 20 0 l 1,19,20
 26 8 26 8 30.5 37.5 c 128,-1,21
 35 67 35 67 35 90 c 0,22,23
 35 117 35 117 38.5 173 c 128,-1,24
 42 229 42 229 42 252 c 2,25,-1
 42 304 l 2,26,27
 42 342 42 342 34 355 c 1,28,-1
 258 356 l 1,29,-1
 252 492 l 1,30,31
 240 629 240 629 212 629 c 1,32,-1
 577 629 l 1,33,34
 572 621 572 621 565 558 c 128,-1,35
 558 495 558 495 542 476 c 0,36,37
 501 426 501 426 452 408 c 0,38,39
 419 396 419 396 354 396 c 1,0,-1
489 27 m 2,40,41
 493 28 493 28 497 46 c 2,42,-1
 500 88 l 2,43,44
 500 129 500 129 494 192 c 2,45,-1
 483 319 l 1,46,-1
 357 319 l 1,47,-1
 356 268 l 1,48,-1
 356 217 l 1,49,-1
 357 78 l 2,50,51
 357 35 357 35 365 27 c 1,52,-1
 489 27 l 2,40,41
349 415 m 1,53,54
 403 415 403 415 433 449 c 0,55,56
 472 494 472 494 472 597 c 1,57,-1
 339 597 l 1,58,-1
 342 499 l 2,59,60
 342 467 342 467 344 448.5 c 128,-1,61
 346 430 346 430 349 415 c 1,53,54
135 319 m 1,62,63
 131 307 131 307 126 256 c 2,64,-1
 123 142 l 2,65,66
 123 73 123 73 126 52.5 c 128,-1,67
 129 32 129 32 135 27 c 1,68,-1
 249 27 l 1,69,70
 256 34 256 34 256 90 c 2,71,-1
 258 217 l 1,72,-1
 258 235 l 1,73,-1
 258 250 l 1,74,-1
 258 262 l 1,75,-1
 257 294 l 1,76,-1
 257 319 l 1,77,-1
 135 319 l 1,62,63
EndSplineSet
EndChar

StartChar: bracketleft
Encoding: 61531 61531 89
Width: 305
GlyphClass: 2
Flags: W
LayerCount: 2
Fore
SplineSet
269 580 m 1,0,-1
 269 564 l 2,1,2
 269 558 269 558 282 539 c 1,3,-1
 255 547 l 1,4,-1
 228 550 l 1,5,-1
 201 547 l 1,6,-1
 201 149 l 2,7,8
 201 122 201 122 211 106 c 2,9,-1
 227 80 l 1,10,11
 221 83 221 83 203 85 c 0,12,13
 149 85 149 85 104 0 c 1,14,-1
 104 547 l 1,15,-1
 74 550 l 2,16,17
 50 550 50 550 34 545 c 0,18,19
 29 545 29 545 18 539 c 1,20,-1
 28 562 l 1,21,-1
 33 580 l 1,22,-1
 269 580 l 1,0,-1
EndSplineSet
EndChar

StartChar: bracketright
Encoding: 61533 61533 90
Width: 710
GlyphClass: 2
Flags: W
LayerCount: 2
Fore
SplineSet
14 0 m 1,0,1
 29 14 29 14 41 100.5 c 128,-1,2
 53 187 53 187 92 235 c 0,3,4
 152 307 152 307 295 323 c 1,5,-1
 298 376 l 1,6,-1
 299 448 l 1,7,-1
 296 526 l 2,8,9
 296 556 296 556 288 580 c 1,10,-1
 657 580 l 1,11,12
 654 574 654 574 652 547 c 128,-1,13
 650 520 650 520 650 502 c 2,14,-1
 647 342 l 2,15,16
 647 286 647 286 649.5 203.5 c 128,-1,17
 652 121 652 121 652 112 c 0,18,19
 652 65 652 65 657 36.5 c 128,-1,20
 662 8 662 8 669 0 c 1,21,-1
 14 0 l 1,0,1
296 290 m 1,22,23
 194 290 194 290 163 172 c 1,24,-1
 144 34 l 1,25,-1
 288 33 l 1,26,27
 289 37 289 37 291.5 83 c 128,-1,28
 294 129 294 129 294 168 c 2,29,-1
 296 290 l 1,22,23
409 290 m 1,30,-1
 407 241 l 1,31,-1
 406 167 l 1,32,-1
 407 73 l 2,33,34
 407 60 407 60 409 48.5 c 128,-1,35
 411 37 411 37 413 33 c 1,36,-1
 538 33 l 1,37,38
 542 37 542 37 542 62 c 2,39,-1
 543 95 l 1,40,-1
 542 176 l 2,41,42
 542 190 542 190 541 217 c 128,-1,43
 540 244 540 244 540 257 c 0,44,45
 540 288 540 288 542 290 c 1,46,-1
 409 290 l 1,30,-1
403 547 m 1,47,48
 409 541 409 541 409 517 c 2,49,-1
 410 478 l 1,50,-1
 409 409 l 1,51,-1
 409 385 l 2,52,53
 409 372 409 372 409 360 c 0,54,55
 407 350 407 350 407 346 c 0,56,57
 407 327 407 327 409 323 c 1,58,-1
 540 323 l 1,59,-1
 541 474 l 2,60,61
 541 504 541 504 542 522 c 128,-1,62
 543 540 543 540 546 547 c 1,63,-1
 403 547 l 1,47,48
EndSplineSet
EndChar

StartChar: a
Encoding: 61537 61537 91
Width: 600
GlyphClass: 2
Flags: W
LayerCount: 2
Fore
SplineSet
358 0 m 1,0,-1
 242 0 l 1,1,2
 247 39 247 39 249 68 c 128,-1,3
 251 97 251 97 251 122 c 2,4,-1
 254 212 l 1,5,-1
 254 230 l 1,6,-1
 254 245 l 1,7,-1
 254 257 l 1,8,-1
 253 291 l 1,9,-1
 253 322 l 1,10,-1
 133 322 l 1,11,-1
 128 243 l 1,12,-1
 126 151 l 2,13,14
 126 43 126 43 133 0 c 1,15,-1
 30 0 l 1,16,-1
 37 95 l 1,17,-1
 39 183 l 2,18,19
 39 213 39 213 38 236.5 c 128,-1,20
 37 260 37 260 36 283 c 2,21,-1
 30 355 l 1,22,-1
 252 355 l 1,23,-1
 252 380 l 1,24,-1
 253 418 l 1,25,-1
 250 527 l 2,26,27
 250 572 250 572 240 630 c 1,28,-1
 360 630 l 1,29,30
 356 602 356 602 352 571 c 128,-1,31
 348 540 348 540 348 513 c 2,32,-1
 346 391 l 1,33,-1
 346 362 l 1,34,-1
 346 355 l 1,35,-1
 568 354 l 1,36,-1
 562 290 l 1,37,-1
 559 190 l 2,38,39
 559 156 559 156 561 126 c 0,40,41
 568 20 568 20 568 0 c 1,42,-1
 467 0 l 1,43,-1
 469 88 l 1,44,-1
 471 213 l 1,45,-1
 471 229 l 1,46,-1
 471 243 l 1,47,-1
 471 254 l 1,48,-1
 470 284 l 1,49,-1
 467 322 l 1,50,-1
 346 322 l 1,51,-1
 345 271 l 1,52,-1
 345 224 l 2,53,54
 345 200 345 200 346 160 c 128,-1,55
 347 120 347 120 347 104 c 0,56,57
 347 79 347 79 349.5 57.5 c 128,-1,58
 352 36 352 36 358 0 c 1,0,-1
EndSplineSet
EndChar

StartChar: b
Encoding: 61538 61538 92
Width: 668
GlyphClass: 2
Flags: W
LayerCount: 2
Fore
SplineSet
588 341 m 1,0,1
 580 346 580 346 557 346 c 0,2,3
 504 346 504 346 400 327 c 128,-1,4
 296 308 296 308 214 289 c 2,5,-1
 126 268 l 1,6,-1
 122 198 l 1,7,-1
 120 114 l 1,8,-1
 121 62 l 2,9,10
 121 41 121 41 126 30 c 1,11,12
 136 30 136 30 163 29 c 128,-1,13
 190 28 190 28 207 28 c 2,14,-1
 317 28 l 2,15,16
 357 28 357 28 414.5 29 c 128,-1,17
 472 30 472 30 489 30 c 0,18,19
 520 30 520 30 538.5 33 c 128,-1,20
 557 36 557 36 566 41 c 1,21,-1
 559 27 l 2,22,23
 550 9 550 9 553 0 c 1,24,-1
 7 0 l 1,25,26
 11 13 11 13 14.5 39 c 128,-1,27
 18 65 18 65 18 101 c 2,28,-1
 22 284 l 2,29,30
 22 336 22 336 20.5 385.5 c 128,-1,31
 19 435 19 435 18 465 c 0,32,33
 18 500 18 500 15.5 526 c 128,-1,34
 13 552 13 552 7 580 c 1,35,-1
 115 580 l 1,36,37
 112 568 112 568 112 548 c 256,38,39
 112 528 112 528 112 508 c 0,40,41
 115 488 115 488 116 477 c 0,42,43
 127 353 127 353 127 302 c 1,44,-1
 197 314 l 1,45,-1
 242 324 l 2,46,47
 242 325 242 325 244 339.5 c 128,-1,48
 246 354 246 354 247 364 c 2,49,-1
 249 438 l 2,50,51
 249 453 249 453 248 480.5 c 128,-1,52
 247 508 247 508 247 520 c 0,53,54
 247 536 247 536 245 551 c 128,-1,55
 243 566 243 566 240 580 c 1,56,-1
 363 580 l 1,57,58
 360 573 360 573 354 517 c 2,59,-1
 349 416 l 1,60,-1
 350 370 l 2,61,62
 350 350 350 350 359 345 c 1,63,-1
 479 367 l 1,64,-1
 480 580 l 1,65,-1
 588 580 l 1,66,67
 581 565 581 565 574 526 c 0,68,69
 571 503 571 503 570 492 c 128,-1,70
 569 481 569 481 569 457 c 0,71,72
 569 415 569 415 572.5 388.5 c 128,-1,73
 576 362 576 362 588 341 c 1,0,1
EndSplineSet
EndChar

StartChar: c
Encoding: 61539 61539 93
Width: 676
GlyphClass: 2
Flags: W
LayerCount: 2
Fore
SplineSet
112 547 m 1,0,1
 112 469 112 469 116.5 433 c 128,-1,2
 121 397 121 397 150 382 c 0,3,4
 172 372 172 372 202 372 c 2,5,-1
 236 375 l 2,6,7
 242 376 242 376 252.5 379 c 128,-1,8
 263 382 263 382 271 386 c 1,9,10
 271 402 271 402 261 462 c 2,11,-1
 251 547 l 1,12,-1
 112 547 l 1,0,1
614 580 m 1,13,14
 608 568 608 568 599 464 c 0,15,16
 599 418 599 418 591 373.5 c 128,-1,17
 583 329 583 329 570 282.5 c 128,-1,18
 557 236 557 236 536.5 180 c 128,-1,19
 516 124 516 124 487 58 c 0,20,21
 465 7 465 7 466 0 c 1,22,-1
 348 0 l 1,23,-1
 350 10 l 1,24,25
 350 38 350 38 317 181.5 c 128,-1,26
 284 325 284 325 284 341 c 0,27,28
 284 349 284 349 258 349 c 2,29,-1
 220 347 l 1,30,-1
 171 345 l 2,31,32
 156 345 156 345 138.5 345.5 c 128,-1,33
 121 346 121 346 96 353 c 0,34,35
 65 360 65 360 44 384 c 0,36,37
 29 401 29 401 23 427 c 0,38,39
 19 452 19 452 18.5 465 c 128,-1,40
 18 478 18 478 18 486 c 2,41,-1
 19 520 l 1,42,-1
 20 549 l 2,43,44
 20 575 20 575 12 580 c 1,45,-1
 359 580 l 1,46,-1
 358 564 l 1,47,48
 358 481 358 481 386.5 283.5 c 128,-1,49
 415 86 415 86 442 31 c 1,50,51
 471 94 471 94 488 199.5 c 128,-1,52
 505 305 505 305 505 397 c 0,53,54
 505 519 505 519 486 580 c 1,55,-1
 614 580 l 1,13,14
EndSplineSet
EndChar

StartChar: d
Encoding: 61540 61540 94
Width: 845
GlyphClass: 2
Flags: W
LayerCount: 2
Fore
SplineSet
8 580 m 1,0,-1
 578 580 l 1,1,-1
 574 503 l 1,2,-1
 575 435 l 1,3,-1
 578 355 l 1,4,-1
 811 355 l 1,5,6
 810 352 810 352 808 335 c 128,-1,7
 806 318 806 318 806 299 c 2,8,-1
 804 209 l 2,9,10
 804 190 804 190 805 149 c 128,-1,11
 806 108 806 108 806 85 c 0,12,13
 806 25 806 25 811 0 c 1,14,-1
 474 0 l 1,15,16
 477 11 477 11 479.5 34.5 c 128,-1,17
 482 58 482 58 482 91 c 2,18,-1
 485 256 l 1,19,-1
 482 446 l 2,20,21
 482 490 482 490 480 512.5 c 128,-1,22
 478 535 478 535 474 547 c 1,23,-1
 346 547 l 2,24,25
 344 544 344 544 341.5 522.5 c 128,-1,26
 339 501 339 501 339 474 c 2,27,-1
 337 327 l 2,28,29
 337 279 337 279 338 205 c 128,-1,30
 339 131 339 131 339 106 c 0,31,32
 339 64 339 64 341 40 c 128,-1,33
 343 16 343 16 346 0 c 1,34,-1
 8 0 l 1,35,36
 13 23 13 23 13 141 c 2,37,-1
 16 331 l 2,38,39
 16 364 16 364 15 419 c 128,-1,40
 14 474 14 474 14 496 c 0,41,42
 14 527 14 527 12 550 c 128,-1,43
 10 573 10 573 8 580 c 1,0,-1
125 547 m 1,44,45
 127 538 127 538 129 511 c 128,-1,46
 131 484 131 484 131 472 c 2,47,-1
 133 318 l 2,48,49
 133 278 133 278 132 213 c 128,-1,50
 131 148 131 148 131 124 c 0,51,52
 131 89 131 89 129 64.5 c 128,-1,53
 127 40 127 40 125 33 c 1,54,-1
 241 33 l 1,55,56
 239 41 239 41 237 83.5 c 128,-1,57
 235 126 235 126 235 146 c 2,58,-1
 232 344 l 1,59,-1
 233 464 l 2,60,61
 233 534 233 534 241 547 c 1,62,-1
 125 547 l 1,44,45
711 322 m 1,63,-1
 578 322 l 1,64,-1
 578 33 l 1,65,-1
 711 33 l 1,66,67
 703 87 703 87 703 192 c 0,68,69
 703 283 703 283 711 322 c 1,63,-1
EndSplineSet
EndChar

StartChar: e
Encoding: 61541 61541 95
Width: 435
GlyphClass: 2
Flags: W
LayerCount: 2
Fore
SplineSet
375 580 m 1,0,-1
 372 533 l 1,1,-1
 378 421 l 2,2,3
 378 391 378 391 381 352 c 128,-1,4
 384 313 384 313 384 303 c 2,5,-1
 381 189 l 1,6,-1
 378 76 l 2,7,8
 378 24 378 24 384 0 c 1,9,-1
 29 0 l 1,10,-1
 30 16 l 2,11,12
 30 32 30 32 29 49 c 128,-1,13
 28 66 28 66 25 83 c 0,14,15
 22 118 22 118 13 131 c 1,16,-1
 129 131 l 1,17,18
 123 110 123 110 123 80 c 256,19,20
 123 50 123 50 129 33 c 1,21,-1
 269 33 l 1,22,23
 275 43 275 43 280 79 c 2,24,-1
 283 156 l 1,25,-1
 282 223 l 1,26,-1
 281 289 l 1,27,-1
 254 289 l 1,28,-1
 203 290 l 1,29,-1
 154 290 l 1,30,-1
 111 287 l 1,31,-1
 115 304 l 1,32,-1
 111 324 l 1,33,-1
 185 320 l 1,34,-1
 230 321 l 1,35,-1
 281 322 l 1,36,37
 281 370 281 370 279.5 390 c 128,-1,38
 278 410 278 410 273 448 c 0,39,40
 265 515 265 515 254 547 c 1,41,-1
 126 547 l 1,42,-1
 127 495 l 2,43,44
 127 480 127 480 135 463 c 1,45,-1
 17 463 l 1,46,-1
 22 495 l 1,47,-1
 26 535 l 1,48,-1
 26 547 l 2,49,50
 26 551 26 551 26 555 c 0,51,52
 24 560 24 560 24 562 c 0,53,54
 24 570 24 570 17 580 c 1,55,-1
 375 580 l 1,0,-1
EndSplineSet
EndChar

StartChar: f
Encoding: 61542 61542 96
Width: 616
GlyphClass: 2
Flags: W
LayerCount: 2
Fore
SplineSet
126 378 m 1,0,1
 118 357 118 357 111 307 c 128,-1,2
 104 257 104 257 104 201 c 0,3,4
 104 153 104 153 111.5 107 c 128,-1,5
 119 61 119 61 183 51 c 2,6,-1
 234 46 l 1,7,-1
 235 250 l 1,8,-1
 239 362 l 1,9,-1
 238 378 l 1,10,-1
 126 378 l 1,0,1
354 -200 m 1,11,-1
 321 -193 l 1,12,-1
 280 -189 l 2,13,14
 267 -189 267 -189 254.5 -190.5 c 128,-1,15
 242 -192 242 -192 222 -200 c 1,16,17
 227 -192 227 -192 232 -145 c 2,18,-1
 236 -49 l 1,19,-1
 236 -36 l 1,20,-1
 236 -25 l 1,21,-1
 236 7 l 1,22,-1
 234 23 l 1,23,24
 141 23 141 23 83 65.5 c 128,-1,25
 25 108 25 108 10 189 c 1,26,-1
 8 204 l 1,27,-1
 8 216 l 2,28,29
 8 243 8 243 20 294 c 128,-1,30
 32 345 32 345 32 371 c 2,31,-1
 32 393 l 1,32,-1
 28 408 l 1,33,-1
 238 408 l 1,34,-1
 238 433 l 1,35,-1
 239 461 l 2,36,37
 239 478 239 478 239 496 c 0,38,39
 236 508 236 508 234 520.5 c 128,-1,40
 232 533 232 533 220 548 c 0,41,42
 213 555 213 555 193 555 c 0,43,44
 177 555 177 555 151 549 c 0,45,46
 140 547 140 547 132 545.5 c 128,-1,47
 124 544 124 544 110 538 c 1,48,-1
 117 553 l 2,49,50
 125 565 125 565 123 580 c 1,51,-1
 453 580 l 1,52,53
 451 567 451 567 458 554 c 2,54,-1
 466 538 l 1,55,-1
 426 549 l 2,56,57
 402 555 402 555 382 555 c 0,58,59
 364 555 364 555 356 548 c 0,60,61
 347 536 347 536 341 512 c 1,62,-1
 337 461 l 1,63,-1
 337 433 l 1,64,-1
 338 408 l 1,65,-1
 548 408 l 1,66,-1
 544 370 l 2,67,68
 544 348 544 348 560 275 c 0,69,70
 564 255 564 255 566 242.5 c 128,-1,71
 568 230 568 230 568 216 c 2,72,-1
 568 204 l 2,73,74
 568 200 568 200 568 196 c 0,75,76
 566 191 566 191 566 189 c 0,77,78
 554 111 554 111 492 67 c 0,79,80
 462 45 462 45 424.5 34 c 128,-1,81
 387 23 387 23 338 23 c 1,82,83
 336 15 336 15 335 0.5 c 128,-1,84
 334 -14 334 -14 334 -47 c 0,85,86
 334 -105 334 -105 338.5 -146 c 128,-1,87
 343 -187 343 -187 354 -200 c 1,11,-1
466 117 m 0,88,89
 475 153 475 153 475 205 c 0,90,91
 475 261 475 261 468.5 307 c 128,-1,92
 462 353 462 353 450 378 c 1,93,-1
 338 378 l 1,94,-1
 338 46 l 1,95,96
 390 52 390 52 408 59 c 0,97,98
 454 75 454 75 466 117 c 0,88,89
EndSplineSet
EndChar

StartChar: g
Encoding: 61543 61543 97
Width: 815
GlyphClass: 2
Flags: W
LayerCount: 2
Fore
SplineSet
0 580 m 1,0,-1
 381 580 l 1,1,2
 373 570 373 570 352 471 c 2,3,-1
 313 272 l 2,4,5
 286 150 286 150 257 90 c 1,6,7
 366 228 366 228 491 302 c 0,8,9
 578 353 578 353 674 368 c 1,10,11
 702 368 702 368 730.5 371 c 128,-1,12
 759 374 759 374 776 376 c 1,13,14
 766 367 766 367 758 310 c 0,15,16
 755 283 755 283 753 253 c 128,-1,17
 751 223 751 223 751 190 c 0,18,19
 751 109 751 109 758.5 57.5 c 128,-1,20
 766 6 766 6 781 2 c 1,21,22
 770 6 770 6 758 8 c 128,-1,23
 746 10 746 10 729 10 c 2,24,-1
 685 7 l 1,25,-1
 602 0 l 1,26,27
 481 0 481 0 449 44 c 0,28,29
 423 79 423 79 423 202 c 1,30,31
 386 190 386 190 284 81 c 0,32,33
 179 -32 179 -32 179 -68 c 0,34,35
 179 -73 179 -73 185 -78 c 1,36,-1
 162 -73 l 1,37,-1
 143 -72 l 1,38,-1
 91 -78 l 1,39,-1
 157 69 l 1,40,41
 207 195 207 195 207 277 c 1,42,43
 87 277 87 277 39 328 c 0,44,45
 4 365 4 365 4 438 c 0,46,47
 4 450 4 450 4 462 c 128,-1,48
 4 474 4 474 6 490 c 2,49,-1
 13 548 l 2,50,51
 13 574 13 574 0 580 c 1,0,-1
108 547 m 1,52,-1
 108 479 l 2,53,54
 108 384 108 384 123 348 c 0,55,56
 144 297 144 297 214 297 c 1,57,-1
 241 469 l 2,58,59
 250 528 250 528 248 547 c 1,60,-1
 108 547 l 1,52,-1
545 49 m 0,61,62
 553 44 553 44 563.5 40 c 128,-1,63
 574 36 574 36 583 36 c 2,64,-1
 619 37 l 1,65,-1
 658 39 l 1,66,67
 655 42 655 42 652 54.5 c 128,-1,68
 649 67 649 67 649 89 c 2,69,-1
 646 190 l 2,70,71
 646 209 646 209 647 239.5 c 128,-1,72
 648 270 648 270 648 281 c 0,73,74
 648 316 648 316 656 326 c 1,75,76
 609 326 609 326 569 303 c 2,77,-1
 525 274 l 1,78,-1
 523 197 l 1,79,-1
 521 134 l 2,80,81
 521 94 521 94 525.5 76.5 c 128,-1,82
 530 59 530 59 545 49 c 0,61,62
EndSplineSet
EndChar

StartChar: h
Encoding: 61544 61544 98
Width: 570
GlyphClass: 2
Flags: W
LayerCount: 2
Fore
SplineSet
17 0 m 1,0,1
 32 14 32 14 54 179.5 c 128,-1,2
 76 345 76 345 76 476 c 0,3,4
 76 545 76 545 69 580 c 1,5,-1
 106 574 l 1,6,-1
 125 573 l 2,7,8
 138 573 138 573 147 574 c 0,9,10
 168 578 168 578 181 580 c 1,11,-1
 169 472 l 1,12,-1
 148 256 l 2,13,14
 136 131 136 131 126 96 c 1,15,16
 179 165 179 165 215 203 c 0,17,18
 244 233 244 233 303 281 c 0,19,20
 352 321 352 321 414 340 c 1,21,-1
 528 355 l 1,22,23
 525 350 525 350 522.5 330.5 c 128,-1,24
 520 311 520 311 520 283 c 2,25,-1
 517 144 l 2,26,27
 517 122 517 122 518 88.5 c 128,-1,28
 519 55 519 55 519 44 c 0,29,30
 519 28 519 28 521.5 17 c 128,-1,31
 524 6 524 6 528 0 c 1,32,-1
 493 4 l 1,33,-1
 450 3 l 1,34,-1
 367 -2 l 1,35,-1
 346 -2 l 1,36,-1
 334 0 l 1,37,38
 297 0 297 0 264 43 c 0,39,40
 228 90 228 90 228 168 c 1,41,42
 179 119 179 119 144 71 c 0,43,44
 116 32 116 32 101 0 c 1,45,-1
 78 4 l 1,46,-1
 62 5 l 1,47,-1
 40 3 l 1,48,-1
 17 0 l 1,0,1
326 250 m 0,49,50
 321 244 321 244 317 224 c 2,51,-1
 313 180 l 2,52,53
 313 148 313 148 318 124 c 128,-1,54
 323 100 323 100 336 80 c 0,55,56
 367 28 367 28 432 28 c 1,57,58
 434 32 434 32 437 63 c 2,59,-1
 439 126 l 2,60,61
 439 148 439 148 438 184.5 c 128,-1,62
 437 221 437 221 437 235 c 0,63,64
 437 261 437 261 436 274 c 128,-1,65
 435 287 435 287 432 304 c 1,66,67
 405 304 405 304 376 289 c 128,-1,68
 347 274 347 274 326 250 c 0,49,50
EndSplineSet
EndChar

StartChar: i
Encoding: 61545 61545 99
Width: 415
GlyphClass: 2
Flags: W
LayerCount: 2
Fore
SplineSet
139 547 m 1,0,1
 139 490 139 490 142 452 c 128,-1,2
 145 414 145 414 153 386 c 0,3,4
 166 335 166 335 199 325 c 1,5,6
 220 334 220 334 241 382 c 128,-1,7
 262 430 262 430 262 496 c 2,8,-1
 259 547 l 1,9,-1
 139 547 l 1,0,1
199 324 m 1,10,11
 149 318 149 318 127 250 c 0,12,13
 110 197 110 197 110 119 c 0,14,15
 110 104 110 104 110 90.5 c 128,-1,16
 110 77 110 77 112 63 c 0,17,18
 112 43 112 43 117 33 c 1,19,-1
 272 33 l 1,20,-1
 276 79 l 1,21,-1
 278 134 l 2,22,23
 278 174 278 174 275 203 c 128,-1,24
 272 232 272 232 264 255 c 0,25,26
 244 317 244 317 199 324 c 1,10,11
221 326 m 1,27,28
 308 317 308 317 342 246 c 0,29,30
 366 196 366 196 366 108 c 2,31,-1
 365 68 l 1,32,-1
 364 34 l 2,33,34
 364 7 364 7 371 0 c 1,35,-1
 15 0 l 1,36,37
 17 2 17 2 19 15 c 2,38,-1
 20 45 l 1,39,-1
 20 88 l 2,40,41
 20 190 20 190 42 243 c 0,42,43
 77 326 77 326 172 326 c 1,44,45
 91 355 91 355 61 423 c 1,46,-1
 37 580 l 1,47,-1
 361 580 l 1,48,49
 361 481 361 481 330 411 c 128,-1,50
 299 341 299 341 221 326 c 1,27,28
EndSplineSet
EndChar

StartChar: j
Encoding: 61546 61546 100
Width: 875
GlyphClass: 2
Flags: W
LayerCount: 2
Fore
SplineSet
564 546 m 1,0,-1
 579 418 l 2,1,2
 582 390 582 390 584 364 c 128,-1,3
 586 338 586 338 586 316 c 1,4,5
 660 327 660 327 685 391 c 0,6,7
 703 436 703 436 703 546 c 1,8,-1
 564 546 l 1,0,-1
477 284 m 1,9,-1
 333 284 l 1,10,11
 333 264 333 264 334 219 c 128,-1,12
 335 174 335 174 335 148 c 2,13,-1
 341 0 l 1,14,-1
 301 -1 l 1,15,-1
 260 -2 l 1,16,-1
 243 -2 l 2,17,18
 236 -2 236 -2 232 0 c 1,19,20
 235 14 235 14 235 82 c 2,21,-1
 232 297 l 1,22,-1
 230 457 l 2,23,24
 230 536 230 536 234 547 c 1,25,-1
 106 547 l 1,26,27
 110 543 110 543 113 510 c 2,28,-1
 115 428 l 1,29,-1
 111 229 l 1,30,-1
 107 52 l 2,31,32
 107 11 107 11 110 0 c 1,33,-1
 0 0 l 1,34,35
 3 5 3 5 6 25.5 c 128,-1,36
 9 46 9 46 9 81 c 2,37,-1
 13 260 l 1,38,-1
 10 469 l 2,39,40
 10 518 10 518 8 543 c 128,-1,41
 6 568 6 568 2 580 c 1,42,-1
 339 580 l 1,43,-1
 333 316 l 1,44,-1
 476 316 l 1,45,46
 476 404 476 404 465 483 c 128,-1,47
 454 562 454 562 442 580 c 1,48,-1
 839 580 l 1,49,-1
 773 374 l 1,50,51
 723 284 723 284 586 284 c 1,52,-1
 582 186 l 1,53,-1
 579 64 l 2,54,55
 579 13 579 13 584 0 c 1,56,-1
 454 0 l 1,57,-1
 464 51 l 2,58,59
 468 69 468 69 472.5 96 c 128,-1,60
 477 123 477 123 477 133 c 2,61,-1
 477 284 l 1,9,-1
EndSplineSet
EndChar

StartChar: k
Encoding: 61547 61547 101
Width: 500
GlyphClass: 2
Flags: W
LayerCount: 2
Fore
SplineSet
461 221 m 1,0,1
 450 194 450 194 442 159 c 0,2,3
 439 137 439 137 438 126 c 128,-1,4
 437 115 437 115 437 92 c 0,5,6
 437 52 437 52 440.5 28 c 128,-1,7
 444 4 444 4 448 0 c 1,8,-1
 319 0 l 1,9,10
 325 21 325 21 328 52 c 2,11,-1
 331 125 l 1,12,-1
 331 139 l 1,13,-1
 331 162 l 1,14,-1
 328 178 l 1,15,-1
 203 178 l 1,16,-1
 0 178 l 1,17,-1
 2 195 l 1,18,-1
 1 204 l 1,19,-1
 0 211 l 1,20,-1
 43 211 l 2,21,22
 115 211 115 211 171.5 261.5 c 128,-1,23
 228 312 228 312 228 372 c 2,24,-1
 228 436 l 2,25,26
 228 455 228 455 228 474 c 0,27,28
 226 493 226 493 226 499 c 0,29,30
 226 520 226 520 216 580 c 1,31,-1
 353 580 l 1,32,33
 349 563 349 563 345.5 529.5 c 128,-1,34
 342 496 342 496 342 449 c 0,35,36
 342 401 342 401 338.5 369 c 128,-1,37
 335 337 335 337 330 322 c 0,38,39
 318 285 318 285 260 242 c 1,40,-1
 206 211 l 1,41,-1
 353 211 l 1,42,-1
 372 211 l 2,43,44
 381 211 381 211 390 211 c 0,45,46
 403 213 403 213 417 214 c 128,-1,47
 431 215 431 215 441 216.5 c 128,-1,48
 451 218 451 218 461 221 c 1,0,1
EndSplineSet
EndChar

StartChar: l
Encoding: 61548 61548 102
Width: 885
GlyphClass: 2
Flags: W
LayerCount: 2
Fore
SplineSet
494 547 m 1,0,-1
 354 547 l 1,1,2
 354 480 354 480 351 384 c 128,-1,3
 348 288 348 288 348 259 c 0,4,5
 348 207 348 207 342 152 c 128,-1,6
 336 97 336 97 322 0 c 1,7,-1
 10 0 l 1,8,-1
 10 580 l 1,9,-1
 256 580 l 1,10,-1
 236 800 l 1,11,-1
 608 800 l 1,12,-1
 600 717 l 2,13,14
 600 683 600 683 597.5 650.5 c 128,-1,15
 595 618 595 618 592 580 c 1,16,-1
 838 580 l 1,17,-1
 838 0 l 1,18,-1
 526 0 l 1,19,20
 506 153 506 153 505 168 c 0,21,22
 500 219 500 219 500 262 c 0,23,24
 500 324 500 324 499 358 c 0,25,26
 494 529 494 529 494 547 c 1,0,-1
357 580 m 1,27,-1
 495 580 l 1,28,29
 495 599 495 599 497 649 c 128,-1,30
 499 699 499 699 499 710 c 0,31,32
 499 727 499 727 499 745 c 0,33,34
 502 763 502 763 503 772 c 1,35,-1
 349 772 l 1,36,-1
 354 685 l 1,37,-1
 357 580 l 1,27,-1
105 547 m 1,38,39
 110 535 110 535 116 472 c 2,40,-1
 120 348 l 2,41,42
 120 312 120 312 117.5 248.5 c 128,-1,43
 115 185 115 185 115 170 c 0,44,45
 115 128 115 128 111.5 97.5 c 128,-1,46
 108 67 108 67 102 33 c 1,47,-1
 223 33 l 1,48,49
 233 75 233 75 241 128.5 c 128,-1,50
 249 182 249 182 249 240 c 0,51,52
 249 282 249 282 253 384 c 128,-1,53
 257 486 257 486 257 547 c 1,54,-1
 105 547 l 1,38,39
742 33 m 1,55,-1
 729 214 l 1,56,-1
 726 353 l 2,57,58
 726 449 726 449 735 547 c 1,59,-1
 591 547 l 1,60,61
 591 469 591 469 594.5 359.5 c 128,-1,62
 598 250 598 250 598 234 c 0,63,64
 598 176 598 176 605 127.5 c 128,-1,65
 612 79 612 79 625 33 c 1,66,-1
 742 33 l 1,55,-1
EndSplineSet
EndChar

StartChar: m
Encoding: 61549 61549 103
Width: 670
GlyphClass: 2
Flags: W
LayerCount: 2
Fore
SplineSet
502 0 m 1,0,1
 503 5 503 5 507 27.5 c 128,-1,2
 511 50 511 50 514.5 82.5 c 128,-1,3
 518 115 518 115 518 173 c 0,4,5
 518 196 518 196 516 253.5 c 128,-1,6
 514 311 514 311 514 321 c 0,7,8
 514 364 514 364 511.5 392.5 c 128,-1,9
 509 421 509 421 498 532 c 1,10,11
 448 500 448 500 410 436 c 0,12,13
 362 355 362 355 362 312 c 0,14,15
 362 214 362 214 363 152 c 128,-1,16
 364 90 364 90 368 51 c 128,-1,17
 372 12 372 12 382 0 c 1,18,-1
 250 0 l 1,19,20
 258 6 258 6 258 49 c 2,21,-1
 260 175 l 1,22,-1
 259 342 l 1,23,-1
 258 534 l 1,24,25
 176 452 176 452 137 360 c 0,26,27
 120 317 120 317 110 262 c 128,-1,28
 100 207 100 207 100 148 c 0,29,30
 100 77 100 77 112 45 c 0,31,32
 114 39 114 39 120.5 28.5 c 128,-1,33
 127 18 127 18 141 0 c 1,34,-1
 0 0 l 1,35,-1
 2 34 l 1,36,-1
 2 67 l 1,37,-1
 1 115 l 1,38,-1
 0 153 l 2,39,40
 0 230 0 230 30 301 c 0,41,42
 66 388 66 388 156 478 c 1,43,-1
 225 542 l 2,44,45
 263 577 263 577 275 595 c 1,46,-1
 364 595 l 1,47,-1
 358 506 l 1,48,-1
 356 416 l 1,49,50
 374 455 374 455 421 502 c 2,51,-1
 530 606 l 1,52,-1
 605 606 l 1,53,-1
 628 262 l 1,54,-1
 628 0 l 1,55,-1
 502 0 l 1,0,1
EndSplineSet
EndChar

StartChar: n
Encoding: 61550 61550 104
Width: 425
GlyphClass: 2
Flags: W
LayerCount: 2
Fore
SplineSet
35 293 m 2,0,1
 35 373 35 373 23.5 468.5 c 128,-1,2
 12 564 12 564 0 580 c 1,3,-1
 397 580 l 1,4,-1
 331 374 l 1,5,6
 281 284 281 284 144 284 c 1,7,-1
 138 178 l 1,8,-1
 136 23 l 1,9,-1
 181 23 l 1,10,-1
 236 23 l 2,11,12
 260 23 260 23 289 37 c 2,13,-1
 302 44 l 1,14,-1
 288 29 l 2,15,16
 282 23 282 23 272 0 c 1,17,-1
 12 0 l 1,18,19
 15 8 15 8 17.5 18.5 c 128,-1,20
 20 29 20 29 24 49.5 c 128,-1,21
 28 70 28 70 31.5 92.5 c 128,-1,22
 35 115 35 115 35 133 c 2,23,-1
 35 293 l 2,0,1
122 546 m 1,24,-1
 137 418 l 2,25,26
 140 390 140 390 142 364 c 128,-1,27
 144 338 144 338 144 316 c 1,28,29
 218 327 218 327 243 391 c 0,30,31
 261 436 261 436 261 546 c 1,32,-1
 122 546 l 1,24,-1
EndSplineSet
EndChar

StartChar: o
Encoding: 61551 61551 105
Width: 455
GlyphClass: 2
Flags: W
LayerCount: 2
Fore
SplineSet
296 34 m 1,0,-1
 280 264 l 1,1,2
 206 254 206 254 170 189 c 0,3,4
 141 134 141 134 141 34 c 1,5,-1
 296 34 l 1,0,-1
292 547 m 1,6,-1
 151 547 l 1,7,8
 151 443 151 443 196 398 c 0,9,10
 223 371 223 371 266 371 c 2,11,-1
 275 371 l 1,12,-1
 280 372 l 1,13,-1
 286 470 l 1,14,-1
 292 547 l 1,6,-1
398 580 m 1,15,16
 391 539 391 539 388 520 c 0,17,18
 382 475 382 475 382 437 c 2,19,-1
 375 287 l 1,20,21
 375 199 375 199 386.5 108.5 c 128,-1,22
 398 18 398 18 410 0 c 1,23,-1
 13 0 l 1,24,25
 40 121 40 121 52 152 c 0,26,27
 77 222 77 222 125 256 c 0,28,29
 180 294 180 294 280 294 c 1,30,-1
 281 312 l 1,31,-1
 281 323 l 1,32,-1
 280 332 l 1,33,34
 169 332 169 332 112 376 c 0,35,36
 34 436 34 436 34 580 c 1,37,-1
 398 580 l 1,15,16
EndSplineSet
EndChar

StartChar: p
Encoding: 61552 61552 106
Width: 640
GlyphClass: 2
Flags: W
LayerCount: 2
Fore
SplineSet
496 33 m 1,0,-1
 483 214 l 1,1,-1
 480 353 l 2,2,3
 480 449 480 449 489 547 c 1,4,-1
 345 547 l 1,5,6
 345 469 345 469 348.5 359.5 c 128,-1,7
 352 250 352 250 352 234 c 0,8,9
 352 176 352 176 359 127.5 c 128,-1,10
 366 79 366 79 379 33 c 1,11,-1
 496 33 l 1,0,-1
112 547 m 1,12,13
 115 541 115 541 118 514 c 2,14,-1
 120 448 l 2,15,16
 120 425 120 425 119 379 c 128,-1,17
 118 333 118 333 118 310 c 2,18,-1
 111 40 l 2,19,20
 111 -5 111 -5 112 -43.5 c 128,-1,21
 113 -82 113 -82 117.5 -129.5 c 128,-1,22
 122 -177 122 -177 136 -200 c 1,23,-1
 10 -200 l 1,24,25
 14 -192 14 -192 17.5 -153 c 128,-1,26
 21 -114 21 -114 21 -56 c 2,27,-1
 25 242 l 2,28,29
 25 314 25 314 23.5 377.5 c 128,-1,30
 22 441 22 441 21 479 c 0,31,32
 21 524 21 524 18 548.5 c 128,-1,33
 15 573 15 573 10 580 c 1,34,-1
 592 580 l 1,35,-1
 592 0 l 1,36,-1
 280 0 l 1,37,-1
 282 25 l 2,38,39
 282 65 282 65 273 158 c 2,40,-1
 256 360 l 2,41,42
 256 401 256 401 254 436 c 0,43,44
 248 542 248 542 248 547 c 1,45,-1
 112 547 l 1,12,13
EndSplineSet
EndChar

StartChar: q
Encoding: 61553 61553 107
Width: 700
GlyphClass: 2
Flags: W
LayerCount: 2
Fore
SplineSet
17 580 m 1,0,-1
 43 575 l 1,1,-1
 73 574 l 1,2,-1
 88 574 l 2,3,4
 94 574 94 574 100 574 c 0,5,6
 108 576 108 576 111 576 c 2,7,-1
 138 580 l 1,8,9
 135 575 135 575 132 555 c 2,10,-1
 130 510 l 1,11,-1
 131 450 l 1,12,-1
 132 394 l 2,13,14
 132 362 132 362 128 355 c 1,15,-1
 272 355 l 1,16,-1
 270 373 l 1,17,-1
 269 395 l 1,18,-1
 270 451 l 1,19,-1
 271 512 l 1,20,-1
 271 548 l 2,21,22
 271 573 271 573 262 580 c 1,23,-1
 297 575 l 1,24,-1
 335 573 l 1,25,-1
 368 574 l 1,26,-1
 395 580 l 1,27,28
 391 575 391 575 388 556 c 2,29,-1
 386 511 l 1,30,-1
 387 451 l 2,31,32
 387 436 387 436 387 423 c 128,-1,33
 387 410 387 410 389 393 c 0,34,35
 389 360 389 360 385 355 c 1,36,-1
 536 355 l 1,37,-1
 533 380 l 1,38,-1
 533 419 l 1,39,-1
 533 514 l 1,40,-1
 533 535 l 2,41,42
 533 568 533 568 530 580 c 1,43,-1
 572 576 l 1,44,-1
 601 575 l 1,45,-1
 623 576 l 2,46,47
 627 576 627 576 633 576.5 c 128,-1,48
 639 577 639 577 653 580 c 1,49,50
 651 575 651 575 646 542 c 2,51,-1
 643 479 l 1,52,-1
 646 380 l 2,53,54
 646 362 646 362 648.5 347.5 c 128,-1,55
 651 333 651 333 655 322 c 1,56,57
 645 327 645 327 624 327 c 2,58,-1
 562 324 l 1,59,-1
 489 322 l 1,60,61
 494 319 494 319 494 164 c 0,62,63
 494 12 494 12 509 0 c 1,64,-1
 142 0 l 1,65,66
 157 11 157 11 157 111 c 2,67,-1
 162 322 l 1,68,-1
 121 325 l 1,69,-1
 71 326 l 1,70,-1
 41 326 l 2,71,72
 28 326 28 326 13 322 c 1,73,74
 16 328 16 328 21 375 c 2,75,-1
 24 476 l 1,76,-1
 23 545 l 2,77,78
 23 566 23 566 17 580 c 1,0,-1
272 322 m 1,79,-1
 267 280 l 1,80,-1
 265 225 l 2,81,82
 265 208 265 208 266 174 c 128,-1,83
 267 140 267 140 267 122 c 2,84,-1
 272 33 l 1,85,-1
 385 33 l 1,86,-1
 384 51 l 1,87,-1
 388 147 l 1,88,-1
 393 247 l 1,89,-1
 393 269 l 2,90,91
 393 283 393 283 391 295 c 0,92,93
 391 308 391 308 385 322 c 1,94,-1
 272 322 l 1,79,-1
EndSplineSet
EndChar

StartChar: r
Encoding: 61554 61554 108
Width: 440
GlyphClass: 2
Flags: W
LayerCount: 2
Fore
SplineSet
0 0 m 1,0,1
 9 13 9 13 22 107.5 c 128,-1,2
 35 202 35 202 35 287 c 2,3,-1
 35 447 l 2,4,5
 35 475 35 475 25 526 c 0,6,7
 22 545 22 545 16 566 c 0,8,9
 15 572 15 572 12 580 c 1,10,-1
 327 580 l 1,11,12
 333 562 333 562 339 556 c 2,13,-1
 357 536 l 1,14,-1
 336 546 l 2,15,16
 308 557 308 557 291 557 c 2,17,-1
 187 557 l 1,18,-1
 136 557 l 1,19,20
 136 407 136 407 140 379 c 2,21,-1
 144 326 l 1,22,23
 272 326 272 326 331 272 c 0,24,25
 374 232 374 232 386 144 c 0,26,27
 386 119 386 119 387.5 99 c 128,-1,28
 389 79 389 79 397 0 c 1,29,-1
 0 0 l 1,0,1
144 294 m 1,30,31
 144 261 144 261 142 232 c 128,-1,32
 140 203 140 203 133 146 c 2,33,-1
 122 34 l 1,34,-1
 295 34 l 1,35,-1
 295 82 l 2,36,37
 295 205 295 205 255 249 c 0,38,39
 237 269 237 269 208.5 281.5 c 128,-1,40
 180 294 180 294 144 294 c 1,30,31
EndSplineSet
EndChar

StartChar: s
Encoding: 61555 61555 109
Width: 744
GlyphClass: 2
Flags: W
LayerCount: 2
Fore
SplineSet
530 0 m 1,0,-1
 180 0 l 1,1,2
 185 13 185 13 192 68.5 c 128,-1,3
 199 124 199 124 199 168 c 0,4,5
 199 196 199 196 196 214 c 1,6,7
 114 223 114 223 65 258 c 128,-1,8
 16 293 16 293 16 372 c 0,9,10
 16 482 16 482 111 534 c 0,11,12
 153 556 153 556 214 568 c 128,-1,13
 275 580 275 580 355 580 c 0,14,15
 494 580 494 580 587 532 c 0,16,17
 694 476 694 476 694 372 c 0,18,19
 694 295 694 295 644 258 c 1,20,-1
 516 214 l 1,21,22
 513 194 513 194 513 160 c 0,23,24
 513 137 513 137 514 113 c 128,-1,25
 515 89 515 89 518.5 53 c 128,-1,26
 522 17 522 17 530 0 c 1,0,-1
355 395 m 0,27,28
 460 395 460 395 490 347 c 0,29,30
 495 338 495 338 515 244 c 1,31,32
 545 244 545 244 563 254.5 c 128,-1,33
 581 265 581 265 590 292 c 0,34,35
 594 304 594 304 596 322.5 c 128,-1,36
 598 341 598 341 598 372 c 0,37,38
 598 418 598 418 546 473 c 0,39,40
 475 547 475 547 355 547 c 0,41,42
 250 547 250 547 185 502 c 0,43,44
 112 449 112 449 112 372 c 2,45,-1
 112 354 l 2,46,47
 112 309 112 309 122 283 c 0,48,49
 137 243 137 243 181 243 c 2,50,-1
 195 244 l 1,51,52
 216 341 216 341 220 346 c 0,53,54
 251 395 251 395 355 395 c 0,27,28
293 33 m 1,55,-1
 417 33 l 2,56,57
 420 36 420 36 423 56 c 2,58,-1
 425 106 l 1,59,-1
 422 199 l 2,60,61
 422 215 422 215 421.5 230.5 c 128,-1,62
 421 246 421 246 417 285 c 0,63,64
 408 340 408 340 392.5 360.5 c 128,-1,65
 377 381 377 381 355 387 c 1,66,67
 335 381 335 381 318 351 c 0,68,69
 305 323 305 323 297 285 c 1,70,-1
 297 267 l 2,71,72
 297 260 297 260 297 254 c 0,73,74
 295 245 295 245 295 242 c 2,75,-1
 288 86 l 2,76,77
 288 38 288 38 293 33 c 1,55,-1
EndSplineSet
EndChar

StartChar: t
Encoding: 61556 61556 110
Width: 880
GlyphClass: 2
Flags: W
LayerCount: 2
Fore
SplineSet
0 580 m 1,0,-1
 582 580 l 1,1,-1
 828 580 l 1,2,-1
 828 0 l 1,3,-1
 516 0 l 1,4,5
 496 153 496 153 495 168 c 0,6,7
 490 219 490 219 490 262 c 0,8,9
 490 324 490 324 489 358 c 0,10,11
 484 529 484 529 484 547 c 1,12,-1
 344 547 l 1,13,14
 344 480 344 480 341 384 c 128,-1,15
 338 288 338 288 338 259 c 0,16,17
 338 207 338 207 332 152 c 128,-1,18
 326 97 326 97 312 0 c 1,19,-1
 0 0 l 1,20,-1
 0 580 l 1,0,-1
95 547 m 1,21,22
 100 535 100 535 106 472 c 2,23,-1
 110 348 l 2,24,25
 110 312 110 312 107.5 248.5 c 128,-1,26
 105 185 105 185 105 170 c 0,27,28
 105 128 105 128 101.5 97.5 c 128,-1,29
 98 67 98 67 92 33 c 1,30,-1
 213 33 l 1,31,32
 223 75 223 75 231 128.5 c 128,-1,33
 239 182 239 182 239 240 c 0,34,35
 239 282 239 282 243 384 c 128,-1,36
 247 486 247 486 247 547 c 1,37,-1
 95 547 l 1,21,22
732 33 m 1,38,-1
 719 214 l 1,39,-1
 716 353 l 2,40,41
 716 449 716 449 725 547 c 1,42,-1
 581 547 l 1,43,44
 581 469 581 469 584.5 359.5 c 128,-1,45
 588 250 588 250 588 234 c 0,46,47
 588 176 588 176 595 127.5 c 128,-1,48
 602 79 602 79 615 33 c 1,49,-1
 732 33 l 1,38,-1
EndSplineSet
EndChar

StartChar: u
Encoding: 61557 61557 111
Width: 695
GlyphClass: 2
Flags: W
LayerCount: 2
Fore
SplineSet
13 0 m 1,0,1
 40 121 40 121 52 152 c 0,2,3
 77 222 77 222 125 256 c 0,4,5
 180 294 180 294 280 294 c 1,6,-1
 280 332 l 1,7,8
 169 332 169 332 112 376 c 0,9,10
 34 436 34 436 34 580 c 1,11,-1
 396 580 l 1,12,-1
 482 580 l 2,13,14
 552 580 552 580 605 481 c 0,15,16
 654 386 654 386 654 286 c 0,17,18
 654 117 654 117 607 55 c 0,19,20
 564 0 564 0 482 0 c 2,21,-1
 412 0 l 1,22,-1
 13 0 l 1,0,1
296 34 m 1,23,-1
 280 264 l 1,24,25
 206 254 206 254 170 189 c 0,26,27
 141 134 141 134 141 34 c 1,28,-1
 296 34 l 1,23,-1
292 547 m 1,29,-1
 151 547 l 1,30,31
 151 443 151 443 196 398 c 0,32,33
 223 371 223 371 266 371 c 2,34,-1
 275 371 l 1,35,-1
 280 372 l 1,36,-1
 286 470 l 1,37,-1
 292 547 l 1,29,-1
390 547 m 1,38,39
 385 527 385 527 381.5 503 c 128,-1,40
 378 479 378 479 378 458 c 2,41,-1
 374 334 l 1,42,-1
 560 334 l 1,43,44
 560 414 560 414 533 477 c 0,45,46
 503 547 503 547 450 547 c 2,47,-1
 390 547 l 1,38,39
462 33 m 2,48,49
 510 33 510 33 535.5 72.5 c 128,-1,50
 561 112 561 112 561 237 c 2,51,-1
 561 296 l 1,52,-1
 374 296 l 1,53,54
 374 202 374 202 381.5 131 c 128,-1,55
 389 60 389 60 400 33 c 1,56,-1
 462 33 l 2,48,49
EndSplineSet
EndChar

StartChar: v
Encoding: 61558 61558 112
Width: 875
GlyphClass: 2
Flags: W
LayerCount: 2
Fore
SplineSet
832 0 m 1,0,-1
 250 0 l 1,1,-1
 4 0 l 1,2,-1
 4 580 l 1,3,-1
 316 580 l 1,4,5
 331 465 331 465 333 444 c 0,6,7
 341 371 341 371 341 317 c 0,8,9
 341 276 341 276 344.5 181 c 128,-1,10
 348 86 348 86 348 33 c 1,11,-1
 488 33 l 1,12,13
 488 114 488 114 490.5 217 c 128,-1,14
 493 320 493 320 493 321 c 0,15,16
 493 378 493 378 504 460 c 128,-1,17
 515 542 515 542 520 580 c 1,18,-1
 832 580 l 1,19,-1
 832 0 l 1,0,-1
100 547 m 1,20,21
 100 513 100 513 108 426 c 0,22,23
 112 383 112 383 112 365 c 2,24,-1
 116 227 l 2,25,26
 116 131 116 131 107 33 c 1,27,-1
 251 33 l 1,28,29
 251 111 251 111 247.5 220.5 c 128,-1,30
 244 330 244 330 244 346 c 0,31,32
 244 404 244 404 237 452.5 c 128,-1,33
 230 501 230 501 217 547 c 1,34,-1
 100 547 l 1,20,21
737 33 m 1,35,36
 732 45 732 45 726 107 c 1,37,-1
 722 232 l 2,38,39
 722 268 722 268 724.5 331.5 c 128,-1,40
 727 395 727 395 727 409 c 0,41,42
 727 451 727 451 730.5 482.5 c 128,-1,43
 734 514 734 514 740 547 c 1,44,-1
 619 547 l 1,45,46
 607 499 607 499 601 460 c 0,47,48
 592 402 592 402 592 339 c 0,49,50
 592 292 592 292 590 233 c 0,51,52
 585 84 585 84 585 33 c 1,53,-1
 737 33 l 1,35,36
EndSplineSet
EndChar

StartChar: w
Encoding: 61559 61559 113
Width: 620
GlyphClass: 2
Flags: W
LayerCount: 2
Fore
SplineSet
574 580 m 1,0,1
 568 569 568 569 564.5 535 c 128,-1,2
 561 501 561 501 561 467 c 0,3,4
 561 421 561 421 560 391 c 0,5,6
 556 271 556 271 556 252 c 0,7,8
 556 197 556 197 557 155.5 c 128,-1,9
 558 114 558 114 559 76 c 0,10,11
 559 48 559 48 562.5 27.5 c 128,-1,12
 566 7 566 7 572 0 c 1,13,-1
 2 0 l 1,14,15
 5 11 5 11 7.5 40 c 128,-1,16
 10 69 10 69 10 111 c 2,17,-1
 13 321 l 1,18,-1
 10 496 l 2,19,20
 10 531 10 531 7 552.5 c 128,-1,21
 4 574 4 574 0 580 c 1,22,-1
 110 580 l 1,23,24
 107 571 107 571 107 523 c 2,25,-1
 111 344 l 1,26,-1
 115 147 l 1,27,-1
 115 86 l 2,28,29
 115 44 115 44 106 33 c 1,30,-1
 234 33 l 1,31,-1
 231 64 l 1,32,-1
 230 128 l 1,33,-1
 232 354 l 1,34,-1
 235 503 l 1,35,-1
 235 517 l 1,36,-1
 235 529 l 2,37,38
 235 568 235 568 232 580 c 1,39,-1
 263 582 l 1,40,-1
 303 581 l 1,41,-1
 341 580 l 1,42,43
 339 572 339 572 337 538 c 128,-1,44
 335 504 335 504 335 489 c 2,45,-1
 333 308 l 1,46,-1
 334 115 l 2,47,48
 334 51 334 51 339 33 c 1,49,-1
 455 33 l 1,50,51
 457 47 457 47 460 96 c 128,-1,52
 463 145 463 145 463 167 c 2,53,-1
 468 380 l 2,54,55
 468 410 468 410 466 456 c 128,-1,56
 464 502 464 502 464 517 c 0,57,58
 464 542 464 542 461 557.5 c 128,-1,59
 458 573 458 573 453 580 c 1,60,-1
 574 580 l 1,0,1
EndSplineSet
EndChar

StartChar: x
Encoding: 61560 61560 114
Width: 875
GlyphClass: 2
Flags: W
LayerCount: 2
Fore
SplineSet
732 33 m 1,0,-1
 719 214 l 1,1,-1
 716 353 l 2,2,3
 716 449 716 449 725 547 c 1,4,-1
 581 547 l 1,5,6
 581 469 581 469 584.5 359.5 c 128,-1,7
 588 250 588 250 588 234 c 0,8,9
 588 176 588 176 595 127.5 c 128,-1,10
 602 79 602 79 615 33 c 1,11,-1
 732 33 l 1,0,-1
95 547 m 1,12,13
 100 535 100 535 106 472 c 2,14,-1
 110 348 l 2,15,16
 110 312 110 312 107.5 248.5 c 128,-1,17
 105 185 105 185 105 170 c 0,18,19
 105 128 105 128 101.5 97.5 c 128,-1,20
 98 67 98 67 92 33 c 1,21,-1
 213 33 l 1,22,23
 223 75 223 75 231 128.5 c 128,-1,24
 239 182 239 182 239 240 c 0,25,26
 239 282 239 282 243 384 c 128,-1,27
 247 486 247 486 247 547 c 1,28,-1
 95 547 l 1,12,13
0 580 m 1,29,-1
 358 580 l 1,30,31
 316 649 316 649 283 697 c 0,32,33
 247 750 247 750 230 767 c 1,34,-1
 120 768 l 2,35,36
 101 768 101 768 65.5 769 c 128,-1,37
 30 770 30 770 14 770 c 1,38,-1
 17 788 l 1,39,-1
 14 800 l 1,40,-1
 340 800 l 1,41,-1
 426 662 l 1,42,-1
 466 718 l 2,43,44
 506 777 506 777 512 800 c 1,45,-1
 814 800 l 1,46,-1
 811 782 l 1,47,-1
 814 772 l 1,48,-1
 759 772 l 1,49,-1
 708 773 l 2,50,51
 644 773 644 773 614 767 c 0,52,53
 603 767 603 767 537 685 c 0,54,55
 476 606 476 606 466 580 c 1,56,-1
 828 580 l 1,57,-1
 828 0 l 1,58,-1
 516 0 l 1,59,60
 496 153 496 153 495 168 c 0,61,62
 490 219 490 219 490 262 c 0,63,64
 490 324 490 324 489 358 c 0,65,66
 484 529 484 529 484 547 c 1,67,-1
 344 547 l 1,68,69
 344 480 344 480 341 384 c 128,-1,70
 338 288 338 288 338 259 c 0,71,72
 338 207 338 207 332 152 c 128,-1,73
 326 97 326 97 312 0 c 1,74,-1
 0 0 l 1,75,-1
 0 580 l 1,29,-1
EndSplineSet
EndChar

StartChar: y
Encoding: 61561 61561 115
Width: 645
GlyphClass: 2
Flags: W
LayerCount: 2
Fore
SplineSet
368 470 m 1,0,1
 364 466 364 466 364 447 c 2,2,-1
 363 422 l 1,3,-1
 364 348 l 1,4,-1
 367 283 l 2,5,6
 367 259 367 259 364 253 c 1,7,-1
 493 253 l 1,8,-1
 490 277 l 1,9,-1
 489 325 l 1,10,-1
 490 402 l 1,11,-1
 493 470 l 1,12,-1
 368 470 l 1,0,1
251 220 m 1,13,-1
 245 196 l 1,14,-1
 243 158 l 1,15,-1
 243 116 l 1,16,-1
 244 76 l 2,17,18
 244 39 244 39 239 33 c 1,19,-1
 370 33 l 1,20,21
 368 37 368 37 367 43 c 128,-1,22
 366 49 366 49 366 65 c 2,23,-1
 368 133 l 1,24,-1
 371 182 l 2,25,26
 371 211 371 211 366 220 c 1,27,-1
 251 220 l 1,13,-1
459 220 m 1,28,29
 473 204 473 204 473 106 c 0,30,31
 473 9 473 9 482 0 c 1,32,-1
 136 0 l 1,33,34
 138 2 138 2 141 15 c 2,35,-1
 142 53 l 1,36,-1
 141 97 l 1,37,-1
 141 143 l 1,38,-1
 142 195 l 2,39,40
 144 212 144 212 150 220 c 1,41,-1
 111 224 l 1,42,-1
 63 226 l 2,43,44
 28 226 28 226 16 220 c 1,45,46
 18 227 18 227 20 262 c 128,-1,47
 22 297 22 297 22 314 c 2,48,-1
 25 480 l 1,49,-1
 25 501 l 1,50,-1
 25 517 l 1,51,-1
 25 529 l 2,52,53
 25 572 25 572 20 580 c 1,54,55
 51 576 51 576 62 575.5 c 128,-1,56
 73 575 73 575 86 575 c 0,57,58
 111 575 111 575 121.5 577 c 128,-1,59
 132 579 132 579 136 580 c 1,60,61
 130 557 130 557 130 532 c 2,62,-1
 133 502 l 1,63,-1
 374 502 l 1,64,-1
 378 525 l 1,65,-1
 380 558 l 1,66,-1
 378 580 l 1,67,-1
 409 576 l 1,68,-1
 440 575 l 2,69,70
 450 575 450 575 462.5 576 c 128,-1,71
 475 577 475 577 487 580 c 1,72,-1
 483 541 l 1,73,-1
 484 518 l 1,74,-1
 487 502 l 1,75,-1
 586 498 l 2,76,77
 594 498 594 498 601 502 c 1,78,79
 599 495 599 495 596.5 475.5 c 128,-1,80
 594 456 594 456 593 445 c 2,81,-1
 590 348 l 1,82,-1
 593 269 l 2,83,84
 593 236 593 236 601 220 c 1,85,-1
 581 224 l 1,86,-1
 550 225 l 1,87,-1
 477 222 l 1,88,-1
 459 220 l 1,28,29
134 470 m 1,89,-1
 131 445 l 1,90,-1
 131 407 l 1,91,-1
 131 335 l 1,92,-1
 131 320 l 1,93,-1
 130 273 l 2,94,95
 130 259 130 259 124 253 c 1,96,-1
 259 253 l 1,97,98
 255 261 255 261 255 295 c 2,99,-1
 256 352 l 2,100,101
 256 367 256 367 256 380.5 c 128,-1,102
 256 394 256 394 258 413 c 0,103,104
 258 459 258 459 251 470 c 1,105,-1
 178 470 l 1,106,-1
 134 470 l 1,89,-1
EndSplineSet
EndChar

StartChar: z
Encoding: 61562 61562 116
Width: 740
GlyphClass: 2
Flags: W
LayerCount: 2
Fore
SplineSet
147 597 m 1,0,1
 145 586 145 586 141.5 552.5 c 128,-1,2
 138 519 138 519 138 485 c 2,3,-1
 135 355 l 1,4,-1
 254 355 l 1,5,6
 257 369 257 369 257 411 c 2,7,-1
 257 426 l 1,8,-1
 257 439 l 2,9,10
 257 459 257 459 257 480 c 0,11,12
 254 507 254 507 253 519 c 0,13,14
 253 542 253 542 250 560.5 c 128,-1,15
 247 579 247 579 242 597 c 1,16,-1
 147 597 l 1,0,1
606 322 m 1,17,-1
 491 322 l 1,18,19
 485 302 485 302 485 270 c 0,20,21
 485 241 485 241 487 217.5 c 128,-1,22
 489 194 489 194 495 159 c 128,-1,23
 501 124 501 124 507.5 94.5 c 128,-1,24
 514 65 514 65 524 33 c 1,25,-1
 620 33 l 1,26,27
 614 50 614 50 608 116.5 c 128,-1,28
 602 183 602 183 602 245 c 2,29,-1
 602 279 l 1,30,-1
 606 322 l 1,17,-1
108 -95 m 1,31,32
 173 -21 173 -21 221 138 c 0,33,34
 255 253 255 253 255 308 c 0,35,36
 255 318 255 318 254 322 c 1,37,-1
 138 322 l 1,38,39
 138 300 138 300 137 286 c 0,40,41
 132 216 132 216 132 198 c 0,42,43
 132 151 132 151 123.5 63.5 c 128,-1,44
 115 -24 115 -24 108 -95 c 1,31,32
256 60 m 0,45,46
 198 -38 198 -38 159 -84 c 0,47,48
 112 -140 112 -140 31 -200 c 1,49,50
 34 -186 34 -186 37.5 -138.5 c 128,-1,51
 41 -91 41 -91 41 -36 c 2,52,-1
 45 252 l 2,53,54
 45 328 45 328 43.5 396.5 c 128,-1,55
 42 465 42 465 41 506 c 0,56,57
 41 552 41 552 38 583.5 c 128,-1,58
 35 615 35 615 31 630 c 1,59,-1
 357 630 l 1,60,61
 355 624 355 624 351.5 604.5 c 128,-1,62
 348 585 348 585 348 564 c 0,63,64
 348 521 348 521 347 482.5 c 128,-1,65
 346 444 346 444 345 409 c 2,66,-1
 345 355 l 1,67,-1
 710 355 l 1,68,69
 708 351 708 351 707 343 c 0,70,71
 703 320 703 320 703 290 c 2,72,-1
 700 169 l 2,73,74
 700 145 700 145 701 108 c 128,-1,75
 702 71 702 71 702 58 c 0,76,77
 702 14 702 14 710 0 c 1,78,-1
 438 0 l 1,79,80
 426 22 426 22 410 134.5 c 128,-1,81
 394 247 394 247 394 322 c 1,82,-1
 342 322 l 1,83,84
 332 240 332 240 312 181 c 0,85,86
 302 149 302 149 289.5 122 c 128,-1,87
 277 95 277 95 256 60 c 0,45,46
EndSplineSet
EndChar

StartChar: braceleft
Encoding: 61563 61563 117
Width: 954
GlyphClass: 2
Flags: W
LayerCount: 2
Fore
SplineSet
265 250 m 1,0,-1
 265 325 l 1,1,-1
 119 325 l 1,2,-1
 89 315 l 1,3,-1
 89 358 l 1,4,-1
 119 349 l 1,5,-1
 265 349 l 1,6,-1
 265 400 l 1,7,8
 256 476 256 476 246 497 c 0,9,10
 219 561 219 561 143 561 c 0,11,12
 121 561 121 561 80.5 546 c 128,-1,13
 40 531 40 531 12 511 c 1,14,-1
 9 536 l 1,15,-1
 12 561 l 1,16,17
 38 567 38 567 57.5 570.5 c 128,-1,18
 77 574 77 574 98 577 c 2,19,-1
 169 581 l 1,20,-1
 188 582 l 2,21,22
 202 582 202 582 218 581.5 c 128,-1,23
 234 581 234 581 258 574 c 0,24,25
 305 562 305 562 324 534 c 0,26,27
 356 488 356 488 356 448 c 256,28,29
 356 408 356 408 363 397 c 1,30,31
 375 407 375 407 404 416 c 0,32,33
 436 424 436 424 458 424 c 0,34,35
 479 424 479 424 494 419 c 0,36,37
 506 417 506 417 515 414 c 128,-1,38
 524 411 524 411 547 402 c 1,39,40
 570 498 570 498 576 509 c 0,41,42
 612 583 612 583 693 583 c 2,43,-1
 796 583 l 1,44,-1
 863 570 l 2,45,46
 892 564 892 564 907 564 c 1,47,-1
 907 513 l 1,48,-1
 848 548 l 1,49,50
 814 561 814 561 778 561 c 0,51,52
 677 561 677 561 653 429 c 1,53,-1
 642 309 l 1,54,-1
 804 309 l 1,55,-1
 833 318 l 1,56,-1
 833 275 l 1,57,-1
 804 286 l 1,58,-1
 642 286 l 1,59,-1
 642 221 l 2,60,61
 642 105 642 105 673 59 c 0,62,63
 699 20 699 20 755 20 c 0,64,65
 831 20 831 20 907 61 c 1,66,-1
 907 23 l 1,67,-1
 821 5 l 2,68,69
 786 -1 786 -1 766 -1 c 2,70,-1
 684 -1 l 2,71,72
 613 -1 613 -1 578 53 c 0,73,74
 550 100 550 100 550 178 c 1,75,-1
 500 162 l 2,76,77
 476 156 476 156 452 156 c 0,78,79
 426 156 426 156 397 167 c 2,80,-1
 363 179 l 1,81,82
 337 77 337 77 331 68 c 0,83,84
 295 -4 295 -4 211 -4 c 2,85,-1
 122 -4 l 2,86,87
 102 -4 102 -4 60 5 c 2,88,-1
 9 14 l 1,89,-1
 9 53 l 1,90,-1
 79 27 l 2,91,92
 95 22 95 22 110.5 19 c 128,-1,93
 126 16 126 16 137 16 c 0,94,95
 220 16 220 16 250 96 c 0,96,97
 265 137 265 137 265 211 c 2,98,-1
 265 227 l 1,99,-1
 119 227 l 1,100,-1
 89 216 l 1,101,-1
 119 250 l 1,102,-1
 265 250 l 1,103,-1
 119 250 l 1,104,-1
 89 259 l 1,105,-1
 265 250 l 1,0,-1
560 292 m 0,106,107
 560 331 560 331 531 362.5 c 128,-1,108
 502 394 502 394 458 394 c 0,109,110
 416 394 416 394 384.5 363 c 128,-1,111
 353 332 353 332 353 290 c 0,112,113
 353 261 353 261 381.5 224 c 128,-1,114
 410 187 410 187 449 187 c 0,115,116
 490 187 490 187 525 217.5 c 128,-1,117
 560 248 560 248 560 292 c 0,106,107
EndSplineSet
EndChar

StartChar: bar
Encoding: 61564 61564 118
Width: 1151
GlyphClass: 2
Flags: W
LayerCount: 2
Fore
SplineSet
148 269 m 1,0,-1
 24 269 l 1,1,-1
 24 329 l 1,2,-1
 25 412 l 1,3,-1
 25 454 l 1,4,-1
 25 469 l 1,5,-1
 25 482 l 1,6,-1
 25 493 l 2,7,8
 25 530 25 530 22 551 c 0,9,10
 22 559 22 559 14 574 c 2,11,-1
 10 580 l 1,12,-1
 273 580 l 1,13,-1
 273 602 l 1,14,-1
 274 635 l 1,15,-1
 274 646 l 1,16,-1
 274 698 l 1,17,-1
 270 724 l 2,18,19
 270 739 270 739 256 742 c 1,20,-1
 373 742 l 1,21,-1
 372 783 l 2,22,23
 372 804 372 804 365 804 c 1,24,-1
 484 804 l 1,25,26
 479 797 479 797 478 792 c 2,27,-1
 476 765 l 1,28,-1
 476 752 l 1,29,-1
 477 742 l 1,30,-1
 611 742 l 1,31,-1
 610 789 l 1,32,-1
 609 796 l 1,33,-1
 605 804 l 1,34,-1
 721 804 l 1,35,-1
 718 785 l 1,36,-1
 717 774 l 1,37,-1
 717 765 l 1,38,-1
 717 752 l 1,39,-1
 718 742 l 1,40,-1
 828 742 l 1,41,-1
 824 736 l 2,42,43
 821 728 821 728 819 710 c 2,44,-1
 818 580 l 1,45,-1
 1075 580 l 1,46,47
 1073 576 1073 576 1070.5 559 c 128,-1,48
 1068 542 1068 542 1068 520 c 2,49,-1
 1065 407 l 1,50,-1
 1065 343 l 2,51,52
 1065 293 1065 293 1073 269 c 1,53,-1
 944 269 l 1,54,-1
 941 218 l 1,55,-1
 940 152 l 1,56,-1
 943 80 l 2,57,58
 943 70 943 70 944 56.5 c 128,-1,59
 945 43 945 43 948 28 c 2,60,-1
 954 -1 l 1,61,-1
 610 -1 l 1,62,-1
 613 58 l 1,63,-1
 614 122 l 2,64,65
 614 133 614 133 613 158 c 128,-1,66
 612 183 612 183 612 197 c 2,67,-1
 608 269 l 1,68,-1
 489 269 l 1,69,70
 487 262 487 262 486 256 c 0,71,72
 482 234 482 234 482 214 c 2,73,-1
 479 122 l 1,74,-1
 480 59 l 1,75,-1
 483 -1 l 1,76,-1
 138 -1 l 1,77,-1
 147 22 l 2,78,79
 150 33 150 33 150 48 c 2,80,-1
 149 80 l 1,81,-1
 151 117 l 1,82,-1
 152 158 l 1,83,-1
 151 221 l 1,84,-1
 148 269 l 1,0,-1
964 554 m 1,85,-1
 821 554 l 1,86,-1
 822 424 l 1,87,-1
 825 318 l 1,88,-1
 828 288 l 1,89,-1
 956 288 l 1,90,-1
 961 334 l 1,91,-1
 967 418 l 1,92,-1
 964 554 l 1,85,-1
496 652 m 1,93,-1
 494 721 l 1,94,-1
 373 721 l 1,95,-1
 368 663 l 1,96,-1
 365 580 l 1,97,-1
 496 580 l 1,98,-1
 496 652 l 1,93,-1
499 554 m 1,99,-1
 368 554 l 1,100,-1
 367 421 l 1,101,-1
 370 288 l 1,102,-1
 493 288 l 1,103,-1
 497 356 l 1,104,-1
 499 428 l 1,105,-1
 499 554 l 1,99,-1
276 554 m 1,106,-1
 132 554 l 1,107,-1
 130 418 l 2,108,109
 130 399 130 399 130 389.5 c 128,-1,110
 130 380 130 380 134 335 c 0,111,112
 134 328 134 328 135 315.5 c 128,-1,113
 136 303 136 303 139 288 c 1,114,-1
 269 288 l 1,115,-1
 275 424 l 1,116,-1
 276 554 l 1,106,-1
848 139 m 1,117,-1
 845 205 l 2,118,119
 845 236 845 236 840 269 c 1,120,-1
 714 269 l 1,121,-1
 711 216 l 1,122,-1
 707 117 l 2,123,124
 707 103 707 103 708 83 c 128,-1,125
 709 63 709 63 712 39 c 2,126,-1
 715 17 l 1,127,-1
 839 17 l 1,128,129
 839 35 839 35 841 43 c 2,130,-1
 848 139 l 1,117,-1
258 269 m 1,131,-1
 253 223 l 1,132,-1
 248 139 l 2,133,134
 248 124 248 124 248 111 c 128,-1,135
 248 98 248 98 250 77 c 2,136,-1
 254 17 l 1,137,-1
 380 17 l 1,138,-1
 385 67 l 1,139,-1
 388 117 l 1,140,-1
 385 197 l 1,141,-1
 379 269 l 1,142,-1
 258 269 l 1,131,-1
725 554 m 1,143,-1
 594 554 l 1,144,-1
 594 428 l 2,145,146
 594 410 594 410 595 386 c 128,-1,147
 596 362 596 362 596 357 c 2,148,-1
 600 288 l 1,149,-1
 723 288 l 1,150,-1
 726 421 l 1,151,-1
 725 554 l 1,143,-1
724 580 m 1,152,-1
 720 721 l 1,153,-1
 600 721 l 1,154,-1
 594 580 l 1,155,-1
 724 580 l 1,152,-1
EndSplineSet
EndChar

StartChar: asciitilde
Encoding: 61566 61566 119
Width: 1070
GlyphClass: 2
Flags: W
LayerCount: 2
Fore
SplineSet
806 341 m 1,0,1
 782 374 782 374 769 422 c 128,-1,2
 756 470 756 470 756 522 c 2,3,-1
 756 548 l 2,4,5
 756 565 756 565 761 593 c 1,6,-1
 581 593 l 1,7,-1
 581 228 l 1,8,-1
 834 228 l 2,9,10
 881 228 881 228 909.5 195 c 128,-1,11
 938 162 938 162 938 98 c 0,12,13
 938 83 938 83 938 69 c 0,14,15
 935 52 935 52 933 42 c 128,-1,16
 931 32 931 32 929.5 26 c 128,-1,17
 928 20 928 20 920 0 c 1,18,-1
 662 0 l 1,19,20
 648 44 648 44 648 95 c 0,21,22
 648 111 648 111 648 128 c 0,23,24
 651 144 651 144 653 161 c 128,-1,25
 655 178 655 178 655.5 182 c 128,-1,26
 656 186 656 186 662 208 c 1,27,-1
 402 208 l 1,28,-1
 411 149 l 1,29,-1
 415 88 l 2,30,31
 415 36 415 36 402 0 c 1,32,-1
 143 0 l 1,33,-1
 131 40 l 2,34,35
 125 64 125 64 125 98 c 0,36,37
 125 162 125 162 152 195 c 128,-1,38
 179 228 179 228 228 228 c 2,39,-1
 483 228 l 1,40,-1
 483 593 l 1,41,-1
 303 593 l 1,42,43
 303 510 303 510 297 466 c 0,44,45
 286 389 286 389 254 340 c 1,46,-1
 81 340 l 2,47,48
 61 340 61 340 38.5 356 c 128,-1,49
 16 372 16 372 16 391 c 2,50,-1
 16 541 l 2,51,52
 16 568 16 568 38.5 590.5 c 128,-1,53
 61 613 61 613 86 613 c 2,54,-1
 364 613 l 1,55,56
 364 694 364 694 374 733 c 0,57,58
 391 801 391 801 438 801 c 2,59,-1
 625 801 l 2,60,61
 668 801 668 801 686 746 c 0,62,63
 691 729 691 729 694 703 c 128,-1,64
 697 677 697 677 697 643 c 2,65,-1
 697 614 l 1,66,-1
 972 614 l 2,67,68
 993 614 993 614 1017.5 590.5 c 128,-1,69
 1042 567 1042 567 1042 542 c 2,70,-1
 1042 392 l 2,71,72
 1042 375 1042 375 1020 357 c 0,73,74
 998 341 998 341 978 341 c 2,75,-1
 806 341 l 1,0,1
278 209 m 1,76,77
 239 203 239 203 220 180 c 128,-1,78
 201 157 201 157 201 107 c 0,79,80
 201 78 201 78 207 53 c 128,-1,81
 213 28 213 28 223 19 c 1,82,-1
 326 19 l 1,83,84
 338 49 338 49 338 101 c 0,85,86
 338 120 338 120 338 139 c 0,87,88
 335 154 335 154 333 169.5 c 128,-1,89
 331 185 331 185 319 209 c 1,90,-1
 278 209 l 1,76,77
862 107 m 0,91,92
 862 157 862 157 842 180 c 0,93,94
 825 203 825 203 785 209 c 1,95,-1
 742 209 l 1,96,97
 724 168 724 168 724 105 c 0,98,99
 724 54 724 54 737 19 c 1,100,-1
 840 19 l 1,101,102
 845 24 845 24 853.5 51 c 128,-1,103
 862 78 862 78 862 107 c 0,91,92
964 464 m 1,104,-1
 964 486 l 2,105,106
 964 527 964 527 958 551 c 0,107,108
 949 584 949 584 921 594 c 1,109,-1
 844 594 l 1,110,-1
 840 542 l 1,111,-1
 839 510 l 2,112,113
 839 462 839 462 846.5 427 c 128,-1,114
 854 392 854 392 878 365 c 1,115,-1
 940 365 l 1,116,117
 954 375 954 375 960 401 c 1,118,-1
 964 464 l 1,104,-1
136 593 m 1,119,120
 111 584 111 584 102 548 c 0,121,122
 99 530 99 530 97 509 c 128,-1,123
 95 488 95 488 95 463 c 0,124,125
 95 422 95 422 98 399 c 128,-1,126
 101 376 101 376 118 365 c 1,127,-1
 181 365 l 1,128,129
 199 386 199 386 209 426.5 c 128,-1,130
 219 467 219 467 219 511 c 2,131,-1
 219 534 l 2,132,133
 219 542 219 542 219 550 c 0,134,135
 217 560 217 560 217 564 c 2,136,-1
 214 593 l 1,137,-1
 136 593 l 1,119,120
486 781 m 1,138,139
 465 769 465 769 456 728 c 0,140,141
 452 708 452 708 450 688.5 c 128,-1,142
 448 669 448 669 448 643 c 2,143,-1
 449 614 l 1,144,-1
 605 614 l 1,145,-1
 606 630 l 1,146,-1
 606 644 l 2,147,148
 606 675 606 675 605 689.5 c 128,-1,149
 604 704 604 704 598 729 c 0,150,151
 592 768 592 768 576 781 c 1,152,-1
 486 781 l 1,138,139
EndSplineSet
EndChar

StartChar: ecircumflex
Encoding: 234 234 120
Width: 700
Flags: W
LayerCount: 2
Fore
SplineSet
218 547 m 1,0,1
 220 541 220 541 220 529 c 0,2,3
 220 498 220 498 208.5 398 c 128,-1,4
 197 298 197 298 198 290 c 1,5,-1
 386 290 l 2,6,7
 387 293 387 293 387 304 c 0,8,9
 387 339 387 339 372.5 413 c 128,-1,10
 358 487 358 487 340 547 c 1,11,-1
 218 547 l 1,0,1
524 257 m 1,12,-1
 396 257 l 1,13,14
 397 251 397 251 397 240 c 128,-1,15
 397 229 397 229 397 224 c 0,16,17
 397 208 397 208 396 165.5 c 128,-1,18
 395 123 395 123 395 103 c 0,19,20
 395 41 395 41 402 33 c 1,21,-1
 533 33 l 1,22,23
 536 39 536 39 536 62 c 0,24,25
 536 99 536 99 532 149.5 c 128,-1,26
 528 200 528 200 524 257 c 1,12,-1
446 580 m 1,27,28
 442 575 442 575 442 553 c 0,29,30
 442 501 442 501 462 400 c 128,-1,31
 482 299 482 299 492 290 c 1,32,-1
 627 290 l 1,33,34
 620 281 620 281 620 210 c 0,35,36
 620 136 620 136 628 75.5 c 128,-1,37
 636 15 636 15 653 0 c 1,38,39
 575 0 575 0 463 0 c 128,-1,40
 351 0 351 0 234.5 0 c 128,-1,41
 118 0 118 0 32 0 c 1,42,43
 55 58 55 58 91 263.5 c 128,-1,44
 127 469 127 469 127 550 c 0,45,46
 127 572 127 572 124 580 c 1,47,-1
 446 580 l 1,27,28
192 259 m 1,48,49
 192 249 192 249 170.5 143.5 c 128,-1,50
 149 38 149 38 149 33 c 1,51,-1
 291 33 l 1,52,53
 297 37 297 37 299 60 c 128,-1,54
 301 83 301 83 301 120 c 0,55,56
 301 151 301 151 299 201 c 128,-1,57
 297 251 297 251 297 257 c 1,58,-1
 192 259 l 1,48,49
EndSplineSet
EndChar

StartChar: ucircumflex
Encoding: 251 251 121
Width: 720
Flags: W
LayerCount: 2
Fore
SplineSet
439 547 m 1,0,-1
 442 523 l 1,1,-1
 443 473 l 1,2,-1
 440 292 l 1,3,-1
 438 157 l 1,4,-1
 439 99 l 2,5,6
 439 77 439 77 443 72 c 1,7,-1
 559 126 l 2,8,9
 561 129 561 129 562.5 143 c 128,-1,10
 564 157 564 157 564 174 c 2,11,-1
 565 292 l 1,12,-1
 564 441 l 2,13,14
 564 458 564 458 563 493 c 128,-1,15
 562 528 562 528 562 545 c 1,16,-1
 439 547 l 1,0,-1
243 547 m 1,17,-1
 245 521 l 2,18,19
 245 476 245 476 238 395 c 2,20,-1
 225 211 l 2,21,22
 225 175 225 175 222 123 c 128,-1,23
 219 71 219 71 219 55 c 0,24,25
 219 -12 219 -12 226 -40 c 1,26,-1
 292 -7 l 1,27,-1
 343 18 l 1,28,-1
 346 178 l 1,29,-1
 352 400 l 2,30,31
 352 458 352 458 353.5 493.5 c 128,-1,32
 355 529 355 529 358 547 c 1,33,-1
 243 547 l 1,17,-1
23 -200 m 1,34,-1
 27 -173 l 1,35,-1
 21 -135 l 1,36,-1
 126 -84 l 1,37,38
 126 -42 126 -42 128 -5 c 0,39,40
 135 123 135 123 135 141 c 2,41,-1
 154 380 l 1,42,-1
 164 538 l 2,43,44
 164 572 164 572 159 580 c 1,45,-1
 664 580 l 1,46,47
 661 575 661 575 658.5 555.5 c 128,-1,48
 656 536 656 536 656 507 c 2,49,-1
 653 357 l 2,50,51
 653 310 653 310 654 268.5 c 128,-1,52
 655 227 655 227 659.5 175 c 128,-1,53
 664 123 664 123 676 111 c 1,54,-1
 664 112 l 1,55,56
 603 112 603 112 455 41 c 0,57,58
 330 -19 330 -19 194 -99 c 2,59,-1
 23 -200 l 1,34,-1
EndSplineSet
EndChar
